<svg width="112" height="112" viewBox="0 0 112 112" fill="none" xmlns="http://www.w3.org/2000/svg">
<path d="M23.1412 55.9996V34.396C23.2053 30.1495 24.1068 25.9574 25.7939 22.0598C27.481 18.1623 29.9206 14.636 32.9728 11.6829C36.0251 8.7298 39.6301 6.40802 43.5812 4.85057C47.5324 3.29312 51.752 2.53062 55.9983 2.60675C60.2447 2.53062 64.4643 3.29312 68.4154 4.85057C72.3665 6.40802 75.9715 8.7298 79.0238 11.6829C82.0761 14.636 84.5157 18.1623 86.2028 22.0598C87.8899 25.9574 88.7913 30.1495 88.8555 34.396V55.9996M72.4269 99.1246C76.784 99.1246 80.9627 97.3937 84.0436 94.3128C87.1246 91.2318 88.8555 87.0532 88.8555 82.696V64.2139M72.4269 99.1246C72.4269 101.848 71.3451 104.459 69.4195 106.385C67.4939 108.311 64.8822 109.392 62.159 109.392H49.8376C47.1144 109.392 44.5027 108.311 42.5771 106.385C40.6515 104.459 39.5698 101.848 39.5698 99.1246C39.5698 96.4014 40.6515 93.7897 42.5771 91.8641C44.5027 89.9385 47.1144 88.8568 49.8376 88.8568H62.159C64.8822 88.8568 67.4939 89.9385 69.4195 91.8641C71.3451 93.7897 72.4269 96.4014 72.4269 99.1246ZM10.8198 43.6782H19.034C20.1233 43.6782 21.168 44.1109 21.9382 44.8811C22.7085 45.6514 23.1412 46.696 23.1412 47.7853V72.4282C23.1412 73.5175 22.7085 74.5621 21.9382 75.3324C21.168 76.1026 20.1233 76.5353 19.034 76.5353H10.8198C8.64119 76.5353 6.55185 75.6699 5.01138 74.1294C3.4709 72.5889 2.60547 70.4996 2.60547 68.321V51.8925C2.60547 49.7139 3.4709 47.6246 5.01138 46.0841C6.55185 44.5436 8.64119 43.6782 10.8198 43.6782ZM101.177 76.5353H92.9626C91.8733 76.5353 90.8287 76.1026 90.0584 75.3324C89.2882 74.5621 88.8555 73.5175 88.8555 72.4282V47.7853C88.8555 46.696 89.2882 45.6514 90.0584 44.8811C90.8287 44.1109 91.8733 43.6782 92.9626 43.6782H101.177C103.355 43.6782 105.445 44.5436 106.985 46.0841C108.526 47.6246 109.391 49.7139 109.391 51.8925V68.321C109.391 70.4996 108.526 72.5889 106.985 74.1294C105.445 75.6699 103.355 76.5353 101.177 76.5353Z" stroke="#2B0C39" stroke-width="5" stroke-linecap="round" stroke-linejoin="round"/>
</svg>
