<svg width="83" height="84" viewBox="0 0 83 84" fill="none" xmlns="http://www.w3.org/2000/svg">
<path d="M15.1758 12.2496C14.4 12.2496 13.656 12.563 13.1075 13.121C12.559 13.6789 12.2508 14.4356 12.2508 15.2246C12.2508 16.0136 12.559 16.7703 13.1075 17.3283C13.656 17.8862 14.4 18.1996 15.1758 18.1996H67.8258C68.6015 18.1996 69.3455 17.8862 69.8941 17.3283C70.4426 16.7703 70.7508 16.0136 70.7508 15.2246C70.7508 14.4356 70.4426 13.6789 69.8941 13.121C69.3455 12.563 68.6015 12.2496 67.8258 12.2496H15.1758ZM21.0258 47.9496C23.3531 47.9496 25.585 47.0093 27.2306 45.3355C28.8763 43.6618 29.8008 41.3917 29.8008 39.0246C29.8008 36.6576 28.8763 34.3874 27.2306 32.7137C25.585 31.0399 23.3531 30.0996 21.0258 30.0996C18.6985 30.0996 16.4665 31.0399 14.8209 32.7137C13.1753 34.3874 12.2508 36.6576 12.2508 39.0246C12.2508 41.3917 13.1753 43.6618 14.8209 45.3355C16.4665 47.0093 18.6985 47.9496 21.0258 47.9496ZM21.0258 41.9996C20.25 41.9996 19.506 41.6862 18.9575 41.1283C18.409 40.5703 18.1008 39.8136 18.1008 39.0246C18.1008 38.2356 18.409 37.4789 18.9575 36.921C19.506 36.363 20.25 36.0496 21.0258 36.0496C21.8015 36.0496 22.5455 36.363 23.0941 36.921C23.6426 37.4789 23.9508 38.2356 23.9508 39.0246C23.9508 39.8136 23.6426 40.5703 23.0941 41.1283C22.5455 41.6862 21.8015 41.9996 21.0258 41.9996ZM29.8008 62.8246C29.8008 65.1917 28.8763 67.4618 27.2306 69.1355C25.585 70.8093 23.3531 71.7496 21.0258 71.7496C18.6985 71.7496 16.4665 70.8093 14.8209 69.1355C13.1753 67.4618 12.2508 65.1917 12.2508 62.8246C12.2508 60.4576 13.1753 58.1874 14.8209 56.5137C16.4665 54.8399 18.6985 53.8996 21.0258 53.8996C23.3531 53.8996 25.585 54.8399 27.2306 56.5137C28.8763 58.1874 29.8008 60.4576 29.8008 62.8246ZM23.9508 62.8246C23.9508 62.0356 23.6426 61.2789 23.0941 60.721C22.5455 60.163 21.8015 59.8496 21.0258 59.8496C20.25 59.8496 19.506 60.163 18.9575 60.721C18.409 61.2789 18.1008 62.0356 18.1008 62.8246C18.1008 63.6136 18.409 64.3703 18.9575 64.9283C19.506 65.4862 20.25 65.7996 21.0258 65.7996C21.8015 65.7996 22.5455 65.4862 23.0941 64.9283C23.6426 64.3703 23.9508 63.6136 23.9508 62.8246ZM35.6508 39.0246C35.6508 38.2356 35.959 37.4789 36.5075 36.921C37.056 36.363 37.8 36.0496 38.5758 36.0496H67.8258C68.6015 36.0496 69.3455 36.363 69.8941 36.921C70.4426 37.4789 70.7508 38.2356 70.7508 39.0246C70.7508 39.8136 70.4426 40.5703 69.8941 41.1283C69.3455 41.6862 68.6015 41.9996 67.8258 41.9996H38.5758C37.8 41.9996 37.056 41.6862 36.5075 41.1283C35.959 40.5703 35.6508 39.8136 35.6508 39.0246ZM38.5758 59.8496C37.8 59.8496 37.056 60.163 36.5075 60.721C35.959 61.2789 35.6508 62.0356 35.6508 62.8246C35.6508 63.6136 35.959 64.3703 36.5075 64.9283C37.056 65.4862 37.8 65.7996 38.5758 65.7996H67.8258C68.6015 65.7996 69.3455 65.4862 69.8941 64.9283C70.4426 64.3703 70.7508 63.6136 70.7508 62.8246C70.7508 62.0356 70.4426 61.2789 69.8941 60.721C69.3455 60.163 68.6015 59.8496 67.8258 59.8496H38.5758ZM18.1008 0.349609C13.4462 0.349609 8.98232 2.23023 5.69106 5.57775C2.39979 8.92528 0.550781 13.4655 0.550781 18.1996V65.7996C0.550781 70.5337 2.39979 75.0739 5.69106 78.4215C8.98232 81.769 13.4462 83.6496 18.1008 83.6496H64.9008C69.5553 83.6496 74.0192 81.769 77.3105 78.4215C80.6018 75.0739 82.4508 70.5337 82.4508 65.7996V18.1996C82.4508 13.4655 80.6018 8.92528 77.3105 5.57775C74.0192 2.23023 69.5553 0.349609 64.9008 0.349609H18.1008ZM6.40078 18.1996C6.40078 15.0435 7.63346 12.0167 9.82763 9.78504C12.0218 7.55336 14.9977 6.29961 18.1008 6.29961H64.9008C68.0038 6.29961 70.9798 7.55336 73.1739 9.78504C75.3681 12.0167 76.6008 15.0435 76.6008 18.1996V65.7996C76.6008 68.9557 75.3681 71.9825 73.1739 74.2142C70.9798 76.4459 68.0038 77.6996 64.9008 77.6996H18.1008C14.9977 77.6996 12.0218 76.4459 9.82763 74.2142C7.63346 71.9825 6.40078 68.9557 6.40078 65.7996V18.1996Z" fill="#2B0C39"/>
</svg>
