<svg width="102" height="90" viewBox="0 0 102 90" fill="none" xmlns="http://www.w3.org/2000/svg">
<path d="M24.5417 87.3327H77.4583M35.125 66.166V87.3327M66.875 66.166V87.3327M3.375 7.95768C3.375 6.55424 3.93251 5.20829 4.92489 4.21591C5.91727 3.22353 7.26323 2.66602 8.66667 2.66602H93.3333C94.7368 2.66602 96.0827 3.22353 97.0751 4.21591C98.0675 5.20829 98.625 6.55424 98.625 7.95768V60.8743C98.625 62.2778 98.0675 63.6237 97.0751 64.6161C96.0827 65.6085 94.7368 66.166 93.3333 66.166H8.66667C7.26323 66.166 5.91727 65.6085 4.92489 64.6161C3.93251 63.6237 3.375 62.2778 3.375 60.8743V7.95768Z" stroke="#2B0C39" stroke-width="5" stroke-linecap="round" stroke-linejoin="round"/>
<path d="M29.832 44.9987L45.707 29.1237L56.2904 39.707L72.1654 23.832" stroke="#2B0C39" stroke-width="5" stroke-linecap="round" stroke-linejoin="round"/>
</svg>
