<svg width="100" height="102" viewBox="0 0 100 102" fill="none" xmlns="http://www.w3.org/2000/svg">
<g clip-path="url(#clip0_469_2764)">
<path d="M43.75 19.4375L46.875 13.125L53.125 9.96875L46.875 6.8125L43.75 0.5L40.625 6.8125L34.375 9.96875L40.625 13.125L43.75 19.4375ZM15.625 32.0625L20.832 21.5423L31.25 16.2812L20.832 11.0202L15.625 0.5L10.418 11.0202L0 16.2812L10.418 21.5423L15.625 32.0625ZM84.375 57.3125L79.168 67.8327L68.75 73.0938L79.168 78.3548L84.375 88.875L89.582 78.3548L100 73.0938L89.582 67.8327L84.375 57.3125ZM98.168 19.0883L81.5957 2.35035C80.377 1.11547 78.7773 0.5 77.1777 0.5C75.5781 0.5 73.9785 1.11547 72.7578 2.35035L1.83203 73.9854C-0.609375 76.4512 -0.609375 80.4478 1.83203 82.9117L18.4043 99.6497C19.625 100.883 21.2246 101.498 22.8223 101.498C24.4219 101.498 26.0215 100.883 27.2422 99.6497L98.168 28.0126C100.609 25.5508 100.609 21.5522 98.168 19.0883ZM70.2051 40.6357L60.2617 30.5929L77.1758 13.5097L87.1191 23.5525L70.2051 40.6357Z" fill="#2B0C39"/>
</g>
<defs>
<clipPath id="clip0_469_2764">
<rect width="100" height="101" fill="white" transform="translate(0 0.5)"/>
</clipPath>
</defs>
</svg>
