<svg width="118" height="118" viewBox="0 0 118 118" fill="none" xmlns="http://www.w3.org/2000/svg">
<path d="M44.375 98H29.75C24.5783 98 19.6184 95.9455 15.9614 92.2886C12.3045 88.6316 10.25 83.6717 10.25 78.5V34.625C10.25 29.4533 12.3045 24.4934 15.9614 20.8364C19.6184 17.1795 24.5783 15.125 29.75 15.125H83.375C88.5467 15.125 93.5066 17.1795 97.1636 20.8364C100.821 24.4934 102.875 29.4533 102.875 34.625V49.25M39.5 10.25V20M73.625 10.25V20M10.25 39.5H102.875M90.6875 76.7596L83.375 84.0721" stroke="#2B0C39" stroke-width="5" stroke-linecap="round" stroke-linejoin="round"/>
<path d="M83.375 107.75C96.8369 107.75 107.75 96.8369 107.75 83.375C107.75 69.9131 96.8369 59 83.375 59C69.9131 59 59 69.9131 59 83.375C59 96.8369 69.9131 107.75 83.375 107.75Z" stroke="#2B0C39" stroke-width="5" stroke-linecap="round" stroke-linejoin="round"/>
</svg>
