<svg width="1920" height="271" viewBox="0 0 1920 271" fill="none" xmlns="http://www.w3.org/2000/svg">
<rect width="1920" height="271" fill="#270139"/>
<g clip-path="url(#clip0_740_4283)">
<path d="M1662.03 203.085C1660.75 203.145 1659.88 203.349 1659.12 203.648C1658.32 203.951 1657.6 204.425 1657 205.036C1656.39 205.637 1655.92 206.363 1655.62 207.163C1655.32 207.927 1655.12 208.801 1655.06 210.077C1655.01 211.353 1655 211.765 1655 215.024C1655.01 218.283 1655.02 218.691 1655.08 219.971C1655.15 221.248 1655.35 222.12 1655.65 222.882C1655.96 223.671 1656.37 224.339 1657.04 225.005C1657.64 225.614 1658.36 226.085 1659.16 226.385C1659.93 226.68 1660.8 226.881 1662.08 226.937C1663.36 226.993 1663.77 227.006 1667.02 227C1670.28 226.994 1670.69 226.979 1671.97 226.918C1673.25 226.858 1674.12 226.653 1674.88 226.355C1675.68 226.052 1676.41 225.578 1677 224.967C1677.61 224.366 1678.08 223.64 1678.38 222.838C1678.68 222.075 1678.88 221.202 1678.94 219.926C1678.99 218.646 1679.01 218.236 1679 214.978C1678.99 211.72 1678.98 211.311 1678.92 210.031C1678.86 208.751 1678.65 207.883 1678.35 207.12C1678.05 206.32 1677.58 205.596 1676.97 204.997C1676.37 204.388 1675.64 203.918 1674.84 203.617C1674.07 203.323 1673.2 203.121 1671.92 203.067C1670.65 203.01 1670.24 202.995 1666.98 203.001C1663.72 203.007 1663.31 203.022 1662.03 203.085ZM1662.17 224.778C1661 224.728 1660.37 224.533 1659.94 224.37C1659.42 224.179 1658.95 223.874 1658.56 223.475C1658.16 223.089 1657.85 222.618 1657.66 222.097C1657.5 221.674 1657.3 221.039 1657.24 219.869C1657.18 218.605 1657.17 218.225 1657.16 215.021C1657.16 211.817 1657.17 211.438 1657.22 210.173C1657.27 209.004 1657.47 208.368 1657.63 207.945C1657.85 207.384 1658.11 206.985 1658.53 206.563C1658.91 206.163 1659.38 205.856 1659.91 205.663C1660.33 205.498 1660.96 205.302 1662.13 205.246C1663.4 205.186 1663.78 205.174 1666.98 205.166C1670.18 205.16 1670.56 205.172 1671.83 205.228C1673 205.278 1673.64 205.472 1674.06 205.636C1674.62 205.852 1675.02 206.111 1675.44 206.531C1675.86 206.951 1676.12 207.348 1676.34 207.909C1676.51 208.331 1676.7 208.965 1676.76 210.136C1676.82 211.401 1676.83 211.781 1676.84 214.984C1676.84 218.187 1676.83 218.567 1676.78 219.832C1676.73 221.002 1676.53 221.637 1676.37 222.062C1676.15 222.622 1675.89 223.022 1675.47 223.442C1675.09 223.842 1674.62 224.149 1674.09 224.342C1673.67 224.507 1673.04 224.704 1671.87 224.76C1670.6 224.82 1670.22 224.832 1667.02 224.839C1663.81 224.846 1663.44 224.832 1662.17 224.778ZM1671.95 208.587C1671.95 208.872 1672.04 209.15 1672.2 209.387C1672.36 209.624 1672.58 209.808 1672.84 209.916C1673.11 210.025 1673.4 210.053 1673.68 209.997C1673.96 209.941 1674.21 209.803 1674.41 209.602C1674.61 209.4 1674.75 209.143 1674.81 208.864C1674.86 208.584 1674.83 208.295 1674.72 208.032C1674.61 207.769 1674.43 207.544 1674.19 207.386C1673.95 207.229 1673.68 207.145 1673.39 207.145C1673.01 207.146 1672.64 207.298 1672.37 207.569C1672.1 207.839 1671.95 208.205 1671.95 208.587ZM1660.84 215.013C1660.84 216.647 1661.49 218.213 1662.65 219.367C1663.81 220.52 1665.38 221.166 1667.01 221.163C1668.65 221.16 1670.21 220.507 1671.37 219.35C1672.52 218.192 1673.17 216.623 1673.16 214.989C1673.14 213.369 1672.48 211.822 1671.32 210.686C1670.17 209.549 1668.61 208.914 1666.99 208.917C1665.37 208.92 1663.81 209.562 1662.66 210.703C1661.51 211.844 1660.86 213.392 1660.84 215.013ZM1663 215.009C1663 214.218 1663.23 213.444 1663.67 212.786C1664.11 212.127 1664.73 211.613 1665.46 211.309C1666.19 211.005 1667 210.924 1667.77 211.077C1668.55 211.229 1669.26 211.609 1669.82 212.167C1670.38 212.725 1670.77 213.437 1670.92 214.213C1671.08 214.989 1671 215.793 1670.7 216.525C1670.4 217.256 1669.89 217.882 1669.23 218.323C1668.57 218.764 1667.8 219 1667.01 219.001C1666.48 219.002 1665.96 218.9 1665.48 218.7C1664.99 218.5 1664.55 218.206 1664.18 217.835C1663.81 217.465 1663.51 217.024 1663.31 216.539C1663.11 216.054 1663 215.535 1663 215.009Z" fill="white"/>
</g>
<g clip-path="url(#clip1_740_4283)">
<mask id="mask0_740_4283" style="mask-type:luminance" maskUnits="userSpaceOnUse" x="1707" y="203" width="24" height="24">
<path d="M1707 203H1731V227H1707V203Z" fill="white"/>
</mask>
<g mask="url(#mask0_740_4283)">
<path fill-rule="evenodd" clip-rule="evenodd" d="M1707 215.067C1707 221.034 1711.33 225.994 1717 227V218.333H1714V215H1717V212.333C1717 209.333 1718.93 207.667 1721.67 207.667C1722.53 207.667 1723.47 207.8 1724.33 207.933V211H1722.8C1721.33 211 1721 211.733 1721 212.667V215H1724.2L1723.67 218.333H1721V227C1726.67 225.994 1731 221.034 1731 215.067C1731 208.43 1725.6 203 1719 203C1712.4 203 1707 208.43 1707 215.067Z" fill="white"/>
</g>
</g>
<path fill-rule="evenodd" clip-rule="evenodd" d="M1779.94 207.224C1779.44 206.506 1778.1 205.498 1775.94 205.933C1774.68 206.186 1773.93 206.809 1773.45 207.631C1772.94 208.507 1772.69 209.699 1772.69 211.085C1772.69 211.46 1772.54 211.819 1772.28 212.084C1772.01 212.349 1771.65 212.498 1771.28 212.498C1767.94 212.498 1764.75 211.505 1762.08 208.818C1761.87 209.908 1761.79 211.017 1761.84 212.125C1761.91 213.66 1762.28 215.199 1763.15 216.517C1764 217.813 1765.41 219 1767.76 219.746C1767.99 219.819 1768.2 219.95 1768.36 220.126C1768.53 220.303 1768.65 220.518 1768.71 220.753C1768.76 220.988 1768.76 221.233 1768.7 221.467C1768.63 221.7 1768.51 221.912 1768.34 222.085C1767.59 222.857 1766.73 223.525 1765.8 224.07C1767.3 224.226 1768.74 224.237 1770.08 224.115C1772.8 223.869 1774.96 223.094 1776.31 221.996C1779.15 219.689 1780.68 216.25 1780.39 210.487C1780.34 209.54 1781.26 208.519 1781.7 207.743C1781.03 207.867 1780.37 207.845 1779.94 207.224ZM1761.25 204.391C1761.51 204.361 1761.77 204.402 1762 204.509C1762.23 204.616 1762.43 204.785 1762.58 204.997C1764.67 208.048 1767.17 209.317 1769.95 209.605C1770.09 208.417 1770.41 207.243 1771.01 206.208C1771.89 204.691 1773.33 203.574 1775.39 203.162C1778.23 202.591 1780.39 203.619 1781.64 204.879L1784.18 204.405C1784.44 204.356 1784.71 204.383 1784.96 204.484C1785.21 204.584 1785.43 204.755 1785.59 204.974C1785.74 205.194 1785.83 205.453 1785.85 205.723C1785.86 205.992 1785.8 206.26 1785.66 206.494L1783.23 210.764C1783.45 216.927 1781.74 221.228 1778.09 224.192C1776.15 225.763 1773.38 226.655 1770.34 226.93C1767.27 227.207 1763.81 226.872 1760.36 225.866C1760.07 225.78 1759.81 225.601 1759.63 225.355C1759.44 225.11 1759.34 224.811 1759.34 224.504C1759.35 224.198 1759.45 223.9 1759.63 223.656C1759.82 223.411 1760.08 223.234 1760.37 223.15C1762.1 222.657 1763.42 222.232 1764.62 221.487C1762.92 220.588 1761.67 219.412 1760.79 218.073C1759.56 216.21 1759.11 214.133 1759.02 212.261C1758.93 210.388 1759.2 208.653 1759.48 207.402C1759.65 206.689 1759.83 205.974 1760.1 205.29C1760.19 205.049 1760.34 204.837 1760.55 204.679C1760.75 204.521 1760.99 204.421 1761.25 204.391Z" fill="white"/>
<path d="M133 166L1786.33 166" stroke="white" stroke-width="1.33333"/>
<path d="M212.028 209.44C212.028 208.747 212.281 208.173 212.788 207.72C213.295 207.24 213.935 207 214.708 207H225.828C227.748 207 229.441 207.387 230.908 208.16C232.401 208.907 233.548 209.987 234.348 211.4C235.175 212.787 235.588 214.4 235.588 216.24C235.588 218.107 235.188 219.747 234.388 221.16C233.588 222.547 232.455 223.627 230.988 224.4C229.521 225.147 227.801 225.52 225.828 225.52H217.388V231.4C217.388 232.68 216.921 233.667 215.988 234.36C215.081 235.027 213.761 235.36 212.028 235.36V209.44ZM225.828 220.88C227.241 220.88 228.335 220.467 229.108 219.64C229.881 218.813 230.268 217.667 230.268 216.2C230.268 214.76 229.868 213.64 229.068 212.84C228.295 212.04 227.215 211.64 225.828 211.64H217.388V220.88H225.828ZM249.474 235.36C247.288 235.36 245.288 234.933 243.474 234.08C241.661 233.2 240.221 232.013 239.154 230.52C238.114 229.027 237.594 227.4 237.594 225.64V216.32C237.594 214.56 238.114 212.947 239.154 211.48C240.221 209.987 241.661 208.813 243.474 207.96C245.288 207.08 247.288 206.64 249.474 206.64C251.661 206.64 253.661 207.08 255.474 207.96C257.314 208.813 258.754 209.987 259.794 211.48C260.861 212.947 261.394 214.56 261.394 216.32V225.64C261.394 227.4 260.861 229.027 259.794 230.52C258.754 232.013 257.314 233.2 255.474 234.08C253.661 234.933 251.661 235.36 249.474 235.36ZM249.474 230.68C251.474 230.68 253.074 230.213 254.274 229.28C255.474 228.32 256.074 227.08 256.074 225.56V216.44C256.074 214.893 255.474 213.653 254.274 212.72C253.074 211.76 251.474 211.28 249.474 211.28C247.501 211.28 245.914 211.76 244.714 212.72C243.514 213.653 242.914 214.893 242.914 216.44V225.56C242.914 227.08 243.514 228.32 244.714 229.28C245.914 230.213 247.501 230.68 249.474 230.68ZM265.27 209.44C265.27 208.747 265.523 208.173 266.03 207.72C266.537 207.24 267.177 207 267.95 207H279.07C280.99 207 282.683 207.387 284.15 208.16C285.643 208.907 286.79 209.987 287.59 211.4C288.417 212.787 288.83 214.4 288.83 216.24C288.83 218.107 288.43 219.747 287.63 221.16C286.83 222.547 285.697 223.627 284.23 224.4C282.763 225.147 281.043 225.52 279.07 225.52H270.63V231.4C270.63 232.68 270.163 233.667 269.23 234.36C268.323 235.027 267.003 235.36 265.27 235.36V209.44ZM279.07 220.88C280.483 220.88 281.577 220.467 282.35 219.64C283.123 218.813 283.51 217.667 283.51 216.2C283.51 214.76 283.11 213.64 282.31 212.84C281.537 212.04 280.457 211.64 279.07 211.64H270.63V220.88H279.07ZM304.292 235.36C302.052 235.36 300.025 234.907 298.212 234C296.425 233.093 295.025 231.84 294.012 230.24C292.999 228.64 292.492 226.827 292.492 224.8V210.6C292.492 209.32 292.945 208.347 293.852 207.68C294.759 206.987 296.092 206.64 297.852 206.64V224.8C297.852 226.587 298.439 228.013 299.612 229.08C300.785 230.147 302.345 230.68 304.292 230.68C306.239 230.68 307.799 230.147 308.972 229.08C310.145 228.013 310.732 226.587 310.732 224.8V210.6C310.732 209.293 311.185 208.307 312.092 207.64C312.999 206.973 314.332 206.64 316.092 206.64V224.8C316.092 226.827 315.585 228.64 314.572 230.24C313.559 231.84 312.145 233.093 310.332 234C308.545 234.907 306.532 235.36 304.292 235.36ZM323.383 235C322.609 235 321.943 234.72 321.383 234.16C320.849 233.6 320.583 232.933 320.583 232.16V210.6C320.583 209.267 321.023 208.28 321.903 207.64C322.783 206.973 324.129 206.64 325.943 206.64V230.36H336.743C337.996 230.36 338.943 230.76 339.583 231.56C340.223 232.333 340.543 233.48 340.543 235H323.383ZM345.845 235.36C344.698 235.227 343.791 234.827 343.125 234.16C342.485 233.493 342.165 232.653 342.165 231.64C342.165 230.867 342.351 230.067 342.725 229.24L351.885 208.4C352.391 207.227 353.271 206.64 354.525 206.64C355.751 206.64 356.618 207.227 357.125 208.4L366.285 229.24C366.658 230.12 366.845 230.92 366.845 231.64C366.845 232.653 366.511 233.493 365.845 234.16C365.205 234.827 364.298 235.227 363.125 235.36L359.765 227.76H349.245L345.845 235.36ZM358.125 223.2L353.725 212.24L353.245 212.44L354.205 214.92L350.845 223.2H358.125Z" fill="white"/>
<path fill-rule="evenodd" clip-rule="evenodd" d="M186.811 246.517C186.811 246.517 186.811 228.057 186.811 220.401C185.681 204.656 172.477 203.716 170.142 207.539C165.713 214.792 154.576 206.086 153.239 221.767C153.239 229.886 161.334 236.796 161.334 232.051C161.334 227.306 161.334 212.558 161.334 212.558C161.334 210.27 160.26 203.265 165.575 203.653C170.466 204.011 178.065 210.011 178.531 212.558C178.997 215.105 178.531 227.755 178.531 227.755C178.531 229.223 176.341 234.706 168.371 233.67V236.044V237.857C167.998 239.887 165.595 240.923 163.151 240.923C159.19 240.923 139.666 236.044 139.666 218.652C139.666 206.857 151.099 199.425 169.257 197.663H169.816C176.76 197.332 190.06 193.269 192.584 210.117C194.268 221.358 193.349 246.517 186.811 246.517ZM167.952 213.278C169.301 210.86 172.985 213.249 172.985 215.105C172.985 216.962 172.985 226.546 172.985 226.546C172.643 227.165 171.596 228.334 170.142 228.057C168.688 227.781 168.076 226.762 167.952 226.287V213.278Z" fill="white"/>
<path d="M786.245 216.378H783.869C783.801 215.989 783.676 215.643 783.494 215.343C783.312 215.038 783.085 214.779 782.814 214.568C782.543 214.356 782.234 214.197 781.886 214.091C781.543 213.981 781.173 213.926 780.775 213.926C780.067 213.926 779.44 214.104 778.894 214.46C778.347 214.811 777.92 215.328 777.61 216.01C777.301 216.688 777.147 217.516 777.147 218.494C777.147 219.489 777.301 220.328 777.61 221.01C777.924 221.688 778.352 222.2 778.894 222.548C779.44 222.891 780.065 223.062 780.768 223.062C781.158 223.062 781.522 223.011 781.861 222.91C782.204 222.804 782.511 222.649 782.782 222.446C783.058 222.243 783.288 221.993 783.475 221.696C783.665 221.4 783.797 221.061 783.869 220.68L786.245 220.692C786.156 221.311 785.963 221.891 785.667 222.433C785.374 222.975 784.991 223.454 784.517 223.869C784.042 224.28 783.487 224.602 782.852 224.835C782.217 225.064 781.512 225.178 780.736 225.178C779.593 225.178 778.572 224.913 777.674 224.384C776.776 223.854 776.069 223.09 775.552 222.09C775.035 221.09 774.777 219.892 774.777 218.494C774.777 217.092 775.037 215.893 775.558 214.898C776.079 213.898 776.789 213.134 777.687 212.604C778.585 212.075 779.601 211.81 780.736 211.81C781.461 211.81 782.134 211.912 782.757 212.115C783.379 212.318 783.934 212.617 784.421 213.011C784.909 213.401 785.309 213.879 785.622 214.447C785.94 215.01 786.147 215.654 786.245 216.378ZM792.559 225.191C791.606 225.191 790.78 224.981 790.081 224.562C789.382 224.142 788.84 223.556 788.454 222.802C788.073 222.048 787.882 221.167 787.882 220.159C787.882 219.151 788.073 218.267 788.454 217.509C788.84 216.751 789.382 216.162 790.081 215.743C790.78 215.324 791.606 215.114 792.559 215.114C793.512 215.114 794.338 215.324 795.037 215.743C795.735 216.162 796.275 216.751 796.657 217.509C797.042 218.267 797.235 219.151 797.235 220.159C797.235 221.167 797.042 222.048 796.657 222.802C796.275 223.556 795.735 224.142 795.037 224.562C794.338 224.981 793.512 225.191 792.559 225.191ZM792.571 223.348C793.088 223.348 793.52 223.206 793.867 222.922C794.215 222.634 794.473 222.249 794.643 221.766C794.816 221.283 794.903 220.745 794.903 220.152C794.903 219.555 794.816 219.015 794.643 218.532C794.473 218.045 794.215 217.657 793.867 217.369C793.52 217.081 793.088 216.937 792.571 216.937C792.042 216.937 791.601 217.081 791.25 217.369C790.903 217.657 790.642 218.045 790.468 218.532C790.299 219.015 790.214 219.555 790.214 220.152C790.214 220.745 790.299 221.283 790.468 221.766C790.642 222.249 790.903 222.634 791.25 222.922C791.601 223.206 792.042 223.348 792.571 223.348ZM799.187 228.66V215.241H801.449V216.855H801.582C801.701 216.618 801.868 216.366 802.084 216.099C802.3 215.828 802.592 215.597 802.961 215.406C803.329 215.211 803.8 215.114 804.371 215.114C805.125 215.114 805.805 215.307 806.411 215.692C807.021 216.073 807.504 216.639 807.859 217.389C808.219 218.134 808.399 219.049 808.399 220.133C808.399 221.205 808.224 222.116 807.872 222.865C807.521 223.615 807.042 224.187 806.436 224.581C805.831 224.975 805.144 225.172 804.378 225.172C803.819 225.172 803.355 225.078 802.986 224.892C802.618 224.706 802.321 224.481 802.097 224.219C801.877 223.952 801.705 223.7 801.582 223.462H801.487V228.66H799.187ZM801.442 220.121C801.442 220.752 801.531 221.304 801.709 221.779C801.891 222.253 802.152 222.624 802.491 222.891C802.834 223.153 803.249 223.285 803.736 223.285C804.244 223.285 804.67 223.149 805.013 222.878C805.356 222.603 805.615 222.228 805.788 221.753C805.966 221.275 806.055 220.73 806.055 220.121C806.055 219.515 805.968 218.977 805.795 218.507C805.621 218.037 805.363 217.668 805.019 217.401C804.676 217.134 804.249 217.001 803.736 217.001C803.245 217.001 802.827 217.13 802.484 217.389C802.141 217.647 801.881 218.009 801.703 218.475C801.529 218.941 801.442 219.489 801.442 220.121ZM811.467 228.66C811.153 228.66 810.863 228.634 810.596 228.583C810.334 228.537 810.124 228.482 809.967 228.418L810.501 226.626C810.836 226.724 811.134 226.771 811.397 226.766C811.659 226.762 811.89 226.679 812.089 226.518C812.293 226.362 812.464 226.099 812.604 225.731L812.801 225.203L809.262 215.241H811.702L813.951 222.611H814.052L816.308 215.241H818.754L814.847 226.182C814.665 226.698 814.423 227.141 814.122 227.51C813.822 227.882 813.453 228.166 813.017 228.361C812.585 228.56 812.068 228.66 811.467 228.66ZM820.346 225V215.241H822.576V216.868H822.677C822.855 216.304 823.16 215.87 823.592 215.565C824.029 215.256 824.526 215.101 825.085 215.101C825.212 215.101 825.354 215.108 825.511 215.12C825.672 215.129 825.805 215.144 825.911 215.165V217.281C825.814 217.247 825.659 217.217 825.447 217.192C825.24 217.162 825.039 217.147 824.844 217.147C824.425 217.147 824.048 217.238 823.713 217.42C823.383 217.598 823.122 217.846 822.931 218.164C822.741 218.481 822.646 218.848 822.646 219.263V225H820.346ZM827.439 225V215.241H829.739V225H827.439ZM828.596 213.856C828.231 213.856 827.918 213.735 827.655 213.494C827.393 213.248 827.261 212.954 827.261 212.611C827.261 212.263 827.393 211.969 827.655 211.728C827.918 211.482 828.231 211.359 828.596 211.359C828.964 211.359 829.278 211.482 829.536 211.728C829.799 211.969 829.93 212.263 829.93 212.611C829.93 212.954 829.799 213.248 829.536 213.494C829.278 213.735 828.964 213.856 828.596 213.856ZM836.348 228.863C835.522 228.863 834.813 228.751 834.22 228.526C833.627 228.306 833.151 228.009 832.791 227.637C832.43 227.264 832.181 226.851 832.041 226.398L834.112 225.896C834.205 226.086 834.341 226.275 834.519 226.461C834.697 226.652 834.936 226.809 835.237 226.931C835.542 227.059 835.925 227.122 836.387 227.122C837.039 227.122 837.579 226.963 838.007 226.646C838.435 226.332 838.648 225.815 838.648 225.095V223.246H838.534C838.415 223.484 838.242 223.727 838.013 223.977C837.789 224.227 837.49 224.437 837.117 224.606C836.749 224.776 836.285 224.86 835.726 224.86C834.976 224.86 834.296 224.684 833.686 224.333C833.081 223.977 832.598 223.448 832.238 222.745C831.882 222.037 831.704 221.152 831.704 220.089C831.704 219.017 831.882 218.113 832.238 217.376C832.598 216.635 833.083 216.073 833.693 215.692C834.303 215.307 834.982 215.114 835.732 215.114C836.304 215.114 836.774 215.211 837.143 215.406C837.515 215.597 837.812 215.828 838.032 216.099C838.252 216.366 838.42 216.618 838.534 216.855H838.661V215.241H840.929V225.159C840.929 225.993 840.73 226.684 840.332 227.23C839.934 227.776 839.39 228.185 838.699 228.456C838.009 228.727 837.225 228.863 836.348 228.863ZM836.368 223.056C836.855 223.056 837.27 222.937 837.613 222.7C837.956 222.463 838.216 222.122 838.394 221.677C838.572 221.232 838.661 220.699 838.661 220.076C838.661 219.462 838.572 218.924 838.394 218.462C838.221 218.001 837.962 217.643 837.619 217.389C837.28 217.13 836.863 217.001 836.368 217.001C835.855 217.001 835.427 217.134 835.084 217.401C834.741 217.668 834.483 218.034 834.309 218.5C834.135 218.962 834.048 219.487 834.048 220.076C834.048 220.673 834.135 221.196 834.309 221.645C834.487 222.09 834.747 222.437 835.09 222.687C835.438 222.933 835.863 223.056 836.368 223.056ZM845.586 219.282V225H843.286V211.988H845.536V216.899H845.65C845.879 216.349 846.232 215.915 846.711 215.597C847.194 215.275 847.808 215.114 848.553 215.114C849.231 215.114 849.822 215.256 850.326 215.54C850.83 215.823 851.22 216.239 851.495 216.785C851.775 217.331 851.914 217.998 851.914 218.786V225H849.615V219.142C849.615 218.486 849.445 217.975 849.106 217.611C848.772 217.242 848.301 217.058 847.696 217.058C847.289 217.058 846.925 217.147 846.603 217.325C846.285 217.499 846.035 217.751 845.853 218.081C845.675 218.411 845.586 218.812 845.586 219.282ZM859.132 215.241V217.02H853.522V215.241H859.132ZM854.907 212.903H857.207V222.065C857.207 222.374 857.254 222.611 857.347 222.776C857.444 222.937 857.571 223.047 857.728 223.107C857.885 223.166 858.058 223.196 858.249 223.196C858.393 223.196 858.524 223.185 858.643 223.164C858.766 223.143 858.859 223.124 858.922 223.107L859.31 224.905C859.187 224.947 859.011 224.994 858.783 225.044C858.558 225.095 858.283 225.125 857.957 225.133C857.381 225.15 856.862 225.064 856.4 224.873C855.938 224.678 855.572 224.377 855.301 223.971C855.034 223.564 854.903 223.056 854.907 222.446V212.903ZM868.629 217.821L866.532 218.049C866.473 217.838 866.369 217.638 866.221 217.452C866.077 217.266 865.882 217.115 865.636 217.001C865.391 216.887 865.09 216.829 864.734 216.829C864.256 216.829 863.853 216.933 863.527 217.141C863.205 217.348 863.046 217.617 863.051 217.948C863.046 218.231 863.15 218.462 863.362 218.64C863.578 218.818 863.934 218.964 864.429 219.079L866.094 219.434C867.017 219.633 867.703 219.949 868.152 220.381C868.606 220.813 868.834 221.379 868.839 222.077C868.834 222.692 868.654 223.234 868.299 223.704C867.947 224.17 867.458 224.534 866.831 224.797C866.204 225.059 865.484 225.191 864.671 225.191C863.476 225.191 862.515 224.941 861.786 224.441C861.058 223.937 860.624 223.236 860.484 222.338L862.727 222.122C862.828 222.562 863.044 222.895 863.375 223.119C863.705 223.344 864.135 223.456 864.664 223.456C865.211 223.456 865.649 223.344 865.98 223.119C866.314 222.895 866.481 222.617 866.481 222.287C866.481 222.008 866.373 221.777 866.157 221.595C865.946 221.412 865.615 221.273 865.166 221.175L863.502 220.826C862.566 220.631 861.873 220.303 861.424 219.841C860.975 219.375 860.753 218.786 860.757 218.075C860.753 217.473 860.916 216.952 861.246 216.512C861.581 216.067 862.045 215.724 862.638 215.482C863.235 215.237 863.923 215.114 864.702 215.114C865.846 215.114 866.746 215.358 867.403 215.845C868.063 216.332 868.472 216.99 868.629 217.821ZM878.578 218.494C878.578 217.825 878.742 217.215 879.068 216.664C879.398 216.109 879.839 215.669 880.389 215.343C880.944 215.012 881.556 214.847 882.225 214.847C882.814 214.847 883.356 214.974 883.852 215.228C884.347 215.482 884.756 215.83 885.078 216.27C885.404 216.711 885.603 217.209 885.675 217.763H883.903C883.831 217.403 883.636 217.111 883.318 216.887C883 216.658 882.636 216.544 882.225 216.544C881.87 216.544 881.543 216.632 881.247 216.81C880.955 216.984 880.72 217.219 880.542 217.516C880.368 217.808 880.281 218.132 880.281 218.488C880.281 218.848 880.368 219.176 880.542 219.472C880.72 219.765 880.955 220 881.247 220.178C881.543 220.356 881.87 220.445 882.225 220.445C882.636 220.445 882.988 220.332 883.28 220.108C883.572 219.879 883.754 219.585 883.826 219.225H885.599C885.527 219.78 885.334 220.277 885.021 220.718C884.712 221.158 884.316 221.506 883.833 221.76C883.35 222.014 882.814 222.141 882.225 222.141C881.556 222.141 880.944 221.978 880.389 221.652C879.839 221.321 879.398 220.881 879.068 220.33C878.742 219.775 878.578 219.163 878.578 218.494ZM882.175 225.203C881.251 225.203 880.383 225.03 879.57 224.682C878.761 224.335 878.047 223.854 877.428 223.24C876.814 222.622 876.331 221.908 875.98 221.099C875.633 220.29 875.461 219.422 875.465 218.494C875.47 217.566 875.645 216.698 875.993 215.889C876.344 215.08 876.827 214.369 877.441 213.754C878.055 213.136 878.767 212.653 879.576 212.306C880.385 211.958 881.251 211.785 882.175 211.785C883.102 211.785 883.97 211.958 884.779 212.306C885.593 212.653 886.304 213.136 886.914 213.754C887.528 214.369 888.009 215.08 888.356 215.889C888.704 216.698 888.88 217.566 888.884 218.494C888.888 219.422 888.717 220.29 888.369 221.099C888.022 221.908 887.541 222.622 886.927 223.24C886.313 223.854 885.599 224.335 884.786 224.682C883.973 225.03 883.102 225.203 882.175 225.203ZM882.175 223.304C882.84 223.304 883.464 223.179 884.049 222.929C884.633 222.679 885.144 222.336 885.58 221.899C886.021 221.459 886.364 220.949 886.609 220.368C886.859 219.784 886.984 219.161 886.984 218.5C886.98 217.835 886.853 217.211 886.603 216.626C886.357 216.042 886.014 215.531 885.574 215.095C885.133 214.654 884.623 214.309 884.042 214.059C883.462 213.809 882.84 213.684 882.175 213.684C881.514 213.684 880.893 213.809 880.313 214.059C879.733 214.309 879.222 214.654 878.782 215.095C878.341 215.535 877.996 216.048 877.746 216.632C877.496 217.213 877.369 217.835 877.365 218.5C877.365 219.157 877.488 219.777 877.733 220.362C877.983 220.942 878.329 221.453 878.769 221.893C879.21 222.334 879.72 222.679 880.3 222.929C880.885 223.179 881.51 223.304 882.175 223.304ZM896.084 225V211.988H900.963C901.963 211.988 902.802 212.174 903.479 212.547C904.161 212.92 904.676 213.432 905.023 214.085C905.375 214.733 905.551 215.47 905.551 216.296C905.551 217.13 905.375 217.871 905.023 218.519C904.672 219.168 904.153 219.678 903.467 220.051C902.78 220.419 901.935 220.603 900.932 220.603H897.698V218.666H900.614C901.198 218.666 901.677 218.564 902.05 218.361C902.423 218.157 902.698 217.878 902.876 217.522C903.058 217.166 903.149 216.757 903.149 216.296C903.149 215.834 903.058 215.427 902.876 215.076C902.698 214.724 902.42 214.451 902.043 214.256C901.671 214.057 901.19 213.958 900.601 213.958H898.441V225H896.084ZM919.225 218.494C919.225 219.896 918.962 221.097 918.437 222.096C917.916 223.092 917.204 223.854 916.302 224.384C915.404 224.913 914.386 225.178 913.246 225.178C912.107 225.178 911.086 224.913 910.184 224.384C909.286 223.85 908.574 223.085 908.049 222.09C907.528 221.09 907.268 219.892 907.268 218.494C907.268 217.092 907.528 215.893 908.049 214.898C908.574 213.898 909.286 213.134 910.184 212.604C911.086 212.075 912.107 211.81 913.246 211.81C914.386 211.81 915.404 212.075 916.302 212.604C917.204 213.134 917.916 213.898 918.437 214.898C918.962 215.893 919.225 217.092 919.225 218.494ZM916.855 218.494C916.855 217.507 916.7 216.675 916.391 215.997C916.086 215.315 915.663 214.801 915.121 214.453C914.578 214.102 913.954 213.926 913.246 213.926C912.539 213.926 911.914 214.102 911.372 214.453C910.83 214.801 910.404 215.315 910.095 215.997C909.79 216.675 909.637 217.507 909.637 218.494C909.637 219.481 909.79 220.315 910.095 220.997C910.404 221.675 910.83 222.19 911.372 222.541C911.914 222.889 912.539 223.062 913.246 223.062C913.954 223.062 914.578 222.889 915.121 222.541C915.663 222.19 916.086 221.675 916.391 220.997C916.7 220.315 916.855 219.481 916.855 218.494ZM921.453 225V211.988H926.333C927.332 211.988 928.171 212.174 928.849 212.547C929.531 212.92 930.045 213.432 930.393 214.085C930.744 214.733 930.92 215.47 930.92 216.296C930.92 217.13 930.744 217.871 930.393 218.519C930.041 219.168 929.522 219.678 928.836 220.051C928.15 220.419 927.305 220.603 926.301 220.603H923.067V218.666H925.983C926.568 218.666 927.047 218.564 927.419 218.361C927.792 218.157 928.067 217.878 928.245 217.522C928.427 217.166 928.518 216.757 928.518 216.296C928.518 215.834 928.427 215.427 928.245 215.076C928.067 214.724 927.79 214.451 927.413 214.256C927.04 214.057 926.559 213.958 925.971 213.958H923.811V225H921.453ZM941.17 211.988H943.527V220.489C943.527 221.421 943.307 222.24 942.866 222.948C942.43 223.655 941.816 224.208 941.024 224.606C940.232 225 939.306 225.197 938.247 225.197C937.184 225.197 936.256 225 935.464 224.606C934.672 224.208 934.058 223.655 933.622 222.948C933.186 222.24 932.967 221.421 932.967 220.489V211.988H935.325V220.292C935.325 220.834 935.443 221.317 935.68 221.741C935.922 222.164 936.261 222.497 936.697 222.738C937.133 222.975 937.65 223.094 938.247 223.094C938.844 223.094 939.361 222.975 939.797 222.738C940.238 222.497 940.577 222.164 940.814 221.741C941.051 221.317 941.17 220.834 941.17 220.292V211.988ZM946.089 225V211.988H948.446V223.024H954.177V225H946.089ZM958.383 225H955.867L960.448 211.988H963.358L967.945 225H965.429L961.954 214.657H961.852L958.383 225ZM958.466 219.898H965.327V221.791H958.466V219.898ZM970.974 225.14C970.589 225.14 970.258 225.004 969.983 224.733C969.708 224.462 969.572 224.132 969.576 223.742C969.572 223.361 969.708 223.035 969.983 222.764C970.258 222.492 970.589 222.357 970.974 222.357C971.347 222.357 971.671 222.492 971.946 222.764C972.226 223.035 972.368 223.361 972.372 223.742C972.368 224 972.3 224.235 972.168 224.447C972.041 224.659 971.872 224.828 971.66 224.956C971.453 225.078 971.224 225.14 970.974 225.14ZM980.555 225H978.039L982.62 211.988H985.53L990.117 225H987.601L984.126 214.657H984.024L980.555 225ZM980.638 219.898H987.499V221.791H980.638V219.898ZM994.029 211.988V225H991.729V211.988H994.029ZM998.694 211.988V225H996.394V211.988H998.694ZM1005.6 225V211.988H1010.48C1011.48 211.988 1012.32 212.162 1012.99 212.509C1013.68 212.856 1014.19 213.343 1014.54 213.97C1014.89 214.593 1015.07 215.319 1015.07 216.15C1015.07 216.984 1014.89 217.708 1014.53 218.322C1014.18 218.932 1013.66 219.405 1012.98 219.739C1012.29 220.07 1011.45 220.235 1010.45 220.235H1006.97V218.278H1010.13C1010.71 218.278 1011.19 218.198 1011.56 218.037C1011.94 217.871 1012.21 217.632 1012.39 217.319C1012.57 217.001 1012.66 216.611 1012.66 216.15C1012.66 215.688 1012.57 215.294 1012.39 214.968C1012.21 214.637 1011.93 214.388 1011.56 214.218C1011.19 214.044 1010.71 213.958 1010.12 213.958H1007.96V225H1005.6ZM1012.32 219.104L1015.54 225H1012.91L1009.75 219.104H1012.32ZM1017.13 225V215.241H1019.43V225H1017.13ZM1018.29 213.856C1017.93 213.856 1017.61 213.735 1017.35 213.494C1017.09 213.248 1016.96 212.954 1016.96 212.611C1016.96 212.263 1017.09 211.969 1017.35 211.728C1017.61 211.482 1017.93 211.359 1018.29 211.359C1018.66 211.359 1018.97 211.482 1019.23 211.728C1019.49 211.969 1019.62 212.263 1019.62 212.611C1019.62 212.954 1019.49 213.248 1019.23 213.494C1018.97 213.735 1018.66 213.856 1018.29 213.856ZM1026.04 228.863C1025.22 228.863 1024.51 228.751 1023.91 228.526C1023.32 228.306 1022.84 228.009 1022.48 227.637C1022.12 227.264 1021.87 226.851 1021.74 226.398L1023.81 225.896C1023.9 226.086 1024.04 226.275 1024.21 226.461C1024.39 226.652 1024.63 226.809 1024.93 226.931C1025.24 227.059 1025.62 227.122 1026.08 227.122C1026.73 227.122 1027.27 226.963 1027.7 226.646C1028.13 226.332 1028.34 225.815 1028.34 225.095V223.246H1028.23C1028.11 223.484 1027.94 223.727 1027.71 223.977C1027.48 224.227 1027.18 224.437 1026.81 224.606C1026.44 224.776 1025.98 224.86 1025.42 224.86C1024.67 224.86 1023.99 224.684 1023.38 224.333C1022.78 223.977 1022.29 223.448 1021.93 222.745C1021.58 222.037 1021.4 221.152 1021.4 220.089C1021.4 219.017 1021.58 218.113 1021.93 217.376C1022.29 216.635 1022.78 216.073 1023.39 215.692C1024 215.307 1024.68 215.114 1025.43 215.114C1026 215.114 1026.47 215.211 1026.84 215.406C1027.21 215.597 1027.51 215.828 1027.73 216.099C1027.95 216.366 1028.11 216.618 1028.23 216.855H1028.36V215.241H1030.62V225.159C1030.62 225.993 1030.42 226.684 1030.03 227.23C1029.63 227.776 1029.08 228.185 1028.39 228.456C1027.7 228.727 1026.92 228.863 1026.04 228.863ZM1026.06 223.056C1026.55 223.056 1026.96 222.937 1027.31 222.7C1027.65 222.463 1027.91 222.122 1028.09 221.677C1028.27 221.232 1028.36 220.699 1028.36 220.076C1028.36 219.462 1028.27 218.924 1028.09 218.462C1027.92 218.001 1027.66 217.643 1027.31 217.389C1026.97 217.13 1026.56 217.001 1026.06 217.001C1025.55 217.001 1025.12 217.134 1024.78 217.401C1024.44 217.668 1024.18 218.034 1024 218.5C1023.83 218.962 1023.74 219.487 1023.74 220.076C1023.74 220.673 1023.83 221.196 1024 221.645C1024.18 222.09 1024.44 222.437 1024.78 222.687C1025.13 222.933 1025.56 223.056 1026.06 223.056ZM1035.28 219.282V225H1032.98V211.988H1035.23V216.899H1035.34C1035.57 216.349 1035.93 215.915 1036.41 215.597C1036.89 215.275 1037.5 215.114 1038.25 215.114C1038.93 215.114 1039.52 215.256 1040.02 215.54C1040.52 215.823 1040.91 216.239 1041.19 216.785C1041.47 217.331 1041.61 217.998 1041.61 218.786V225H1039.31V219.142C1039.31 218.486 1039.14 217.975 1038.8 217.611C1038.47 217.242 1038 217.058 1037.39 217.058C1036.98 217.058 1036.62 217.147 1036.3 217.325C1035.98 217.499 1035.73 217.751 1035.55 218.081C1035.37 218.411 1035.28 218.812 1035.28 219.282ZM1048.83 215.241V217.02H1043.22V215.241H1048.83ZM1044.6 212.903H1046.9V222.065C1046.9 222.374 1046.95 222.611 1047.04 222.776C1047.14 222.937 1047.27 223.047 1047.42 223.107C1047.58 223.166 1047.75 223.196 1047.94 223.196C1048.09 223.196 1048.22 223.185 1048.34 223.164C1048.46 223.143 1048.55 223.124 1048.62 223.107L1049 224.905C1048.88 224.947 1048.71 224.994 1048.48 225.044C1048.25 225.095 1047.98 225.125 1047.65 225.133C1047.08 225.15 1046.56 225.064 1046.09 224.873C1045.63 224.678 1045.27 224.377 1045 223.971C1044.73 223.564 1044.6 223.056 1044.6 222.446V212.903ZM1058.32 217.821L1056.23 218.049C1056.17 217.838 1056.06 217.638 1055.92 217.452C1055.77 217.266 1055.58 217.115 1055.33 217.001C1055.09 216.887 1054.78 216.829 1054.43 216.829C1053.95 216.829 1053.55 216.933 1053.22 217.141C1052.9 217.348 1052.74 217.617 1052.74 217.948C1052.74 218.231 1052.84 218.462 1053.06 218.64C1053.27 218.818 1053.63 218.964 1054.12 219.079L1055.79 219.434C1056.71 219.633 1057.4 219.949 1057.85 220.381C1058.3 220.813 1058.53 221.379 1058.53 222.077C1058.53 222.692 1058.35 223.234 1057.99 223.704C1057.64 224.17 1057.15 224.534 1056.53 224.797C1055.9 225.059 1055.18 225.191 1054.37 225.191C1053.17 225.191 1052.21 224.941 1051.48 224.441C1050.75 223.937 1050.32 223.236 1050.18 222.338L1052.42 222.122C1052.52 222.562 1052.74 222.895 1053.07 223.119C1053.4 223.344 1053.83 223.456 1054.36 223.456C1054.91 223.456 1055.34 223.344 1055.67 223.119C1056.01 222.895 1056.18 222.617 1056.18 222.287C1056.18 222.008 1056.07 221.777 1055.85 221.595C1055.64 221.412 1055.31 221.273 1054.86 221.175L1053.2 220.826C1052.26 220.631 1051.57 220.303 1051.12 219.841C1050.67 219.375 1050.45 218.786 1050.45 218.075C1050.45 217.473 1050.61 216.952 1050.94 216.512C1051.28 216.067 1051.74 215.724 1052.33 215.482C1052.93 215.237 1053.62 215.114 1054.4 215.114C1055.54 215.114 1056.44 215.358 1057.1 215.845C1057.76 216.332 1058.17 216.99 1058.32 217.821ZM1064.97 225V211.988H1069.85C1070.85 211.988 1071.69 212.162 1072.36 212.509C1073.05 212.856 1073.56 213.343 1073.91 213.97C1074.26 214.593 1074.44 215.319 1074.44 216.15C1074.44 216.984 1074.26 217.708 1073.9 218.322C1073.55 218.932 1073.03 219.405 1072.35 219.739C1071.66 220.07 1070.82 220.235 1069.82 220.235H1066.34V218.278H1069.5C1070.08 218.278 1070.56 218.198 1070.93 218.037C1071.31 217.871 1071.58 217.632 1071.76 217.319C1071.94 217.001 1072.03 216.611 1072.03 216.15C1072.03 215.688 1071.94 215.294 1071.76 214.968C1071.58 214.637 1071.3 214.388 1070.93 214.218C1070.56 214.044 1070.08 213.958 1069.49 213.958H1067.33V225H1064.97ZM1071.69 219.104L1074.91 225H1072.28L1069.12 219.104H1071.69ZM1080.68 225.191C1079.71 225.191 1078.86 224.987 1078.15 224.581C1077.44 224.17 1076.9 223.59 1076.52 222.84C1076.14 222.086 1075.94 221.198 1075.94 220.178C1075.94 219.174 1076.14 218.293 1076.52 217.535C1076.9 216.772 1077.44 216.179 1078.13 215.756C1078.82 215.328 1079.63 215.114 1080.56 215.114C1081.17 215.114 1081.73 215.211 1082.27 215.406C1082.8 215.597 1083.28 215.893 1083.69 216.296C1084.1 216.698 1084.43 217.211 1084.67 217.833C1084.91 218.452 1085.02 219.189 1085.02 220.044V220.75H1077.02V219.199H1082.82C1082.81 218.759 1082.72 218.367 1082.53 218.024C1082.35 217.677 1082.09 217.403 1081.75 217.204C1081.42 217.005 1081.04 216.906 1080.6 216.906C1080.13 216.906 1079.71 217.02 1079.36 217.249C1079 217.473 1078.72 217.77 1078.52 218.138C1078.33 218.503 1078.23 218.903 1078.23 219.339V220.692C1078.23 221.26 1078.33 221.747 1078.54 222.154C1078.74 222.556 1079.03 222.865 1079.41 223.081C1079.78 223.293 1080.22 223.399 1080.72 223.399C1081.05 223.399 1081.35 223.352 1081.62 223.259C1081.9 223.162 1082.13 223.02 1082.33 222.833C1082.53 222.647 1082.68 222.416 1082.78 222.141L1084.93 222.382C1084.79 222.95 1084.53 223.446 1084.15 223.869C1083.78 224.288 1083.29 224.615 1082.7 224.848C1082.12 225.076 1081.44 225.191 1080.68 225.191ZM1094.68 217.821L1092.59 218.049C1092.53 217.838 1092.42 217.638 1092.27 217.452C1092.13 217.266 1091.94 217.115 1091.69 217.001C1091.44 216.887 1091.14 216.829 1090.79 216.829C1090.31 216.829 1089.91 216.933 1089.58 217.141C1089.26 217.348 1089.1 217.617 1089.1 217.948C1089.1 218.231 1089.2 218.462 1089.42 218.64C1089.63 218.818 1089.99 218.964 1090.48 219.079L1092.15 219.434C1093.07 219.633 1093.76 219.949 1094.21 220.381C1094.66 220.813 1094.89 221.379 1094.89 222.077C1094.89 222.692 1094.71 223.234 1094.35 223.704C1094 224.17 1093.51 224.534 1092.88 224.797C1092.26 225.059 1091.54 225.191 1090.72 225.191C1089.53 225.191 1088.57 224.941 1087.84 224.441C1087.11 223.937 1086.68 223.236 1086.54 222.338L1088.78 222.122C1088.88 222.562 1089.1 222.895 1089.43 223.119C1089.76 223.344 1090.19 223.456 1090.72 223.456C1091.26 223.456 1091.7 223.344 1092.03 223.119C1092.37 222.895 1092.54 222.617 1092.54 222.287C1092.54 222.008 1092.43 221.777 1092.21 221.595C1092 221.412 1091.67 221.273 1091.22 221.175L1089.56 220.826C1088.62 220.631 1087.93 220.303 1087.48 219.841C1087.03 219.375 1086.81 218.786 1086.81 218.075C1086.81 217.473 1086.97 216.952 1087.3 216.512C1087.63 216.067 1088.1 215.724 1088.69 215.482C1089.29 215.237 1089.98 215.114 1090.76 215.114C1091.9 215.114 1092.8 215.358 1093.46 215.845C1094.12 216.332 1094.53 216.99 1094.68 217.821ZM1101.11 225.191C1100.13 225.191 1099.29 224.987 1098.57 224.581C1097.87 224.17 1097.32 223.59 1096.94 222.84C1096.56 222.086 1096.37 221.198 1096.37 220.178C1096.37 219.174 1096.56 218.293 1096.94 217.535C1097.33 216.772 1097.86 216.179 1098.56 215.756C1099.25 215.328 1100.06 215.114 1100.99 215.114C1101.59 215.114 1102.16 215.211 1102.69 215.406C1103.23 215.597 1103.7 215.893 1104.11 216.296C1104.53 216.698 1104.86 217.211 1105.09 217.833C1105.33 218.452 1105.45 219.189 1105.45 220.044V220.75H1097.45V219.199H1103.24C1103.24 218.759 1103.14 218.367 1102.96 218.024C1102.77 217.677 1102.51 217.403 1102.18 217.204C1101.85 217.005 1101.46 216.906 1101.02 216.906C1100.55 216.906 1100.14 217.02 1099.78 217.249C1099.43 217.473 1099.15 217.77 1098.95 218.138C1098.75 218.503 1098.65 218.903 1098.65 219.339V220.692C1098.65 221.26 1098.75 221.747 1098.96 222.154C1099.17 222.556 1099.46 222.865 1099.83 223.081C1100.2 223.293 1100.64 223.399 1101.14 223.399C1101.48 223.399 1101.78 223.352 1102.05 223.259C1102.32 223.162 1102.56 223.02 1102.75 222.833C1102.95 222.647 1103.1 222.416 1103.21 222.141L1105.35 222.382C1105.22 222.95 1104.96 223.446 1104.58 223.869C1104.2 224.288 1103.72 224.615 1103.13 224.848C1102.54 225.076 1101.87 225.191 1101.11 225.191ZM1107.39 225V215.241H1109.62V216.868H1109.73C1109.9 216.304 1110.21 215.87 1110.64 215.565C1111.08 215.256 1111.58 215.101 1112.13 215.101C1112.26 215.101 1112.4 215.108 1112.56 215.12C1112.72 215.129 1112.85 215.144 1112.96 215.165V217.281C1112.86 217.247 1112.71 217.217 1112.5 217.192C1112.29 217.162 1112.09 217.147 1111.89 217.147C1111.47 217.147 1111.1 217.238 1110.76 217.42C1110.43 217.598 1110.17 217.846 1109.98 218.164C1109.79 218.481 1109.69 218.848 1109.69 219.263V225H1107.39ZM1123.5 215.241L1120.03 225H1117.49L1114.01 215.241H1116.46L1118.71 222.49H1118.81L1121.06 215.241H1123.5ZM1129.08 225.191C1128.1 225.191 1127.26 224.987 1126.55 224.581C1125.84 224.17 1125.3 223.59 1124.91 222.84C1124.53 222.086 1124.34 221.198 1124.34 220.178C1124.34 219.174 1124.53 218.293 1124.91 217.535C1125.3 216.772 1125.84 216.179 1126.53 215.756C1127.22 215.328 1128.03 215.114 1128.96 215.114C1129.56 215.114 1130.13 215.211 1130.66 215.406C1131.2 215.597 1131.68 215.893 1132.09 216.296C1132.5 216.698 1132.83 217.211 1133.07 217.833C1133.3 218.452 1133.42 219.189 1133.42 220.044V220.75H1125.42V219.199H1131.22C1131.21 218.759 1131.12 218.367 1130.93 218.024C1130.74 217.677 1130.48 217.403 1130.15 217.204C1129.82 217.005 1129.43 216.906 1128.99 216.906C1128.52 216.906 1128.11 217.02 1127.75 217.249C1127.4 217.473 1127.12 217.77 1126.92 218.138C1126.73 218.503 1126.63 218.903 1126.62 219.339V220.692C1126.62 221.26 1126.73 221.747 1126.93 222.154C1127.14 222.556 1127.43 222.865 1127.81 223.081C1128.18 223.293 1128.61 223.399 1129.11 223.399C1129.45 223.399 1129.75 223.352 1130.02 223.259C1130.29 223.162 1130.53 223.02 1130.73 222.833C1130.93 222.647 1131.08 222.416 1131.18 222.141L1133.33 222.382C1133.19 222.95 1132.93 223.446 1132.55 223.869C1132.17 224.288 1131.69 224.615 1131.1 224.848C1130.51 225.076 1129.84 225.191 1129.08 225.191ZM1138.99 225.172C1138.22 225.172 1137.54 224.975 1136.93 224.581C1136.32 224.187 1135.85 223.615 1135.49 222.865C1135.14 222.116 1134.97 221.205 1134.97 220.133C1134.97 219.049 1135.14 218.134 1135.5 217.389C1135.86 216.639 1136.35 216.073 1136.96 215.692C1137.57 215.307 1138.25 215.114 1139 215.114C1139.57 215.114 1140.04 215.211 1140.41 215.406C1140.77 215.597 1141.07 215.828 1141.28 216.099C1141.5 216.366 1141.67 216.618 1141.78 216.855H1141.88V211.988H1144.19V225H1141.92V223.462H1141.78C1141.67 223.7 1141.49 223.952 1141.27 224.219C1141.05 224.481 1140.75 224.706 1140.38 224.892C1140.01 225.078 1139.55 225.172 1138.99 225.172ZM1139.63 223.285C1140.12 223.285 1140.53 223.153 1140.88 222.891C1141.22 222.624 1141.48 222.253 1141.66 221.779C1141.84 221.304 1141.92 220.752 1141.92 220.121C1141.92 219.489 1141.84 218.941 1141.66 218.475C1141.48 218.009 1141.23 217.647 1140.88 217.389C1140.54 217.13 1140.13 217.001 1139.63 217.001C1139.12 217.001 1138.69 217.134 1138.35 217.401C1138 217.668 1137.75 218.037 1137.57 218.507C1137.4 218.977 1137.31 219.515 1137.31 220.121C1137.31 220.73 1137.4 221.275 1137.57 221.753C1137.75 222.228 1138.01 222.603 1138.35 222.878C1138.7 223.149 1139.13 223.285 1139.63 223.285Z" fill="white"/>
<defs>
<clipPath id="clip0_740_4283">
<rect width="24" height="24" fill="white" transform="translate(1655 203)"/>
</clipPath>
<clipPath id="clip1_740_4283">
<rect width="24" height="24" fill="white" transform="translate(1707 203)"/>
</clipPath>
</defs>
</svg>
