<svg width="213" height="46" viewBox="0 0 213 46" fill="none" xmlns="http://www.w3.org/2000/svg">
<path d="M67.9097 11.8533C67.9097 11.212 68.1441 10.6816 68.6128 10.2622C69.0815 9.8182 69.6735 9.59618 70.3889 9.59618H80.6756C82.4518 9.59618 84.0182 9.95387 85.375 10.6693C86.7564 11.36 87.8172 12.359 88.5572 13.6665C89.3219 14.9492 89.7043 16.4417 89.7043 18.1438C89.7043 19.8706 89.3343 21.3877 88.5942 22.6951C87.8542 23.9779 86.8057 24.977 85.449 25.6923C84.0922 26.3831 82.5011 26.7284 80.6756 26.7284H72.8681V32.1678C72.8681 33.3519 72.4364 34.2646 71.573 34.906C70.7343 35.5227 69.5132 35.8311 67.9097 35.8311V11.8533ZM80.6756 22.4361C81.9831 22.4361 82.9945 22.0537 83.7099 21.289C84.4252 20.5243 84.7829 19.4636 84.7829 18.1068C84.7829 16.7747 84.4129 15.7386 83.6729 14.9986C82.9575 14.2585 81.9584 13.8885 80.6756 13.8885H72.8681V22.4361H80.6756ZM102.55 35.8311C100.527 35.8311 98.677 35.4364 96.9996 34.647C95.3221 33.8329 93.99 32.7352 93.0033 31.3537C92.0412 29.9723 91.5602 28.4675 91.5602 26.8394V18.2178C91.5602 16.5897 92.0412 15.0972 93.0033 13.7405C93.99 12.359 95.3221 11.2736 96.9996 10.4842C98.677 9.67019 100.527 9.26316 102.55 9.26316C104.573 9.26316 106.423 9.67019 108.1 10.4842C109.803 11.2736 111.135 12.359 112.097 13.7405C113.083 15.0972 113.577 16.5897 113.577 18.2178V26.8394C113.577 28.4675 113.083 29.9723 112.097 31.3537C111.135 32.7352 109.803 33.8329 108.1 34.647C106.423 35.4364 104.573 35.8311 102.55 35.8311ZM102.55 31.5018C104.4 31.5018 105.88 31.0701 106.99 30.2067C108.1 29.3186 108.655 28.1715 108.655 26.7654V18.3288C108.655 16.898 108.1 15.751 106.99 14.8876C105.88 13.9995 104.4 13.5555 102.55 13.5555C100.725 13.5555 99.2568 13.9995 98.1467 14.8876C97.0366 15.751 96.4816 16.898 96.4816 18.3288V26.7654C96.4816 28.1715 97.0366 29.3186 98.1467 30.2067C99.2568 31.0701 100.725 31.5018 102.55 31.5018ZM117.162 11.8533C117.162 11.212 117.397 10.6816 117.865 10.2622C118.334 9.8182 118.926 9.59618 119.641 9.59618H129.928C131.704 9.59618 133.271 9.95387 134.628 10.6693C136.009 11.36 137.07 12.359 137.81 13.6665C138.574 14.9492 138.957 16.4417 138.957 18.1438C138.957 19.8706 138.587 21.3877 137.847 22.6951C137.107 23.9779 136.058 24.977 134.702 25.6923C133.345 26.3831 131.754 26.7284 129.928 26.7284H122.121V32.1678C122.121 33.3519 121.689 34.2646 120.826 34.906C119.987 35.5227 118.766 35.8311 117.162 35.8311V11.8533ZM129.928 22.4361C131.236 22.4361 132.247 22.0537 132.962 21.289C133.678 20.5243 134.036 19.4636 134.036 18.1068C134.036 16.7747 133.665 15.7386 132.925 14.9986C132.21 14.2585 131.211 13.8885 129.928 13.8885H122.121V22.4361H129.928ZM153.26 35.8311C151.188 35.8311 149.313 35.4117 147.636 34.573C145.983 33.7343 144.688 32.5748 143.75 31.0947C142.813 29.6146 142.344 27.9372 142.344 26.0624V12.9264C142.344 11.7423 142.764 10.8419 143.602 10.2252C144.441 9.58385 145.675 9.26316 147.303 9.26316V26.0624C147.303 27.7152 147.845 29.0349 148.931 30.0217C150.016 31.0084 151.459 31.5018 153.26 31.5018C155.061 31.5018 156.504 31.0084 157.589 30.0217C158.675 29.0349 159.218 27.7152 159.218 26.0624V12.9264C159.218 11.7177 159.637 10.8049 160.476 10.1882C161.314 9.57151 162.548 9.26316 164.176 9.26316V26.0624C164.176 27.9372 163.707 29.6146 162.77 31.0947C161.832 32.5748 160.525 33.7343 158.848 34.573C157.195 35.4117 155.332 35.8311 153.26 35.8311ZM170.92 35.498C170.205 35.498 169.588 35.239 169.07 34.721C168.577 34.203 168.33 33.5862 168.33 32.8709V12.9264C168.33 11.693 168.737 10.7803 169.551 10.1882C170.365 9.57151 171.611 9.26316 173.288 9.26316V31.2057H183.279C184.439 31.2057 185.314 31.5758 185.906 32.3158C186.498 33.0312 186.794 34.0919 186.794 35.498H170.92ZM191.699 35.8311C190.638 35.7077 189.799 35.3377 189.183 34.721C188.591 34.1043 188.295 33.3272 188.295 32.3898C188.295 31.6744 188.467 30.9344 188.813 30.1697L197.286 10.8913C197.755 9.80586 198.569 9.26316 199.729 9.26316C200.863 9.26316 201.665 9.80586 202.134 10.8913L210.607 30.1697C210.953 30.9837 211.125 31.7238 211.125 32.3898C211.125 33.3272 210.817 34.1043 210.2 34.721C209.608 35.3377 208.77 35.7077 207.684 35.8311L204.576 28.8006H194.844L191.699 35.8311ZM203.059 24.5823L198.988 14.4435L198.544 14.6285L199.433 16.9227L196.324 24.5823H203.059Z" fill="#35024D"/>
<path fill-rule="evenodd" clip-rule="evenodd" d="M44.5876 45.9039C44.5876 45.9039 44.5877 28.8276 44.5877 21.7452C43.5426 7.17995 31.3279 6.31001 29.168 9.8468C25.0704 16.5564 14.7686 8.50298 13.5312 23.0092C13.5312 30.5194 21.0197 36.9112 21.0197 32.5221C21.0197 28.133 21.0197 14.49 21.0197 14.49C21.0197 12.3733 20.0262 5.89296 24.943 6.2524C29.4679 6.58319 36.4972 12.1336 36.9283 14.49C37.3594 16.8463 36.9283 28.5481 36.9283 28.5481C36.9283 29.906 34.902 34.9781 27.5297 34.0196V36.2161V37.8935C27.1848 39.7706 24.962 40.7291 22.7011 40.7291C19.0365 40.7291 0.975586 36.2161 0.975586 20.1268C0.975586 9.21603 11.5521 2.34088 28.3489 0.711415H28.8662C35.29 0.405225 47.593 -3.35362 49.9283 12.2314C51.4864 22.6302 50.6359 45.9039 44.5876 45.9039ZM27.1416 15.1555C28.3901 12.919 31.7978 15.129 31.7978 16.8463C31.7978 18.5636 31.7978 27.4298 31.7978 27.4298C31.4817 28.0023 30.5131 29.0832 29.168 28.8276C27.8228 28.572 27.2566 27.6295 27.1416 27.1902V15.1555Z" fill="#35024D"/>
</svg>
