<svg width="1920" height="627" viewBox="0 0 1920 627" fill="none" xmlns="http://www.w3.org/2000/svg">
<rect width="1923" height="627" fill="#2B0C39"/>
<mask id="path-1-inside-1_439_2456" fill="white">
<path d="M275.5 75H597.5V552H275.5V75Z"/>
</mask>
<path d="M275.5 84H597.5V66H275.5V84ZM597.5 549H275.5V555H597.5V549Z" fill="white" mask="url(#path-1-inside-1_439_2456)"/>
<path d="M455.098 204.273C455.098 205.991 455.439 207.693 456.102 209.28C456.766 210.868 457.738 212.31 458.964 213.525C460.189 214.74 461.645 215.704 463.246 216.361C464.847 217.019 466.564 217.357 468.297 217.357C470.031 217.357 471.747 217.019 473.348 216.361C474.95 215.704 476.405 214.74 477.631 213.525C478.856 212.31 479.829 210.868 480.492 209.28C481.155 207.693 481.497 205.991 481.497 204.273C481.497 200.803 480.106 197.475 477.631 195.022C475.155 192.568 471.798 191.189 468.297 191.189C464.796 191.189 461.439 192.568 458.964 195.022C456.488 197.475 455.098 200.803 455.098 204.273Z" stroke="white" stroke-width="7" stroke-linecap="round" stroke-linejoin="round"/>
<path d="M448.495 243.532V236.994C448.495 231.787 450.581 226.793 454.296 223.111C458.011 219.429 463.049 217.36 468.302 217.36C473.555 217.36 478.593 219.429 482.308 223.111C486.023 226.793 488.11 231.787 488.11 236.994V243.532M433.243 243.548H488.11M408.847 221.295C412.545 221.295 416.092 219.839 418.707 217.247C421.322 214.654 422.792 211.139 422.792 207.473C422.792 203.807 421.322 200.291 418.707 197.699C416.092 195.107 412.545 193.65 408.847 193.65C405.149 193.65 401.602 195.107 398.987 197.699C396.372 200.291 394.902 203.807 394.902 207.473C394.902 211.139 396.372 214.654 398.987 217.247C401.602 219.839 405.149 221.295 408.847 221.295Z" stroke="white" stroke-width="7" stroke-linecap="round" stroke-linejoin="round"/>
<path d="M433.242 245.487C433.242 239.072 430.671 232.92 426.095 228.385C421.519 223.849 415.313 221.301 408.841 221.301C402.37 221.301 396.164 223.849 391.588 228.385C387.012 232.92 384.441 239.072 384.441 245.487V255.851H394.905L398.39 283.487H419.301L422.786 255.851H433.242V245.487Z" stroke="white" stroke-width="7" stroke-linecap="round" stroke-linejoin="round"/>
<path d="M327.108 384V374.751L350.89 352.29C352.77 350.587 354.15 349.06 355.03 347.709C355.911 346.359 356.498 345.125 356.792 344.01C357.144 342.894 357.321 341.866 357.321 340.927C357.321 338.46 356.469 336.581 354.766 335.289C353.122 333.939 350.685 333.263 347.455 333.263C344.871 333.263 342.464 333.762 340.232 334.761C338.059 335.759 336.21 337.315 334.683 339.429L324.289 332.735C326.638 329.211 329.926 326.422 334.154 324.367C338.382 322.311 343.256 321.284 348.776 321.284C353.357 321.284 357.35 322.047 360.756 323.574C364.221 325.042 366.892 327.127 368.772 329.828C370.709 332.529 371.678 335.759 371.678 339.517C371.678 341.514 371.414 343.51 370.886 345.507C370.416 347.445 369.418 349.5 367.891 351.673C366.423 353.846 364.25 356.283 361.372 358.984L341.641 377.57L338.911 372.373H373.704V384H327.108ZM406.018 385.057C400.967 385.057 396.446 383.824 392.453 381.357C388.459 378.832 385.318 375.192 383.027 370.435C380.737 365.678 379.592 359.924 379.592 353.17C379.592 346.417 380.737 340.662 383.027 335.906C385.318 331.149 388.459 327.538 392.453 325.071C396.446 322.546 400.967 321.284 406.018 321.284C411.126 321.284 415.648 322.546 419.583 325.071C423.576 327.538 426.717 331.149 429.008 335.906C431.298 340.662 432.443 346.417 432.443 353.17C432.443 359.924 431.298 365.678 429.008 370.435C426.717 375.192 423.576 378.832 419.583 381.357C415.648 383.824 411.126 385.057 406.018 385.057ZM406.018 372.989C408.425 372.989 410.51 372.314 412.272 370.963C414.092 369.613 415.501 367.469 416.5 364.533C417.557 361.597 418.085 357.81 418.085 353.17C418.085 348.531 417.557 344.744 416.5 341.807C415.501 338.871 414.092 336.728 412.272 335.377C410.51 334.027 408.425 333.351 406.018 333.351C403.669 333.351 401.584 334.027 399.764 335.377C398.002 336.728 396.593 338.871 395.536 341.807C394.537 344.744 394.038 348.531 394.038 353.17C394.038 357.81 394.537 361.597 395.536 364.533C396.593 367.469 398.002 369.613 399.764 370.963C401.584 372.314 403.669 372.989 406.018 372.989ZM465.802 385.057C460.751 385.057 456.23 383.824 452.237 381.357C448.243 378.832 445.102 375.192 442.811 370.435C440.521 365.678 439.376 359.924 439.376 353.17C439.376 346.417 440.521 340.662 442.811 335.906C445.102 331.149 448.243 327.538 452.237 325.071C456.23 322.546 460.751 321.284 465.802 321.284C470.91 321.284 475.432 322.546 479.367 325.071C483.36 327.538 486.501 331.149 488.792 335.906C491.082 340.662 492.227 346.417 492.227 353.17C492.227 359.924 491.082 365.678 488.792 370.435C486.501 375.192 483.36 378.832 479.367 381.357C475.432 383.824 470.91 385.057 465.802 385.057ZM465.802 372.989C468.209 372.989 470.294 372.314 472.056 370.963C473.876 369.613 475.285 367.469 476.284 364.533C477.341 361.597 477.869 357.81 477.869 353.17C477.869 348.531 477.341 344.744 476.284 341.807C475.285 338.871 473.876 336.728 472.056 335.377C470.294 334.027 468.209 333.351 465.802 333.351C463.453 333.351 461.368 334.027 459.548 335.377C457.786 336.728 456.376 338.871 455.319 341.807C454.321 344.744 453.822 348.531 453.822 353.17C453.822 357.81 454.321 361.597 455.319 364.533C456.376 367.469 457.786 369.613 459.548 370.963C461.368 372.314 463.453 372.989 465.802 372.989ZM516.769 373.518V332.823H528.132V373.518H516.769ZM501.53 358.544V347.797H543.458V358.544H501.53Z" fill="white"/>
<path d="M306.783 444L316.003 423.641H318.882L328.131 444H325.077L316.846 425.27H318.01L309.779 444H306.783ZM310.71 438.91L311.495 436.583H322.954L323.798 438.91H310.71ZM337.338 444.175C335.767 444.175 334.361 443.835 333.12 443.157C331.899 442.478 330.939 441.547 330.241 440.364C329.543 439.182 329.194 437.824 329.194 436.293C329.194 434.761 329.543 433.404 330.241 432.221C330.939 431.038 331.899 430.117 333.12 429.458C334.361 428.779 335.767 428.44 337.338 428.44C338.734 428.44 339.975 428.721 341.06 429.283C342.166 429.826 343.019 430.64 343.62 431.726L341.497 433.093C340.993 432.337 340.372 431.784 339.635 431.435C338.918 431.067 338.142 430.883 337.309 430.883C336.3 430.883 335.399 431.106 334.604 431.552C333.809 431.998 333.179 432.628 332.713 433.442C332.248 434.237 332.015 435.187 332.015 436.293C332.015 437.398 332.248 438.358 332.713 439.172C333.179 439.986 333.809 440.616 334.604 441.062C335.399 441.508 336.3 441.731 337.309 441.731C338.142 441.731 338.918 441.557 339.635 441.208C340.372 440.839 340.993 440.277 341.497 439.521L343.62 440.859C343.019 441.925 342.166 442.749 341.06 443.331C339.975 443.893 338.734 444.175 337.338 444.175ZM352.727 444.175C351.176 444.175 349.974 443.758 349.121 442.924C348.267 442.09 347.841 440.898 347.841 439.346V425.211H350.633V439.23C350.633 440.064 350.837 440.704 351.244 441.15C351.67 441.596 352.271 441.819 353.047 441.819C353.92 441.819 354.647 441.576 355.228 441.092L356.101 443.098C355.674 443.467 355.16 443.738 354.559 443.913C353.978 444.087 353.367 444.175 352.727 444.175ZM345.223 430.883V428.585H355.054V430.883H345.223ZM359.476 444V428.585H362.269V444H359.476ZM360.873 425.619C360.33 425.619 359.874 425.444 359.506 425.095C359.157 424.746 358.982 424.319 358.982 423.815C358.982 423.292 359.157 422.855 359.506 422.506C359.874 422.157 360.33 421.983 360.873 421.983C361.415 421.983 361.861 422.157 362.21 422.506C362.579 422.836 362.763 423.253 362.763 423.757C362.763 424.281 362.589 424.727 362.24 425.095C361.891 425.444 361.435 425.619 360.873 425.619ZM371.642 444L364.895 428.585H367.803L373.795 442.546H372.399L378.506 428.585H381.24L374.493 444H371.642ZM390.284 444.175C388.636 444.175 387.182 443.835 385.921 443.157C384.68 442.478 383.711 441.547 383.013 440.364C382.334 439.182 381.995 437.824 381.995 436.293C381.995 434.761 382.325 433.404 382.984 432.221C383.663 431.038 384.584 430.117 385.747 429.458C386.93 428.779 388.258 428.44 389.732 428.44C391.225 428.44 392.543 428.769 393.687 429.429C394.831 430.088 395.723 431.019 396.363 432.221C397.022 433.404 397.352 434.79 397.352 436.38C397.352 436.496 397.342 436.632 397.323 436.787C397.323 436.942 397.313 437.088 397.294 437.223H384.176V435.216H395.839L394.705 435.914C394.724 434.926 394.521 434.043 394.094 433.268C393.668 432.492 393.076 431.891 392.32 431.465C391.583 431.019 390.72 430.796 389.732 430.796C388.762 430.796 387.899 431.019 387.143 431.465C386.387 431.891 385.795 432.502 385.369 433.297C384.942 434.072 384.729 434.964 384.729 435.973V436.438C384.729 437.466 384.962 438.387 385.427 439.201C385.912 439.996 386.581 440.616 387.434 441.062C388.287 441.508 389.266 441.731 390.371 441.731C391.283 441.731 392.107 441.576 392.844 441.266C393.6 440.956 394.259 440.49 394.821 439.87L396.363 441.673C395.665 442.488 394.792 443.108 393.745 443.535C392.718 443.961 391.564 444.175 390.284 444.175ZM418.55 444.233C416.999 444.233 415.564 443.981 414.246 443.476C412.947 442.953 411.812 442.226 410.843 441.295C409.893 440.345 409.146 439.24 408.603 437.979C408.06 436.719 407.789 435.333 407.789 433.82C407.789 432.308 408.06 430.922 408.603 429.661C409.146 428.401 409.902 427.305 410.872 426.375C411.841 425.425 412.976 424.698 414.275 424.193C415.593 423.67 417.028 423.408 418.579 423.408C420.15 423.408 421.594 423.68 422.913 424.222C424.251 424.746 425.385 425.531 426.316 426.578L424.425 428.411C423.65 427.596 422.777 426.995 421.808 426.607C420.838 426.2 419.801 425.997 418.696 425.997C417.552 425.997 416.485 426.191 415.496 426.578C414.527 426.966 413.683 427.509 412.966 428.207C412.249 428.905 411.686 429.739 411.279 430.708C410.891 431.658 410.697 432.696 410.697 433.82C410.697 434.945 410.891 435.992 411.279 436.962C411.686 437.912 412.249 438.736 412.966 439.434C413.683 440.132 414.527 440.675 415.496 441.062C416.485 441.45 417.552 441.644 418.696 441.644C419.801 441.644 420.838 441.45 421.808 441.062C422.777 440.655 423.65 440.035 424.425 439.201L426.316 441.033C425.385 442.08 424.251 442.875 422.913 443.418C421.594 443.961 420.14 444.233 418.55 444.233ZM436.061 444.175C434.742 444.175 433.579 443.932 432.571 443.447C431.582 442.963 430.806 442.226 430.244 441.237C429.701 440.229 429.429 438.968 429.429 437.456V428.585H432.222V437.136C432.222 438.648 432.58 439.783 433.298 440.539C434.035 441.295 435.062 441.673 436.381 441.673C437.35 441.673 438.194 441.479 438.911 441.092C439.628 440.684 440.181 440.103 440.569 439.346C440.957 438.571 441.151 437.64 441.151 436.554V428.585H443.943V444H441.296V439.841L441.732 440.946C441.228 441.974 440.472 442.769 439.464 443.331C438.455 443.893 437.321 444.175 436.061 444.175ZM453.679 444.175C452.399 444.175 451.178 444 450.014 443.651C448.87 443.302 447.969 442.875 447.309 442.371L448.473 440.161C449.132 440.607 449.946 440.985 450.916 441.295C451.885 441.605 452.874 441.76 453.883 441.76C455.182 441.76 456.112 441.576 456.675 441.208C457.256 440.839 457.547 440.326 457.547 439.666C457.547 439.182 457.373 438.804 457.024 438.532C456.675 438.261 456.209 438.057 455.628 437.921C455.065 437.786 454.435 437.669 453.737 437.572C453.039 437.456 452.341 437.32 451.643 437.165C450.945 436.991 450.305 436.758 449.723 436.467C449.142 436.157 448.676 435.74 448.327 435.216C447.978 434.674 447.804 433.956 447.804 433.064C447.804 432.133 448.066 431.319 448.589 430.621C449.113 429.923 449.85 429.39 450.8 429.021C451.769 428.634 452.913 428.44 454.232 428.44C455.24 428.44 456.258 428.566 457.285 428.818C458.333 429.051 459.186 429.39 459.845 429.836L458.652 432.046C457.954 431.581 457.227 431.261 456.471 431.086C455.715 430.912 454.959 430.825 454.203 430.825C452.981 430.825 452.07 431.028 451.469 431.435C450.867 431.823 450.567 432.327 450.567 432.948C450.567 433.471 450.741 433.879 451.09 434.169C451.459 434.441 451.924 434.654 452.487 434.809C453.068 434.964 453.708 435.1 454.406 435.216C455.104 435.313 455.802 435.449 456.5 435.624C457.198 435.779 457.828 436.002 458.391 436.293C458.972 436.583 459.438 436.991 459.787 437.514C460.155 438.038 460.339 438.736 460.339 439.608C460.339 440.539 460.068 441.344 459.525 442.022C458.982 442.701 458.216 443.234 457.227 443.622C456.238 443.99 455.056 444.175 453.679 444.175ZM469.122 444.175C467.571 444.175 466.369 443.758 465.516 442.924C464.663 442.09 464.236 440.898 464.236 439.346V425.211H467.028V439.23C467.028 440.064 467.232 440.704 467.639 441.15C468.065 441.596 468.667 441.819 469.442 441.819C470.315 441.819 471.042 441.576 471.624 441.092L472.496 443.098C472.069 443.467 471.556 443.738 470.955 443.913C470.373 444.087 469.762 444.175 469.122 444.175ZM461.618 430.883V428.585H471.449V430.883H461.618ZM481.963 444.175C480.411 444.175 479.035 443.835 477.833 443.157C476.63 442.478 475.68 441.547 474.982 440.364C474.284 439.162 473.935 437.805 473.935 436.293C473.935 434.761 474.284 433.404 474.982 432.221C475.68 431.038 476.63 430.117 477.833 429.458C479.035 428.779 480.411 428.44 481.963 428.44C483.494 428.44 484.861 428.779 486.064 429.458C487.285 430.117 488.235 431.038 488.914 432.221C489.612 433.384 489.961 434.741 489.961 436.293C489.961 437.824 489.612 439.182 488.914 440.364C488.235 441.547 487.285 442.478 486.064 443.157C484.861 443.835 483.494 444.175 481.963 444.175ZM481.963 441.731C482.952 441.731 483.834 441.508 484.609 441.062C485.404 440.616 486.025 439.986 486.471 439.172C486.917 438.338 487.14 437.378 487.14 436.293C487.14 435.187 486.917 434.237 486.471 433.442C486.025 432.628 485.404 431.998 484.609 431.552C483.834 431.106 482.952 430.883 481.963 430.883C480.974 430.883 480.092 431.106 479.316 431.552C478.54 431.998 477.92 432.628 477.455 433.442C476.989 434.237 476.756 435.187 476.756 436.293C476.756 437.378 476.989 438.338 477.455 439.172C477.92 439.986 478.54 440.616 479.316 441.062C480.092 441.508 480.974 441.731 481.963 441.731ZM513.105 428.44C514.346 428.44 515.442 428.682 516.392 429.167C517.342 429.652 518.079 430.388 518.602 431.377C519.145 432.366 519.417 433.617 519.417 435.129V444H516.625V435.449C516.625 433.956 516.276 432.832 515.578 432.075C514.88 431.319 513.9 430.941 512.64 430.941C511.709 430.941 510.895 431.135 510.197 431.523C509.499 431.911 508.956 432.483 508.568 433.239C508.2 433.995 508.016 434.935 508.016 436.06V444H505.223V435.449C505.223 433.956 504.874 432.832 504.176 432.075C503.498 431.319 502.519 430.941 501.239 430.941C500.328 430.941 499.523 431.135 498.825 431.523C498.127 431.911 497.584 432.483 497.196 433.239C496.808 433.995 496.614 434.935 496.614 436.06V444H493.822V428.585H496.498V432.686L496.062 431.639C496.547 430.631 497.293 429.845 498.301 429.283C499.31 428.721 500.483 428.44 501.821 428.44C503.294 428.44 504.564 428.808 505.631 429.545C506.697 430.262 507.395 431.358 507.725 432.832L506.59 432.366C507.056 431.183 507.87 430.233 509.034 429.516C510.197 428.798 511.554 428.44 513.105 428.44ZM531.418 444.175C529.77 444.175 528.316 443.835 527.056 443.157C525.815 442.478 524.845 441.547 524.147 440.364C523.468 439.182 523.129 437.824 523.129 436.293C523.129 434.761 523.459 433.404 524.118 432.221C524.797 431.038 525.718 430.117 526.881 429.458C528.064 428.779 529.392 428.44 530.866 428.44C532.359 428.44 533.677 428.769 534.821 429.429C535.965 430.088 536.857 431.019 537.497 432.221C538.156 433.404 538.486 434.79 538.486 436.38C538.486 436.496 538.476 436.632 538.457 436.787C538.457 436.942 538.447 437.088 538.428 437.223H525.31V435.216H536.973L535.839 435.914C535.859 434.926 535.655 434.043 535.228 433.268C534.802 432.492 534.21 431.891 533.454 431.465C532.717 431.019 531.855 430.796 530.866 430.796C529.896 430.796 529.033 431.019 528.277 431.465C527.521 431.891 526.93 432.502 526.503 433.297C526.076 434.072 525.863 434.964 525.863 435.973V436.438C525.863 437.466 526.096 438.387 526.561 439.201C527.046 439.996 527.715 440.616 528.568 441.062C529.421 441.508 530.4 441.731 531.506 441.731C532.417 441.731 533.241 441.576 533.978 441.266C534.734 440.956 535.393 440.49 535.955 439.87L537.497 441.673C536.799 442.488 535.926 443.108 534.879 443.535C533.852 443.961 532.698 444.175 531.418 444.175ZM542.363 444V428.585H545.039V432.773L544.777 431.726C545.204 430.66 545.921 429.845 546.929 429.283C547.937 428.721 549.178 428.44 550.652 428.44V431.145C550.536 431.125 550.419 431.116 550.303 431.116C550.206 431.116 550.109 431.116 550.012 431.116C548.519 431.116 547.336 431.561 546.464 432.453C545.591 433.345 545.155 434.635 545.155 436.322V444H542.363ZM558.685 444.175C557.405 444.175 556.183 444 555.02 443.651C553.876 443.302 552.974 442.875 552.315 442.371L553.478 440.161C554.138 440.607 554.952 440.985 555.922 441.295C556.891 441.605 557.88 441.76 558.888 441.76C560.187 441.76 561.118 441.576 561.68 441.208C562.262 440.839 562.553 440.326 562.553 439.666C562.553 439.182 562.378 438.804 562.029 438.532C561.68 438.261 561.215 438.057 560.633 437.921C560.071 437.786 559.441 437.669 558.743 437.572C558.045 437.456 557.347 437.32 556.649 437.165C555.951 436.991 555.311 436.758 554.729 436.467C554.147 436.157 553.682 435.74 553.333 435.216C552.984 434.674 552.81 433.956 552.81 433.064C552.81 432.133 553.071 431.319 553.595 430.621C554.118 429.923 554.855 429.39 555.805 429.021C556.775 428.634 557.919 428.44 559.237 428.44C560.245 428.44 561.263 428.566 562.291 428.818C563.338 429.051 564.191 429.39 564.851 429.836L563.658 432.046C562.96 431.581 562.233 431.261 561.477 431.086C560.721 430.912 559.964 430.825 559.208 430.825C557.987 430.825 557.075 431.028 556.474 431.435C555.873 431.823 555.573 432.327 555.573 432.948C555.573 433.471 555.747 433.879 556.096 434.169C556.464 434.441 556.93 434.654 557.492 434.809C558.074 434.964 558.714 435.1 559.412 435.216C560.11 435.313 560.808 435.449 561.506 435.624C562.204 435.779 562.834 436.002 563.396 436.293C563.978 436.583 564.443 436.991 564.792 437.514C565.161 438.038 565.345 438.736 565.345 439.608C565.345 440.539 565.074 441.344 564.531 442.022C563.988 442.701 563.222 443.234 562.233 443.622C561.244 443.99 560.061 444.175 558.685 444.175Z" fill="white"/>
<mask id="path-8-inside-2_439_2456" fill="white">
<path d="M625.5 75H947.5V552H625.5V75Z"/>
</mask>
<path d="M625.5 84H947.5V66H625.5V84ZM947.5 549H625.5V555H947.5V549Z" fill="white" mask="url(#path-8-inside-2_439_2456)"/>
<path d="M809.333 264L763.667 237.75M809.333 201L763.667 227.25M820.75 211.5C825.292 211.5 829.648 209.841 832.859 206.887C836.071 203.933 837.875 199.927 837.875 195.75C837.875 191.573 836.071 187.567 832.859 184.613C829.648 181.659 825.292 180 820.75 180C816.208 180 811.852 181.659 808.641 184.613C805.429 187.567 803.625 191.573 803.625 195.75C803.625 199.927 805.429 203.933 808.641 206.887C811.852 209.841 816.208 211.5 820.75 211.5ZM752.25 248.25C756.792 248.25 761.148 246.591 764.359 243.637C767.571 240.683 769.375 236.677 769.375 232.5C769.375 228.323 767.571 224.317 764.359 221.363C761.148 218.409 756.792 216.75 752.25 216.75C747.708 216.75 743.352 218.409 740.141 221.363C736.929 224.317 735.125 228.323 735.125 232.5C735.125 236.677 736.929 240.683 740.141 243.637C743.352 246.591 747.708 248.25 752.25 248.25ZM820.75 285C825.292 285 829.648 283.341 832.859 280.387C836.071 277.433 837.875 273.427 837.875 269.25C837.875 265.073 836.071 261.067 832.859 258.113C829.648 255.159 825.292 253.5 820.75 253.5C816.208 253.5 811.852 255.159 808.641 258.113C805.429 261.067 803.625 265.073 803.625 269.25C803.625 273.427 805.429 277.433 808.641 280.387C811.852 283.341 816.208 285 820.75 285Z" stroke="white" stroke-width="10"/>
<path d="M751.836 390.5V334.126L758.002 340.292H739.504V328.841H766.106V390.5H751.836ZM776.113 377.552V367.95L805.18 328.841H820.155L791.704 367.95L784.745 365.924H833.279V377.552H776.113ZM809.32 390.5V377.552L809.761 365.924V354.385H823.238V390.5H809.32Z" fill="white"/>
<path d="M663.632 450.5L672.825 430.2H675.696L684.918 450.5H681.873L673.666 431.824H674.826L666.619 450.5H663.632ZM667.547 445.425L668.33 443.105H679.756L680.597 445.425H667.547ZM694.097 450.674C692.531 450.674 691.13 450.336 689.892 449.659C688.674 448.982 687.717 448.054 687.021 446.875C686.325 445.696 685.977 444.342 685.977 442.815C685.977 441.288 686.325 439.934 687.021 438.755C687.717 437.576 688.674 436.657 689.892 436C691.13 435.323 692.531 434.985 694.097 434.985C695.489 434.985 696.727 435.265 697.809 435.826C698.911 436.367 699.762 437.179 700.361 438.262L698.244 439.625C697.742 438.871 697.123 438.32 696.388 437.972C695.673 437.605 694.9 437.421 694.068 437.421C693.063 437.421 692.164 437.643 691.371 438.088C690.579 438.533 689.95 439.161 689.486 439.973C689.022 440.766 688.79 441.713 688.79 442.815C688.79 443.917 689.022 444.874 689.486 445.686C689.95 446.498 690.579 447.126 691.371 447.571C692.164 448.016 693.063 448.238 694.068 448.238C694.9 448.238 695.673 448.064 696.388 447.716C697.123 447.349 697.742 446.788 698.244 446.034L700.361 447.368C699.762 448.431 698.911 449.253 697.809 449.833C696.727 450.394 695.489 450.674 694.097 450.674ZM710.438 450.674C708.872 450.674 707.47 450.336 706.233 449.659C705.015 448.982 704.058 448.054 703.362 446.875C702.666 445.696 702.318 444.342 702.318 442.815C702.318 441.288 702.666 439.934 703.362 438.755C704.058 437.576 705.015 436.657 706.233 436C707.47 435.323 708.872 434.985 710.438 434.985C711.83 434.985 713.067 435.265 714.15 435.826C715.252 436.367 716.103 437.179 716.702 438.262L714.585 439.625C714.082 438.871 713.464 438.32 712.729 437.972C712.014 437.605 711.24 437.421 710.409 437.421C709.404 437.421 708.505 437.643 707.712 438.088C706.919 438.533 706.291 439.161 705.827 439.973C705.363 440.766 705.131 441.713 705.131 442.815C705.131 443.917 705.363 444.874 705.827 445.686C706.291 446.498 706.919 447.126 707.712 447.571C708.505 448.016 709.404 448.238 710.409 448.238C711.24 448.238 712.014 448.064 712.729 447.716C713.464 447.349 714.082 446.788 714.585 446.034L716.702 447.368C716.103 448.431 715.252 449.253 714.15 449.833C713.067 450.394 711.83 450.674 710.438 450.674ZM726.663 450.674C725.116 450.674 723.744 450.336 722.545 449.659C721.346 448.982 720.399 448.054 719.703 446.875C719.007 445.676 718.659 444.323 718.659 442.815C718.659 441.288 719.007 439.934 719.703 438.755C720.399 437.576 721.346 436.657 722.545 436C723.744 435.323 725.116 434.985 726.663 434.985C728.19 434.985 729.553 435.323 730.752 436C731.97 436.657 732.917 437.576 733.594 438.755C734.29 439.915 734.638 441.268 734.638 442.815C734.638 444.342 734.29 445.696 733.594 446.875C732.917 448.054 731.97 448.982 730.752 449.659C729.553 450.336 728.19 450.674 726.663 450.674ZM726.663 448.238C727.649 448.238 728.529 448.016 729.302 447.571C730.095 447.126 730.713 446.498 731.158 445.686C731.603 444.855 731.825 443.898 731.825 442.815C731.825 441.713 731.603 440.766 731.158 439.973C730.713 439.161 730.095 438.533 729.302 438.088C728.529 437.643 727.649 437.421 726.663 437.421C725.677 437.421 724.797 437.643 724.024 438.088C723.251 438.533 722.632 439.161 722.168 439.973C721.704 440.766 721.472 441.713 721.472 442.815C721.472 443.898 721.704 444.855 722.168 445.686C722.632 446.498 723.251 447.126 724.024 447.571C724.797 448.016 725.677 448.238 726.663 448.238ZM744.955 450.674C743.64 450.674 742.48 450.432 741.475 449.949C740.489 449.466 739.716 448.731 739.155 447.745C738.614 446.74 738.343 445.483 738.343 443.975V435.13H741.127V443.656C741.127 445.164 741.485 446.295 742.2 447.049C742.935 447.803 743.959 448.18 745.274 448.18C746.241 448.18 747.082 447.987 747.797 447.6C748.512 447.194 749.063 446.614 749.45 445.86C749.837 445.087 750.03 444.159 750.03 443.076V435.13H752.814V450.5H750.175V446.353L750.61 447.455C750.107 448.48 749.353 449.272 748.348 449.833C747.343 450.394 746.212 450.674 744.955 450.674ZM766.321 434.985C767.578 434.985 768.68 435.227 769.627 435.71C770.594 436.193 771.348 436.928 771.889 437.914C772.43 438.9 772.701 440.147 772.701 441.655V450.5H769.917V441.974C769.917 440.485 769.55 439.364 768.815 438.61C768.1 437.856 767.085 437.479 765.77 437.479C764.784 437.479 763.924 437.672 763.189 438.059C762.454 438.446 761.884 439.016 761.478 439.77C761.091 440.524 760.898 441.462 760.898 442.583V450.5H758.114V435.13H760.782V439.277L760.347 438.175C760.85 437.17 761.623 436.387 762.667 435.826C763.711 435.265 764.929 434.985 766.321 434.985ZM783.131 450.674C781.585 450.674 780.386 450.258 779.535 449.427C778.685 448.596 778.259 447.407 778.259 445.86V431.766H781.043V445.744C781.043 446.575 781.246 447.213 781.652 447.658C782.078 448.103 782.677 448.325 783.45 448.325C784.32 448.325 785.045 448.083 785.625 447.6L786.495 449.601C786.07 449.968 785.558 450.239 784.958 450.413C784.378 450.587 783.769 450.674 783.131 450.674ZM775.649 437.421V435.13H785.451V437.421H775.649ZM794.269 450.674C792.993 450.674 791.775 450.5 790.615 450.152C789.475 449.804 788.576 449.379 787.918 448.876L789.078 446.672C789.736 447.117 790.548 447.494 791.514 447.803C792.481 448.112 793.467 448.267 794.472 448.267C795.768 448.267 796.696 448.083 797.256 447.716C797.836 447.349 798.126 446.836 798.126 446.179C798.126 445.696 797.952 445.319 797.604 445.048C797.256 444.777 796.792 444.574 796.212 444.439C795.652 444.304 795.023 444.188 794.327 444.091C793.631 443.975 792.935 443.84 792.239 443.685C791.543 443.511 790.905 443.279 790.325 442.989C789.745 442.68 789.281 442.264 788.933 441.742C788.585 441.201 788.411 440.485 788.411 439.596C788.411 438.668 788.672 437.856 789.194 437.16C789.716 436.464 790.451 435.932 791.398 435.565C792.365 435.178 793.506 434.985 794.82 434.985C795.826 434.985 796.841 435.111 797.865 435.362C798.909 435.594 799.76 435.932 800.417 436.377L799.228 438.581C798.532 438.117 797.807 437.798 797.053 437.624C796.299 437.45 795.545 437.363 794.791 437.363C793.573 437.363 792.665 437.566 792.065 437.972C791.466 438.359 791.166 438.861 791.166 439.48C791.166 440.002 791.34 440.408 791.688 440.698C792.056 440.969 792.52 441.181 793.08 441.336C793.66 441.491 794.298 441.626 794.994 441.742C795.69 441.839 796.386 441.974 797.082 442.148C797.778 442.303 798.407 442.525 798.967 442.815C799.547 443.105 800.011 443.511 800.359 444.033C800.727 444.555 800.91 445.251 800.91 446.121C800.91 447.049 800.64 447.851 800.098 448.528C799.557 449.205 798.793 449.736 797.807 450.123C796.821 450.49 795.642 450.674 794.269 450.674ZM812.584 450.5V430.2H815.484V447.977H826.475V450.5H812.584ZM829.396 450.5V435.13H832.18V450.5H829.396ZM830.788 432.172C830.247 432.172 829.793 431.998 829.425 431.65C829.077 431.302 828.903 430.877 828.903 430.374C828.903 429.852 829.077 429.417 829.425 429.069C829.793 428.721 830.247 428.547 830.788 428.547C831.33 428.547 831.774 428.721 832.122 429.069C832.49 429.398 832.673 429.813 832.673 430.316C832.673 430.838 832.499 431.283 832.151 431.65C831.803 431.998 831.349 432.172 830.788 432.172ZM845.703 434.985C846.96 434.985 848.062 435.227 849.009 435.71C849.976 436.193 850.73 436.928 851.271 437.914C851.812 438.9 852.083 440.147 852.083 441.655V450.5H849.299V441.974C849.299 440.485 848.932 439.364 848.197 438.61C847.482 437.856 846.467 437.479 845.152 437.479C844.166 437.479 843.306 437.672 842.571 438.059C841.836 438.446 841.266 439.016 840.86 439.77C840.473 440.524 840.28 441.462 840.28 442.583V450.5H837.496V435.13H840.164V439.277L839.729 438.175C840.232 437.17 841.005 436.387 842.049 435.826C843.093 435.265 844.311 434.985 845.703 434.985ZM859.497 446.788L859.555 443.221L868.4 435.13H871.764L864.978 441.8L863.47 443.076L859.497 446.788ZM857.235 450.5V428.982H860.019V450.5H857.235ZM868.98 450.5L862.948 443.018L864.746 440.785L872.402 450.5H868.98ZM881.298 450.674C879.655 450.674 878.205 450.336 876.948 449.659C875.711 448.982 874.744 448.054 874.048 446.875C873.371 445.696 873.033 444.342 873.033 442.815C873.033 441.288 873.362 439.934 874.019 438.755C874.696 437.576 875.614 436.657 876.774 436C877.953 435.323 879.278 434.985 880.747 434.985C882.236 434.985 883.55 435.314 884.691 435.971C885.832 436.628 886.721 437.556 887.359 438.755C888.016 439.934 888.345 441.317 888.345 442.902C888.345 443.018 888.335 443.153 888.316 443.308C888.316 443.463 888.306 443.608 888.287 443.743H875.208V441.742H886.837L885.706 442.438C885.725 441.452 885.522 440.572 885.097 439.799C884.672 439.026 884.082 438.426 883.328 438.001C882.593 437.556 881.733 437.334 880.747 437.334C879.78 437.334 878.92 437.556 878.166 438.001C877.412 438.426 876.822 439.035 876.397 439.828C875.972 440.601 875.759 441.491 875.759 442.496V442.96C875.759 443.985 875.991 444.903 876.455 445.715C876.938 446.508 877.605 447.126 878.456 447.571C879.307 448.016 880.283 448.238 881.385 448.238C882.294 448.238 883.115 448.083 883.85 447.774C884.604 447.465 885.261 447.001 885.822 446.382L887.359 448.18C886.663 448.992 885.793 449.611 884.749 450.036C883.724 450.461 882.574 450.674 881.298 450.674ZM898.562 450.674C897.073 450.674 895.739 450.345 894.56 449.688C893.4 449.031 892.481 448.112 891.805 446.933C891.128 445.754 890.79 444.381 890.79 442.815C890.79 441.249 891.128 439.886 891.805 438.726C892.481 437.547 893.4 436.628 894.56 435.971C895.739 435.314 897.073 434.985 898.562 434.985C899.857 434.985 901.027 435.275 902.071 435.855C903.115 436.435 903.946 437.305 904.565 438.465C905.203 439.625 905.522 441.075 905.522 442.815C905.522 444.555 905.212 446.005 904.594 447.165C903.994 448.325 903.173 449.205 902.129 449.804C901.085 450.384 899.896 450.674 898.562 450.674ZM898.794 448.238C899.76 448.238 900.63 448.016 901.404 447.571C902.196 447.126 902.815 446.498 903.26 445.686C903.724 444.855 903.956 443.898 903.956 442.815C903.956 441.713 903.724 440.766 903.26 439.973C902.815 439.161 902.196 438.533 901.404 438.088C900.63 437.643 899.76 437.421 898.794 437.421C897.808 437.421 896.928 437.643 896.155 438.088C895.381 438.533 894.763 439.161 894.299 439.973C893.835 440.766 893.603 441.713 893.603 442.815C893.603 443.898 893.835 444.855 894.299 445.686C894.763 446.498 895.381 447.126 896.155 447.571C896.928 448.016 897.808 448.238 898.794 448.238ZM904.043 450.5V446.353L904.217 442.786L903.927 439.219V428.982H906.711V450.5H904.043Z" fill="white"/>
<mask id="path-13-inside-3_439_2456" fill="white">
<path d="M975.5 75H1297.5V552H975.5V75Z"/>
</mask>
<path d="M975.5 84H1297.5V66H975.5V84ZM1297.5 549H975.5V555H1297.5V549Z" fill="white" mask="url(#path-13-inside-3_439_2456)"/>
<path d="M1162.96 280.501L1172.48 289.941C1175.13 292.607 1178.83 290.474 1178.83 287.327V264.501L1193.65 246.367C1194.24 245.575 1194.6 244.633 1194.69 243.646C1194.77 242.66 1194.59 241.668 1194.15 240.782C1193.71 239.896 1193.03 239.151 1192.2 238.631C1191.36 238.11 1190.4 237.834 1189.42 237.834H1152.37C1148.14 237.834 1145.49 243.167 1148.14 246.367L1162.96 264.501V280.501ZM1152.37 275.167H1083.58V259.167C1083.58 244.767 1111.63 237.834 1125.92 237.834C1129.09 237.834 1132.79 238.367 1137.03 238.901C1135.97 242.101 1136.5 245.834 1137.56 249.034C1133.85 248.501 1129.62 247.967 1125.92 247.967C1110.04 247.967 1093.64 255.967 1093.64 259.167V265.034H1149.73L1152.37 268.234V275.167ZM1125.92 189.834C1114.27 189.834 1104.75 199.434 1104.75 211.167C1104.75 222.901 1114.27 232.501 1125.92 232.501C1137.56 232.501 1147.08 222.901 1147.08 211.167C1147.08 199.434 1137.56 189.834 1125.92 189.834ZM1125.92 221.834C1120.09 221.834 1115.33 217.034 1115.33 211.167C1115.33 205.301 1120.09 200.501 1125.92 200.501C1131.74 200.501 1136.5 205.301 1136.5 211.167C1136.5 217.034 1131.74 221.834 1125.92 221.834Z" fill="white"/>
<path d="M1001.82 391.5V382.251L1025.6 359.79C1027.48 358.087 1028.86 356.56 1029.74 355.209C1030.62 353.859 1031.21 352.625 1031.5 351.51C1031.85 350.394 1032.03 349.366 1032.03 348.427C1032.03 345.96 1031.18 344.081 1029.48 342.789C1027.83 341.439 1025.39 340.763 1022.17 340.763C1019.58 340.763 1017.17 341.262 1014.94 342.261C1012.77 343.259 1010.92 344.815 1009.39 346.929L998.999 340.235C1001.35 336.711 1004.64 333.922 1008.86 331.867C1013.09 329.811 1017.97 328.784 1023.49 328.784C1028.07 328.784 1032.06 329.547 1035.47 331.074C1038.93 332.542 1041.6 334.627 1043.48 337.328C1045.42 340.029 1046.39 343.259 1046.39 347.017C1046.39 349.014 1046.12 351.01 1045.6 353.007C1045.13 354.945 1044.13 357 1042.6 359.173C1041.13 361.346 1038.96 363.783 1036.08 366.484L1016.35 385.07L1013.62 379.873H1048.41V391.5H1001.82ZM1075.27 392.557C1070.98 392.557 1066.72 391.999 1062.49 390.883C1058.32 389.709 1054.74 388.065 1051.75 385.951L1057.39 375.028C1059.73 376.731 1062.44 378.082 1065.49 379.08C1068.6 380.078 1071.74 380.578 1074.91 380.578C1078.5 380.578 1081.31 379.873 1083.37 378.463C1085.43 377.054 1086.45 375.087 1086.45 372.562C1086.45 370.976 1086.04 369.567 1085.22 368.334C1084.4 367.101 1082.93 366.161 1080.82 365.515C1078.76 364.869 1075.85 364.546 1072.1 364.546H1056.33L1059.5 329.841H1097.11V341.292H1064.61L1072.01 334.774L1069.81 359.525L1062.41 353.007H1075.44C1081.55 353.007 1086.45 353.859 1090.15 355.561C1093.91 357.206 1096.64 359.467 1098.34 362.344C1100.05 365.221 1100.9 368.481 1100.9 372.121C1100.9 375.762 1099.99 379.139 1098.17 382.251C1096.35 385.305 1093.53 387.8 1089.71 389.738C1085.95 391.617 1081.14 392.557 1075.27 392.557ZM1134.26 392.557C1128.62 392.557 1123.72 391.383 1119.55 389.034C1115.44 386.685 1112.27 383.249 1110.04 378.728C1107.8 374.206 1106.69 368.627 1106.69 361.992C1106.69 354.886 1108.01 348.867 1110.65 343.934C1113.35 339.002 1117.05 335.243 1121.75 332.659C1126.51 330.076 1131.97 328.784 1138.13 328.784C1141.42 328.784 1144.56 329.136 1147.56 329.841C1150.55 330.545 1153.14 331.602 1155.31 333.012L1150.03 343.494C1148.32 342.319 1146.5 341.527 1144.56 341.116C1142.63 340.646 1140.6 340.411 1138.49 340.411C1133.14 340.411 1128.92 342.026 1125.8 345.256C1122.69 348.485 1121.13 353.271 1121.13 359.613C1121.13 360.67 1121.13 361.845 1121.13 363.137C1121.19 364.429 1121.37 365.721 1121.66 367.012L1117.7 363.313C1118.81 361.023 1120.25 359.114 1122.02 357.587C1123.78 356.002 1125.86 354.827 1128.27 354.064C1130.74 353.242 1133.44 352.831 1136.37 352.831C1140.37 352.831 1143.95 353.624 1147.12 355.209C1150.29 356.795 1152.82 359.026 1154.69 361.904C1156.63 364.781 1157.6 368.158 1157.6 372.033C1157.6 376.203 1156.54 379.843 1154.43 382.956C1152.38 386.009 1149.59 388.388 1146.06 390.091C1142.6 391.735 1138.66 392.557 1134.26 392.557ZM1133.47 381.899C1135.46 381.899 1137.22 381.546 1138.75 380.842C1140.34 380.078 1141.57 378.992 1142.45 377.583C1143.33 376.173 1143.77 374.558 1143.77 372.738C1143.77 369.919 1142.8 367.688 1140.87 366.044C1138.99 364.341 1136.46 363.489 1133.29 363.489C1131.18 363.489 1129.33 363.9 1127.74 364.722C1126.16 365.486 1124.89 366.572 1123.95 367.981C1123.07 369.332 1122.63 370.918 1122.63 372.738C1122.63 374.5 1123.07 376.085 1123.95 377.495C1124.83 378.845 1126.07 379.932 1127.65 380.754C1129.24 381.517 1131.18 381.899 1133.47 381.899ZM1179.42 377.406L1178.63 360.935L1208.14 329.841H1223.99L1197.39 358.468L1189.46 366.924L1179.42 377.406ZM1166.65 391.5V329.841H1180.83V391.5H1166.65ZM1208.84 391.5L1186.91 364.634L1196.25 354.504L1225.49 391.5H1208.84ZM1242.06 381.018V340.323H1253.42V381.018H1242.06ZM1226.82 366.044V355.297H1268.75V366.044H1226.82Z" fill="white"/>
<path d="M1015.37 451.5V431.2H1018.27V448.977H1029.27V451.5H1015.37ZM1038.83 451.674C1037.19 451.674 1035.74 451.336 1034.48 450.659C1033.25 449.982 1032.28 449.054 1031.58 447.875C1030.91 446.696 1030.57 445.342 1030.57 443.815C1030.57 442.288 1030.9 440.934 1031.55 439.755C1032.23 438.576 1033.15 437.657 1034.31 437C1035.49 436.323 1036.81 435.985 1038.28 435.985C1039.77 435.985 1041.09 436.314 1042.23 436.971C1043.37 437.628 1044.26 438.556 1044.89 439.755C1045.55 440.934 1045.88 442.317 1045.88 443.902C1045.88 444.018 1045.87 444.153 1045.85 444.308C1045.85 444.463 1045.84 444.608 1045.82 444.743H1032.74V442.742H1044.37L1043.24 443.438C1043.26 442.452 1043.06 441.572 1042.63 440.799C1042.21 440.026 1041.62 439.426 1040.86 439.001C1040.13 438.556 1039.27 438.334 1038.28 438.334C1037.32 438.334 1036.46 438.556 1035.7 439.001C1034.95 439.426 1034.36 440.035 1033.93 440.828C1033.51 441.601 1033.29 442.491 1033.29 443.496V443.96C1033.29 444.985 1033.53 445.903 1033.99 446.715C1034.47 447.508 1035.14 448.126 1035.99 448.571C1036.84 449.016 1037.82 449.238 1038.92 449.238C1039.83 449.238 1040.65 449.083 1041.39 448.774C1042.14 448.465 1042.8 448.001 1043.36 447.382L1044.89 449.18C1044.2 449.992 1043.33 450.611 1042.28 451.036C1041.26 451.461 1040.11 451.674 1038.83 451.674ZM1058.86 451.5V448.252L1058.72 447.643V442.104C1058.72 440.925 1058.37 440.016 1057.67 439.378C1057 438.721 1055.97 438.392 1054.6 438.392C1053.69 438.392 1052.8 438.547 1051.93 438.856C1051.06 439.146 1050.33 439.542 1049.73 440.045L1048.57 437.957C1049.36 437.319 1050.31 436.836 1051.41 436.507C1052.53 436.159 1053.7 435.985 1054.92 435.985C1057.03 435.985 1058.65 436.497 1059.79 437.522C1060.93 438.547 1061.5 440.113 1061.5 442.22V451.5H1058.86ZM1053.82 451.674C1052.68 451.674 1051.67 451.481 1050.8 451.094C1049.95 450.707 1049.29 450.176 1048.83 449.499C1048.36 448.803 1048.13 448.02 1048.13 447.15C1048.13 446.319 1048.33 445.565 1048.71 444.888C1049.12 444.211 1049.77 443.67 1050.66 443.264C1051.56 442.858 1052.78 442.655 1054.31 442.655H1059.18V444.656H1054.43C1053.03 444.656 1052.1 444.888 1051.61 445.352C1051.13 445.816 1050.89 446.377 1050.89 447.034C1050.89 447.788 1051.19 448.397 1051.79 448.861C1052.39 449.306 1053.22 449.528 1054.28 449.528C1055.32 449.528 1056.23 449.296 1057.01 448.832C1057.8 448.368 1058.37 447.691 1058.72 446.802L1059.27 448.716C1058.9 449.625 1058.25 450.35 1057.33 450.891C1056.4 451.413 1055.23 451.674 1053.82 451.674ZM1073 451.674C1071.52 451.674 1070.18 451.345 1069 450.688C1067.84 450.031 1066.92 449.112 1066.25 447.933C1065.57 446.754 1065.23 445.381 1065.23 443.815C1065.23 442.249 1065.57 440.886 1066.25 439.726C1066.92 438.547 1067.84 437.628 1069 436.971C1070.18 436.314 1071.52 435.985 1073 435.985C1074.3 435.985 1075.47 436.275 1076.51 436.855C1077.56 437.435 1078.39 438.305 1079.01 439.465C1079.65 440.625 1079.96 442.075 1079.96 443.815C1079.96 445.555 1079.65 447.005 1079.04 448.165C1078.44 449.325 1077.62 450.205 1076.57 450.804C1075.53 451.384 1074.34 451.674 1073 451.674ZM1073.24 449.238C1074.2 449.238 1075.07 449.016 1075.85 448.571C1076.64 448.126 1077.26 447.498 1077.7 446.686C1078.17 445.855 1078.4 444.898 1078.4 443.815C1078.4 442.713 1078.17 441.766 1077.7 440.973C1077.26 440.161 1076.64 439.533 1075.85 439.088C1075.07 438.643 1074.2 438.421 1073.24 438.421C1072.25 438.421 1071.37 438.643 1070.6 439.088C1069.82 439.533 1069.21 440.161 1068.74 440.973C1068.28 441.766 1068.05 442.713 1068.05 443.815C1068.05 444.898 1068.28 445.855 1068.74 446.686C1069.21 447.498 1069.82 448.126 1070.6 448.571C1071.37 449.016 1072.25 449.238 1073.24 449.238ZM1078.49 451.5V447.353L1078.66 443.786L1078.37 440.219V429.982H1081.15V451.5H1078.49ZM1090.83 451.674C1089.55 451.674 1088.33 451.5 1087.17 451.152C1086.03 450.804 1085.14 450.379 1084.48 449.876L1085.64 447.672C1086.3 448.117 1087.11 448.494 1088.07 448.803C1089.04 449.112 1090.03 449.267 1091.03 449.267C1092.33 449.267 1093.26 449.083 1093.82 448.716C1094.4 448.349 1094.69 447.836 1094.69 447.179C1094.69 446.696 1094.51 446.319 1094.16 446.048C1093.82 445.777 1093.35 445.574 1092.77 445.439C1092.21 445.304 1091.58 445.188 1090.89 445.091C1090.19 444.975 1089.49 444.84 1088.8 444.685C1088.1 444.511 1087.46 444.279 1086.88 443.989C1086.3 443.68 1085.84 443.264 1085.49 442.742C1085.14 442.201 1084.97 441.485 1084.97 440.596C1084.97 439.668 1085.23 438.856 1085.75 438.16C1086.28 437.464 1087.01 436.932 1087.96 436.565C1088.92 436.178 1090.07 435.985 1091.38 435.985C1092.39 435.985 1093.4 436.111 1094.42 436.362C1095.47 436.594 1096.32 436.932 1096.98 437.377L1095.79 439.581C1095.09 439.117 1094.37 438.798 1093.61 438.624C1092.86 438.45 1092.1 438.363 1091.35 438.363C1090.13 438.363 1089.22 438.566 1088.62 438.972C1088.03 439.359 1087.73 439.861 1087.73 440.48C1087.73 441.002 1087.9 441.408 1088.25 441.698C1088.62 441.969 1089.08 442.181 1089.64 442.336C1090.22 442.491 1090.86 442.626 1091.55 442.742C1092.25 442.839 1092.95 442.974 1093.64 443.148C1094.34 443.303 1094.97 443.525 1095.53 443.815C1096.11 444.105 1096.57 444.511 1096.92 445.033C1097.29 445.555 1097.47 446.251 1097.47 447.121C1097.47 448.049 1097.2 448.851 1096.66 449.528C1096.12 450.205 1095.35 450.736 1094.37 451.123C1093.38 451.49 1092.2 451.674 1090.83 451.674ZM1118.31 451.732C1116.74 451.732 1115.3 451.481 1113.99 450.978C1112.67 450.456 1111.53 449.731 1110.56 448.803C1109.6 447.856 1108.84 446.754 1108.3 445.497C1107.76 444.24 1107.49 442.858 1107.49 441.35C1107.49 439.842 1107.76 438.46 1108.3 437.203C1108.84 435.946 1109.6 434.854 1110.56 433.926C1111.55 432.979 1112.7 432.254 1114.02 431.751C1115.33 431.229 1116.78 430.968 1118.37 430.968C1119.97 430.968 1121.44 431.229 1122.77 431.751C1124.11 432.273 1125.24 433.056 1126.17 434.1L1124.37 435.898C1123.54 435.086 1122.63 434.496 1121.64 434.129C1120.68 433.742 1119.62 433.549 1118.48 433.549C1117.32 433.549 1116.24 433.742 1115.23 434.129C1114.25 434.516 1113.39 435.057 1112.65 435.753C1111.94 436.449 1111.38 437.28 1110.97 438.247C1110.58 439.194 1110.39 440.229 1110.39 441.35C1110.39 442.452 1110.58 443.486 1110.97 444.453C1111.38 445.4 1111.94 446.232 1112.65 446.947C1113.39 447.643 1114.25 448.184 1115.23 448.571C1116.22 448.958 1117.29 449.151 1118.45 449.151C1119.53 449.151 1120.57 448.987 1121.56 448.658C1122.56 448.31 1123.49 447.74 1124.34 446.947L1125.99 449.151C1124.99 450.002 1123.81 450.649 1122.45 451.094C1121.12 451.519 1119.74 451.732 1118.31 451.732ZM1123.21 448.774V441.234H1125.99V449.151L1123.21 448.774ZM1137.98 451.674C1136.34 451.674 1134.89 451.336 1133.63 450.659C1132.4 449.982 1131.43 449.054 1130.73 447.875C1130.06 446.696 1129.72 445.342 1129.72 443.815C1129.72 442.288 1130.05 440.934 1130.7 439.755C1131.38 438.576 1132.3 437.657 1133.46 437C1134.64 436.323 1135.96 435.985 1137.43 435.985C1138.92 435.985 1140.23 436.314 1141.38 436.971C1142.52 437.628 1143.41 438.556 1144.04 439.755C1144.7 440.934 1145.03 442.317 1145.03 443.902C1145.03 444.018 1145.02 444.153 1145 444.308C1145 444.463 1144.99 444.608 1144.97 444.743H1131.89V442.742H1143.52L1142.39 443.438C1142.41 442.452 1142.21 441.572 1141.78 440.799C1141.36 440.026 1140.77 439.426 1140.01 439.001C1139.28 438.556 1138.42 438.334 1137.43 438.334C1136.46 438.334 1135.6 438.556 1134.85 439.001C1134.1 439.426 1133.51 440.035 1133.08 440.828C1132.66 441.601 1132.44 442.491 1132.44 443.496V443.96C1132.44 444.985 1132.68 445.903 1133.14 446.715C1133.62 447.508 1134.29 448.126 1135.14 448.571C1135.99 449.016 1136.97 449.238 1138.07 449.238C1138.98 449.238 1139.8 449.083 1140.53 448.774C1141.29 448.465 1141.95 448.001 1142.51 447.382L1144.04 449.18C1143.35 449.992 1142.48 450.611 1141.43 451.036C1140.41 451.461 1139.26 451.674 1137.98 451.674ZM1157.1 435.985C1158.36 435.985 1159.46 436.227 1160.41 436.71C1161.38 437.193 1162.13 437.928 1162.67 438.914C1163.21 439.9 1163.48 441.147 1163.48 442.655V451.5H1160.7V442.974C1160.7 441.485 1160.33 440.364 1159.6 439.61C1158.88 438.856 1157.87 438.479 1156.55 438.479C1155.57 438.479 1154.71 438.672 1153.97 439.059C1153.24 439.446 1152.67 440.016 1152.26 440.77C1151.87 441.524 1151.68 442.462 1151.68 443.583V451.5H1148.9V436.13H1151.56V440.277L1151.13 439.175C1151.63 438.17 1152.4 437.387 1153.45 436.826C1154.49 436.265 1155.71 435.985 1157.1 435.985ZM1175.48 451.674C1173.84 451.674 1172.39 451.336 1171.13 450.659C1169.89 449.982 1168.92 449.054 1168.23 447.875C1167.55 446.696 1167.21 445.342 1167.21 443.815C1167.21 442.288 1167.54 440.934 1168.2 439.755C1168.88 438.576 1169.79 437.657 1170.95 437C1172.13 436.323 1173.46 435.985 1174.93 435.985C1176.42 435.985 1177.73 436.314 1178.87 436.971C1180.01 437.628 1180.9 438.556 1181.54 439.755C1182.2 440.934 1182.53 442.317 1182.53 443.902C1182.53 444.018 1182.52 444.153 1182.5 444.308C1182.5 444.463 1182.49 444.608 1182.47 444.743H1169.39V442.742H1181.02L1179.89 443.438C1179.91 442.452 1179.7 441.572 1179.28 440.799C1178.85 440.026 1178.26 439.426 1177.51 439.001C1176.77 438.556 1175.91 438.334 1174.93 438.334C1173.96 438.334 1173.1 438.556 1172.35 439.001C1171.59 439.426 1171 440.035 1170.58 440.828C1170.15 441.601 1169.94 442.491 1169.94 443.496V443.96C1169.94 444.985 1170.17 445.903 1170.64 446.715C1171.12 447.508 1171.79 448.126 1172.64 448.571C1173.49 449.016 1174.46 449.238 1175.57 449.238C1176.47 449.238 1177.3 449.083 1178.03 448.774C1178.78 448.465 1179.44 448.001 1180 447.382L1181.54 449.18C1180.84 449.992 1179.97 450.611 1178.93 451.036C1177.9 451.461 1176.75 451.674 1175.48 451.674ZM1186.39 451.5V436.13H1189.06V440.306L1188.8 439.262C1189.22 438.199 1189.94 437.387 1190.94 436.826C1191.95 436.265 1193.19 435.985 1194.66 435.985V438.682C1194.54 438.663 1194.42 438.653 1194.31 438.653C1194.21 438.653 1194.12 438.653 1194.02 438.653C1192.53 438.653 1191.35 439.098 1190.48 439.987C1189.61 440.876 1189.18 442.162 1189.18 443.844V451.5H1186.39ZM1206.5 451.5V448.252L1206.35 447.643V442.104C1206.35 440.925 1206 440.016 1205.31 439.378C1204.63 438.721 1203.61 438.392 1202.23 438.392C1201.32 438.392 1200.43 438.547 1199.56 438.856C1198.69 439.146 1197.96 439.542 1197.36 440.045L1196.2 437.957C1196.99 437.319 1197.94 436.836 1199.04 436.507C1200.16 436.159 1201.33 435.985 1202.55 435.985C1204.66 435.985 1206.28 436.497 1207.42 437.522C1208.56 438.547 1209.13 440.113 1209.13 442.22V451.5H1206.5ZM1201.45 451.674C1200.31 451.674 1199.3 451.481 1198.43 451.094C1197.58 450.707 1196.93 450.176 1196.46 449.499C1196 448.803 1195.77 448.02 1195.77 447.15C1195.77 446.319 1195.96 445.565 1196.35 444.888C1196.75 444.211 1197.4 443.67 1198.29 443.264C1199.2 442.858 1200.42 442.655 1201.94 442.655H1206.81V444.656H1202.06C1200.67 444.656 1199.73 444.888 1199.25 445.352C1198.76 445.816 1198.52 446.377 1198.52 447.034C1198.52 447.788 1198.82 448.397 1199.42 448.861C1200.02 449.306 1200.85 449.528 1201.91 449.528C1202.96 449.528 1203.87 449.296 1204.64 448.832C1205.43 448.368 1206 447.691 1206.35 446.802L1206.9 448.716C1206.53 449.625 1205.89 450.35 1204.96 450.891C1204.03 451.413 1202.86 451.674 1201.45 451.674ZM1219.56 451.674C1218.02 451.674 1216.82 451.258 1215.97 450.427C1215.12 449.596 1214.69 448.407 1214.69 446.86V432.766H1217.48V446.744C1217.48 447.575 1217.68 448.213 1218.09 448.658C1218.51 449.103 1219.11 449.325 1219.88 449.325C1220.75 449.325 1221.48 449.083 1222.06 448.6L1222.93 450.601C1222.5 450.968 1221.99 451.239 1221.39 451.413C1220.81 451.587 1220.2 451.674 1219.56 451.674ZM1212.08 438.421V436.13H1221.88V438.421H1212.08ZM1232.63 451.674C1230.99 451.674 1229.54 451.336 1228.28 450.659C1227.04 449.982 1226.07 449.054 1225.38 447.875C1224.7 446.696 1224.36 445.342 1224.36 443.815C1224.36 442.288 1224.69 440.934 1225.35 439.755C1226.03 438.576 1226.94 437.657 1228.1 437C1229.28 436.323 1230.61 435.985 1232.08 435.985C1233.57 435.985 1234.88 436.314 1236.02 436.971C1237.16 437.628 1238.05 438.556 1238.69 439.755C1239.35 440.934 1239.68 442.317 1239.68 443.902C1239.68 444.018 1239.67 444.153 1239.65 444.308C1239.65 444.463 1239.64 444.608 1239.62 444.743H1226.54V442.742H1238.17L1237.04 443.438C1237.06 442.452 1236.85 441.572 1236.43 440.799C1236 440.026 1235.41 439.426 1234.66 439.001C1233.92 438.556 1233.06 438.334 1232.08 438.334C1231.11 438.334 1230.25 438.556 1229.5 439.001C1228.74 439.426 1228.15 440.035 1227.73 440.828C1227.3 441.601 1227.09 442.491 1227.09 443.496V443.96C1227.09 444.985 1227.32 445.903 1227.79 446.715C1228.27 447.508 1228.94 448.126 1229.79 448.571C1230.64 449.016 1231.61 449.238 1232.72 449.238C1233.62 449.238 1234.45 449.083 1235.18 448.774C1235.93 448.465 1236.59 448.001 1237.15 447.382L1238.69 449.18C1237.99 449.992 1237.12 450.611 1236.08 451.036C1235.06 451.461 1233.9 451.674 1232.63 451.674ZM1249.89 451.674C1248.4 451.674 1247.07 451.345 1245.89 450.688C1244.73 450.031 1243.81 449.112 1243.14 447.933C1242.46 446.754 1242.12 445.381 1242.12 443.815C1242.12 442.249 1242.46 440.886 1243.14 439.726C1243.81 438.547 1244.73 437.628 1245.89 436.971C1247.07 436.314 1248.4 435.985 1249.89 435.985C1251.19 435.985 1252.36 436.275 1253.4 436.855C1254.45 437.435 1255.28 438.305 1255.9 439.465C1256.53 440.625 1256.85 442.075 1256.85 443.815C1256.85 445.555 1256.54 447.005 1255.92 448.165C1255.33 449.325 1254.5 450.205 1253.46 450.804C1252.42 451.384 1251.23 451.674 1249.89 451.674ZM1250.12 449.238C1251.09 449.238 1251.96 449.016 1252.73 448.571C1253.53 448.126 1254.15 447.498 1254.59 446.686C1255.05 445.855 1255.29 444.898 1255.29 443.815C1255.29 442.713 1255.05 441.766 1254.59 440.973C1254.15 440.161 1253.53 439.533 1252.73 439.088C1251.96 438.643 1251.09 438.421 1250.12 438.421C1249.14 438.421 1248.26 438.643 1247.49 439.088C1246.71 439.533 1246.09 440.161 1245.63 440.973C1245.17 441.766 1244.93 442.713 1244.93 443.815C1244.93 444.898 1245.17 445.855 1245.63 446.686C1246.09 447.498 1246.71 448.126 1247.49 448.571C1248.26 449.016 1249.14 449.238 1250.12 449.238ZM1255.37 451.5V447.353L1255.55 443.786L1255.26 440.219V429.982H1258.04V451.5H1255.37Z" fill="white"/>
<mask id="path-18-inside-4_439_2456" fill="white">
<path d="M1325.5 75H1647.5V552H1325.5V75Z"/>
</mask>
<path d="M1325.5 84H1647.5V66H1325.5V84ZM1647.5 549H1325.5V555H1647.5V549Z" fill="white" mask="url(#path-18-inside-4_439_2456)"/>
<path d="M1486.5 261.833C1492.06 261.833 1497.19 260.588 1501.88 258.099C1506.58 255.61 1510.36 252.233 1513.24 247.966C1513.81 246.899 1513.76 245.833 1513.09 244.766C1512.42 243.699 1511.42 243.166 1510.08 243.166H1462.93C1461.58 243.166 1460.58 243.699 1459.91 244.766C1459.24 245.833 1459.19 246.899 1459.76 247.966C1462.64 252.233 1466.45 255.61 1471.19 258.099C1475.94 260.588 1481.04 261.833 1486.5 261.833ZM1468.68 221.566L1471.69 224.366C1472.56 225.166 1473.56 225.566 1474.71 225.566C1475.86 225.566 1476.87 225.166 1477.73 224.366C1478.59 223.566 1479 222.633 1478.96 221.566C1478.91 220.499 1478.5 219.566 1477.73 218.766L1472.7 213.966C1471.55 212.899 1470.19 212.366 1468.61 212.366C1467.03 212.366 1465.66 212.899 1464.51 213.966L1459.33 218.766C1458.47 219.566 1458.04 220.499 1458.04 221.566C1458.04 222.633 1458.47 223.566 1459.33 224.366C1460.1 225.077 1461.08 225.456 1462.28 225.502C1463.48 225.548 1464.51 225.214 1465.37 224.499L1468.68 221.566ZM1504.33 221.566L1507.63 224.499C1508.49 225.21 1509.5 225.566 1510.65 225.566C1511.8 225.566 1512.81 225.166 1513.67 224.366C1514.53 223.566 1514.96 222.633 1514.96 221.566C1514.96 220.499 1514.53 219.566 1513.67 218.766L1508.49 213.966C1507.34 212.899 1505.98 212.366 1504.39 212.366C1502.81 212.366 1501.45 212.899 1500.3 213.966L1495.13 218.766C1494.36 219.566 1493.98 220.499 1493.98 221.566C1493.98 222.633 1494.41 223.566 1495.27 224.366C1496.13 225.166 1497.14 225.566 1498.29 225.566C1499.44 225.566 1500.44 225.166 1501.31 224.366L1504.33 221.566ZM1486.5 285.833C1478.55 285.833 1471.07 284.432 1464.08 281.63C1457.08 278.828 1450.99 275.029 1445.82 270.233C1440.64 265.436 1436.55 259.792 1433.53 253.299C1430.51 246.807 1429 239.874 1429 232.499C1429 225.125 1430.51 218.192 1433.53 211.699C1436.56 205.207 1440.65 199.562 1445.82 194.766C1450.99 189.97 1457.07 186.17 1464.08 183.369C1471.08 180.567 1478.55 179.166 1486.5 179.166C1494.45 179.166 1501.92 180.567 1508.93 183.369C1515.93 186.17 1522.01 189.97 1527.18 194.766C1532.35 199.562 1536.45 205.207 1539.47 211.699C1542.5 218.192 1544.01 225.125 1544 232.499C1543.99 239.874 1542.48 246.807 1539.47 253.299C1536.46 259.792 1532.36 265.436 1527.18 270.233C1522 275.029 1515.91 278.83 1508.93 281.635C1501.94 284.441 1494.46 285.84 1486.5 285.833ZM1486.5 275.166C1499.34 275.166 1510.22 271.033 1519.13 262.766C1528.04 254.499 1532.5 244.41 1532.5 232.499C1532.5 220.588 1528.04 210.499 1519.13 202.233C1510.22 193.966 1499.34 189.833 1486.5 189.833C1473.66 189.833 1462.78 193.966 1453.87 202.233C1444.96 210.499 1440.5 220.588 1440.5 232.499C1440.5 244.41 1444.96 254.499 1453.87 262.766C1462.78 271.033 1473.66 275.166 1486.5 275.166Z" fill="white"/>
<path d="M1398.39 392.557C1394.1 392.557 1389.84 391.999 1385.61 390.883C1381.44 389.709 1377.86 388.065 1374.87 385.951L1380.5 375.028C1382.85 376.731 1385.55 378.082 1388.61 379.08C1391.72 380.078 1394.86 380.578 1398.03 380.578C1401.61 380.578 1404.43 379.873 1406.49 378.463C1408.54 377.054 1409.57 375.087 1409.57 372.562C1409.57 370.976 1409.16 369.567 1408.34 368.334C1407.52 367.101 1406.05 366.161 1403.93 365.515C1401.88 364.869 1398.97 364.546 1395.21 364.546H1379.45L1382.62 329.841H1420.23V341.292H1387.73L1395.13 334.774L1392.92 359.525L1385.52 353.007H1398.56C1404.67 353.007 1409.57 353.859 1413.27 355.561C1417.03 357.206 1419.76 359.467 1421.46 362.344C1423.17 365.221 1424.02 368.481 1424.02 372.121C1424.02 375.762 1423.11 379.139 1421.29 382.251C1419.47 385.305 1416.65 387.8 1412.83 389.738C1409.07 391.617 1404.26 392.557 1398.39 392.557ZM1456.23 392.557C1451.18 392.557 1446.66 391.324 1442.67 388.857C1438.67 386.332 1435.53 382.692 1433.24 377.935C1430.95 373.178 1429.81 367.424 1429.81 360.67C1429.81 353.917 1430.95 348.162 1433.24 343.406C1435.53 338.649 1438.67 335.038 1442.67 332.571C1446.66 330.046 1451.18 328.784 1456.23 328.784C1461.34 328.784 1465.86 330.046 1469.8 332.571C1473.79 335.038 1476.93 338.649 1479.22 343.406C1481.51 348.162 1482.66 353.917 1482.66 360.67C1482.66 367.424 1481.51 373.178 1479.22 377.935C1476.93 382.692 1473.79 386.332 1469.8 388.857C1465.86 391.324 1461.34 392.557 1456.23 392.557ZM1456.23 380.489C1458.64 380.489 1460.72 379.814 1462.49 378.463C1464.31 377.113 1465.72 374.969 1466.71 372.033C1467.77 369.097 1468.3 365.31 1468.3 360.67C1468.3 356.031 1467.77 352.244 1466.71 349.307C1465.72 346.371 1464.31 344.228 1462.49 342.877C1460.72 341.527 1458.64 340.851 1456.23 340.851C1453.88 340.851 1451.8 341.527 1449.98 342.877C1448.22 344.228 1446.81 346.371 1445.75 349.307C1444.75 352.244 1444.25 356.031 1444.25 360.67C1444.25 365.31 1444.75 369.097 1445.75 372.033C1446.81 374.969 1448.22 377.113 1449.98 378.463C1451.8 379.814 1453.88 380.489 1456.23 380.489ZM1516.02 392.557C1510.97 392.557 1506.44 391.324 1502.45 388.857C1498.46 386.332 1495.32 382.692 1493.03 377.935C1490.74 373.178 1489.59 367.424 1489.59 360.67C1489.59 353.917 1490.74 348.162 1493.03 343.406C1495.32 338.649 1498.46 335.038 1502.45 332.571C1506.44 330.046 1510.97 328.784 1516.02 328.784C1521.13 328.784 1525.65 330.046 1529.58 332.571C1533.57 335.038 1536.72 338.649 1539.01 343.406C1541.3 348.162 1542.44 353.917 1542.44 360.67C1542.44 367.424 1541.3 373.178 1539.01 377.935C1536.72 382.692 1533.57 386.332 1529.58 388.857C1525.65 391.324 1521.13 392.557 1516.02 392.557ZM1516.02 380.489C1518.42 380.489 1520.51 379.814 1522.27 378.463C1524.09 377.113 1525.5 374.969 1526.5 372.033C1527.56 369.097 1528.08 365.31 1528.08 360.67C1528.08 356.031 1527.56 352.244 1526.5 349.307C1525.5 346.371 1524.09 344.228 1522.27 342.877C1520.51 341.527 1518.42 340.851 1516.02 340.851C1513.67 340.851 1511.58 341.527 1509.76 342.877C1508 344.228 1506.59 346.371 1505.53 349.307C1504.54 352.244 1504.04 356.031 1504.04 360.67C1504.04 365.31 1504.54 369.097 1505.53 372.033C1506.59 374.969 1508 377.113 1509.76 378.463C1511.58 379.814 1513.67 380.489 1516.02 380.489ZM1566.98 381.018V340.323H1578.35V381.018H1566.98ZM1551.75 366.044V355.297H1593.67V366.044H1551.75Z" fill="white"/>
<path d="M1348.99 451.732C1347.44 451.732 1345.96 451.5 1344.55 451.036C1343.14 450.553 1342.03 449.934 1341.22 449.18L1342.29 446.918C1343.06 447.595 1344.05 448.155 1345.25 448.6C1346.45 449.045 1347.69 449.267 1348.99 449.267C1350.17 449.267 1351.12 449.132 1351.86 448.861C1352.59 448.59 1353.14 448.223 1353.48 447.759C1353.83 447.276 1354.01 446.734 1354.01 446.135C1354.01 445.439 1353.77 444.878 1353.31 444.453C1352.86 444.028 1352.28 443.689 1351.54 443.438C1350.83 443.167 1350.03 442.935 1349.16 442.742C1348.29 442.549 1347.41 442.326 1346.52 442.075C1345.65 441.804 1344.85 441.466 1344.12 441.06C1343.4 440.654 1342.82 440.113 1342.38 439.436C1341.93 438.74 1341.71 437.851 1341.71 436.768C1341.71 435.724 1341.98 434.767 1342.52 433.897C1343.08 433.008 1343.93 432.302 1345.07 431.78C1346.23 431.239 1347.7 430.968 1349.48 430.968C1350.66 430.968 1351.83 431.123 1352.99 431.432C1354.15 431.741 1355.16 432.186 1356.01 432.766L1355.05 435.086C1354.18 434.506 1353.26 434.09 1352.29 433.839C1351.33 433.568 1350.39 433.433 1349.48 433.433C1348.34 433.433 1347.4 433.578 1346.67 433.868C1345.93 434.158 1345.39 434.545 1345.04 435.028C1344.72 435.511 1344.55 436.053 1344.55 436.652C1344.55 437.367 1344.77 437.938 1345.22 438.363C1345.68 438.788 1346.27 439.127 1346.99 439.378C1347.72 439.629 1348.52 439.861 1349.39 440.074C1350.26 440.267 1351.13 440.49 1352 440.741C1352.89 440.992 1353.7 441.321 1354.41 441.727C1355.15 442.133 1355.74 442.674 1356.18 443.351C1356.63 444.028 1356.85 444.898 1356.85 445.961C1356.85 446.986 1356.57 447.943 1356.01 448.832C1355.45 449.702 1354.58 450.408 1353.4 450.949C1352.24 451.471 1350.77 451.732 1348.99 451.732ZM1370.22 451.5V448.252L1370.07 447.643V442.104C1370.07 440.925 1369.73 440.016 1369.03 439.378C1368.35 438.721 1367.33 438.392 1365.96 438.392C1365.05 438.392 1364.16 438.547 1363.29 438.856C1362.42 439.146 1361.68 439.542 1361.08 440.045L1359.92 437.957C1360.72 437.319 1361.66 436.836 1362.77 436.507C1363.89 436.159 1365.06 435.985 1366.28 435.985C1368.38 435.985 1370.01 436.497 1371.15 437.522C1372.29 438.547 1372.86 440.113 1372.86 442.22V451.5H1370.22ZM1365.17 451.674C1364.03 451.674 1363.03 451.481 1362.16 451.094C1361.31 450.707 1360.65 450.176 1360.19 449.499C1359.72 448.803 1359.49 448.02 1359.49 447.15C1359.49 446.319 1359.68 445.565 1360.07 444.888C1360.48 444.211 1361.12 443.67 1362.01 443.264C1362.92 442.858 1364.14 442.655 1365.67 442.655H1370.54V444.656H1365.78C1364.39 444.656 1363.45 444.888 1362.97 445.352C1362.49 445.816 1362.24 446.377 1362.24 447.034C1362.24 447.788 1362.54 448.397 1363.14 448.861C1363.74 449.306 1364.57 449.528 1365.64 449.528C1366.68 449.528 1367.59 449.296 1368.36 448.832C1369.16 448.368 1369.73 447.691 1370.07 446.802L1370.63 448.716C1370.26 449.625 1369.61 450.35 1368.68 450.891C1367.75 451.413 1366.58 451.674 1365.17 451.674ZM1383.29 451.674C1381.74 451.674 1380.54 451.258 1379.69 450.427C1378.84 449.596 1378.42 448.407 1378.42 446.86V432.766H1381.2V446.744C1381.2 447.575 1381.4 448.213 1381.81 448.658C1382.23 449.103 1382.83 449.325 1383.61 449.325C1384.48 449.325 1385.2 449.083 1385.78 448.6L1386.65 450.601C1386.23 450.968 1385.71 451.239 1385.12 451.413C1384.54 451.587 1383.93 451.674 1383.29 451.674ZM1375.81 438.421V436.13H1385.61V438.421H1375.81ZM1390.02 451.5V436.13H1392.8V451.5H1390.02ZM1391.41 433.172C1390.87 433.172 1390.41 432.998 1390.05 432.65C1389.7 432.302 1389.52 431.877 1389.52 431.374C1389.52 430.852 1389.7 430.417 1390.05 430.069C1390.41 429.721 1390.87 429.547 1391.41 429.547C1391.95 429.547 1392.4 429.721 1392.74 430.069C1393.11 430.398 1393.29 430.813 1393.29 431.316C1393.29 431.838 1393.12 432.283 1392.77 432.65C1392.42 432.998 1391.97 433.172 1391.41 433.172ZM1402.53 451.674C1401.25 451.674 1400.03 451.5 1398.87 451.152C1397.73 450.804 1396.83 450.379 1396.17 449.876L1397.33 447.672C1397.99 448.117 1398.8 448.494 1399.77 448.803C1400.74 449.112 1401.72 449.267 1402.73 449.267C1404.02 449.267 1404.95 449.083 1405.51 448.716C1406.09 448.349 1406.38 447.836 1406.38 447.179C1406.38 446.696 1406.21 446.319 1405.86 446.048C1405.51 445.777 1405.05 445.574 1404.47 445.439C1403.91 445.304 1403.28 445.188 1402.58 445.091C1401.89 444.975 1401.19 444.84 1400.5 444.685C1399.8 444.511 1399.16 444.279 1398.58 443.989C1398 443.68 1397.54 443.264 1397.19 442.742C1396.84 442.201 1396.67 441.485 1396.67 440.596C1396.67 439.668 1396.93 438.856 1397.45 438.16C1397.97 437.464 1398.71 436.932 1399.65 436.565C1400.62 436.178 1401.76 435.985 1403.08 435.985C1404.08 435.985 1405.1 436.111 1406.12 436.362C1407.17 436.594 1408.02 436.932 1408.67 437.377L1407.48 439.581C1406.79 439.117 1406.06 438.798 1405.31 438.624C1404.56 438.45 1403.8 438.363 1403.05 438.363C1401.83 438.363 1400.92 438.566 1400.32 438.972C1399.72 439.359 1399.42 439.861 1399.42 440.48C1399.42 441.002 1399.6 441.408 1399.94 441.698C1400.31 441.969 1400.78 442.181 1401.34 442.336C1401.92 442.491 1402.55 442.626 1403.25 442.742C1403.95 442.839 1404.64 442.974 1405.34 443.148C1406.03 443.303 1406.66 443.525 1407.22 443.815C1407.8 444.105 1408.27 444.511 1408.62 445.033C1408.98 445.555 1409.17 446.251 1409.17 447.121C1409.17 448.049 1408.9 448.851 1408.35 449.528C1407.81 450.205 1407.05 450.736 1406.06 451.123C1405.08 451.49 1403.9 451.674 1402.53 451.674ZM1413.05 451.5V434.767C1413.05 433.259 1413.49 432.06 1414.36 431.171C1415.25 430.262 1416.5 429.808 1418.13 429.808C1418.73 429.808 1419.3 429.885 1419.84 430.04C1420.4 430.175 1420.87 430.398 1421.26 430.707L1420.42 432.824C1420.13 432.592 1419.8 432.418 1419.43 432.302C1419.06 432.167 1418.68 432.099 1418.27 432.099C1417.46 432.099 1416.84 432.331 1416.42 432.795C1415.99 433.24 1415.78 433.907 1415.78 434.796V436.855L1415.84 438.131V451.5H1413.05ZM1410.44 438.421V436.13H1420.24V438.421H1410.44ZM1422.88 451.5V436.13H1425.67V451.5H1422.88ZM1424.27 433.172C1423.73 433.172 1423.28 432.998 1422.91 432.65C1422.56 432.302 1422.39 431.877 1422.39 431.374C1422.39 430.852 1422.56 430.417 1422.91 430.069C1423.28 429.721 1423.73 429.547 1424.27 429.547C1424.82 429.547 1425.26 429.721 1425.61 430.069C1425.98 430.398 1426.16 430.813 1426.16 431.316C1426.16 431.838 1425.99 432.283 1425.64 432.65C1425.29 432.998 1424.84 433.172 1424.27 433.172ZM1437.81 451.674C1436.17 451.674 1434.72 451.336 1433.46 450.659C1432.23 449.982 1431.26 449.054 1430.56 447.875C1429.89 446.696 1429.55 445.342 1429.55 443.815C1429.55 442.288 1429.88 440.934 1430.53 439.755C1431.21 438.576 1432.13 437.657 1433.29 437C1434.47 436.323 1435.79 435.985 1437.26 435.985C1438.75 435.985 1440.07 436.314 1441.21 436.971C1442.35 437.628 1443.24 438.556 1443.87 439.755C1444.53 440.934 1444.86 442.317 1444.86 443.902C1444.86 444.018 1444.85 444.153 1444.83 444.308C1444.83 444.463 1444.82 444.608 1444.8 444.743H1431.72V442.742H1443.35L1442.22 443.438C1442.24 442.452 1442.04 441.572 1441.61 440.799C1441.19 440.026 1440.6 439.426 1439.84 439.001C1439.11 438.556 1438.25 438.334 1437.26 438.334C1436.3 438.334 1435.44 438.556 1434.68 439.001C1433.93 439.426 1433.34 440.035 1432.91 440.828C1432.49 441.601 1432.27 442.491 1432.27 443.496V443.96C1432.27 444.985 1432.51 445.903 1432.97 446.715C1433.45 447.508 1434.12 448.126 1434.97 448.571C1435.82 449.016 1436.8 449.238 1437.9 449.238C1438.81 449.238 1439.63 449.083 1440.37 448.774C1441.12 448.465 1441.78 448.001 1442.34 447.382L1443.87 449.18C1443.18 449.992 1442.31 450.611 1441.26 451.036C1440.24 451.461 1439.09 451.674 1437.81 451.674ZM1455.08 451.674C1453.59 451.674 1452.25 451.345 1451.07 450.688C1449.91 450.031 1449 449.112 1448.32 447.933C1447.64 446.754 1447.3 445.381 1447.3 443.815C1447.3 442.249 1447.64 440.886 1448.32 439.726C1449 438.547 1449.91 437.628 1451.07 436.971C1452.25 436.314 1453.59 435.985 1455.08 435.985C1456.37 435.985 1457.54 436.275 1458.59 436.855C1459.63 437.435 1460.46 438.305 1461.08 439.465C1461.72 440.625 1462.04 442.075 1462.04 443.815C1462.04 445.555 1461.73 447.005 1461.11 448.165C1460.51 449.325 1459.69 450.205 1458.64 450.804C1457.6 451.384 1456.41 451.674 1455.08 451.674ZM1455.31 449.238C1456.28 449.238 1457.15 449.016 1457.92 448.571C1458.71 448.126 1459.33 447.498 1459.77 446.686C1460.24 445.855 1460.47 444.898 1460.47 443.815C1460.47 442.713 1460.24 441.766 1459.77 440.973C1459.33 440.161 1458.71 439.533 1457.92 439.088C1457.15 438.643 1456.28 438.421 1455.31 438.421C1454.32 438.421 1453.44 438.643 1452.67 439.088C1451.9 439.533 1451.28 440.161 1450.81 440.973C1450.35 441.766 1450.12 442.713 1450.12 443.815C1450.12 444.898 1450.35 445.855 1450.81 446.686C1451.28 447.498 1451.9 448.126 1452.67 448.571C1453.44 449.016 1454.32 449.238 1455.31 449.238ZM1460.56 451.5V447.353L1460.73 443.786L1460.44 440.219V429.982H1463.23V451.5H1460.56ZM1485.76 451.732C1484.22 451.732 1482.79 451.481 1481.47 450.978C1480.18 450.456 1479.05 449.731 1478.08 448.803C1477.13 447.856 1476.39 446.754 1475.85 445.497C1475.31 444.24 1475.03 442.858 1475.03 441.35C1475.03 439.842 1475.31 438.46 1475.85 437.203C1476.39 435.946 1477.14 434.854 1478.11 433.926C1479.08 432.979 1480.21 432.254 1481.5 431.751C1482.82 431.229 1484.25 430.968 1485.79 430.968C1487.36 430.968 1488.8 431.239 1490.11 431.78C1491.45 432.302 1492.58 433.085 1493.51 434.129L1491.62 435.956C1490.85 435.144 1489.98 434.545 1489.01 434.158C1488.05 433.752 1487.01 433.549 1485.91 433.549C1484.77 433.549 1483.71 433.742 1482.72 434.129C1481.75 434.516 1480.91 435.057 1480.2 435.753C1479.48 436.449 1478.92 437.28 1478.51 438.247C1478.13 439.194 1477.93 440.229 1477.93 441.35C1477.93 442.471 1478.13 443.515 1478.51 444.482C1478.92 445.429 1479.48 446.251 1480.2 446.947C1480.91 447.643 1481.75 448.184 1482.72 448.571C1483.71 448.958 1484.77 449.151 1485.91 449.151C1487.01 449.151 1488.05 448.958 1489.01 448.571C1489.98 448.165 1490.85 447.546 1491.62 446.715L1493.51 448.542C1492.58 449.586 1491.45 450.379 1490.11 450.92C1488.8 451.461 1487.35 451.732 1485.76 451.732ZM1503.22 451.674C1501.91 451.674 1500.75 451.432 1499.74 450.949C1498.76 450.466 1497.98 449.731 1497.42 448.745C1496.88 447.74 1496.61 446.483 1496.61 444.975V436.13H1499.4V444.656C1499.4 446.164 1499.75 447.295 1500.47 448.049C1501.2 448.803 1502.23 449.18 1503.54 449.18C1504.51 449.18 1505.35 448.987 1506.07 448.6C1506.78 448.194 1507.33 447.614 1507.72 446.86C1508.11 446.087 1508.3 445.159 1508.3 444.076V436.13H1511.08V451.5H1508.44V447.353L1508.88 448.455C1508.38 449.48 1507.62 450.272 1506.62 450.833C1505.61 451.394 1504.48 451.674 1503.22 451.674ZM1520.79 451.674C1519.52 451.674 1518.3 451.5 1517.14 451.152C1516 450.804 1515.1 450.379 1514.44 449.876L1515.6 447.672C1516.26 448.117 1517.07 448.494 1518.04 448.803C1519 449.112 1519.99 449.267 1520.99 449.267C1522.29 449.267 1523.22 449.083 1523.78 448.716C1524.36 448.349 1524.65 447.836 1524.65 447.179C1524.65 446.696 1524.47 446.319 1524.13 446.048C1523.78 445.777 1523.31 445.574 1522.73 445.439C1522.17 445.304 1521.55 445.188 1520.85 445.091C1520.15 444.975 1519.46 444.84 1518.76 444.685C1518.07 444.511 1517.43 444.279 1516.85 443.989C1516.27 443.68 1515.8 443.264 1515.46 442.742C1515.11 442.201 1514.93 441.485 1514.93 440.596C1514.93 439.668 1515.19 438.856 1515.72 438.16C1516.24 437.464 1516.97 436.932 1517.92 436.565C1518.89 436.178 1520.03 435.985 1521.34 435.985C1522.35 435.985 1523.36 436.111 1524.39 436.362C1525.43 436.594 1526.28 436.932 1526.94 437.377L1525.75 439.581C1525.05 439.117 1524.33 438.798 1523.58 438.624C1522.82 438.45 1522.07 438.363 1521.31 438.363C1520.1 438.363 1519.19 438.566 1518.59 438.972C1517.99 439.359 1517.69 439.861 1517.69 440.48C1517.69 441.002 1517.86 441.408 1518.21 441.698C1518.58 441.969 1519.04 442.181 1519.6 442.336C1520.18 442.491 1520.82 442.626 1521.52 442.742C1522.21 442.839 1522.91 442.974 1523.6 443.148C1524.3 443.303 1524.93 443.525 1525.49 443.815C1526.07 444.105 1526.53 444.511 1526.88 445.033C1527.25 445.555 1527.43 446.251 1527.43 447.121C1527.43 448.049 1527.16 448.851 1526.62 449.528C1526.08 450.205 1525.32 450.736 1524.33 451.123C1523.34 451.49 1522.16 451.674 1520.79 451.674ZM1536.19 451.674C1534.64 451.674 1533.44 451.258 1532.59 450.427C1531.74 449.596 1531.32 448.407 1531.32 446.86V432.766H1534.1V446.744C1534.1 447.575 1534.3 448.213 1534.71 448.658C1535.14 449.103 1535.74 449.325 1536.51 449.325C1537.38 449.325 1538.1 449.083 1538.68 448.6L1539.55 450.601C1539.13 450.968 1538.62 451.239 1538.02 451.413C1537.44 451.587 1536.83 451.674 1536.19 451.674ZM1528.71 438.421V436.13H1538.51V438.421H1528.71ZM1548.99 451.674C1547.45 451.674 1546.07 451.336 1544.87 450.659C1543.68 449.982 1542.73 449.054 1542.03 447.875C1541.34 446.676 1540.99 445.323 1540.99 443.815C1540.99 442.288 1541.34 440.934 1542.03 439.755C1542.73 438.576 1543.68 437.657 1544.87 437C1546.07 436.323 1547.45 435.985 1548.99 435.985C1550.52 435.985 1551.88 436.323 1553.08 437C1554.3 437.657 1555.25 438.576 1555.92 439.755C1556.62 440.915 1556.97 442.268 1556.97 443.815C1556.97 445.342 1556.62 446.696 1555.92 447.875C1555.25 449.054 1554.3 449.982 1553.08 450.659C1551.88 451.336 1550.52 451.674 1548.99 451.674ZM1548.99 449.238C1549.98 449.238 1550.86 449.016 1551.63 448.571C1552.42 448.126 1553.04 447.498 1553.49 446.686C1553.93 445.855 1554.15 444.898 1554.15 443.815C1554.15 442.713 1553.93 441.766 1553.49 440.973C1553.04 440.161 1552.42 439.533 1551.63 439.088C1550.86 438.643 1549.98 438.421 1548.99 438.421C1548.01 438.421 1547.13 438.643 1546.35 439.088C1545.58 439.533 1544.96 440.161 1544.5 440.973C1544.03 441.766 1543.8 442.713 1543.8 443.815C1543.8 444.898 1544.03 445.855 1544.5 446.686C1544.96 447.498 1545.58 448.126 1546.35 448.571C1547.13 449.016 1548.01 449.238 1548.99 449.238ZM1580.04 435.985C1581.28 435.985 1582.37 436.227 1583.32 436.71C1584.27 437.193 1585 437.928 1585.53 438.914C1586.07 439.9 1586.34 441.147 1586.34 442.655V451.5H1583.55V442.974C1583.55 441.485 1583.21 440.364 1582.51 439.61C1581.81 438.856 1580.84 438.479 1579.58 438.479C1578.65 438.479 1577.84 438.672 1577.14 439.059C1576.45 439.446 1575.91 440.016 1575.52 440.77C1575.15 441.524 1574.97 442.462 1574.97 443.583V451.5H1572.19V442.974C1572.19 441.485 1571.84 440.364 1571.14 439.61C1570.47 438.856 1569.49 438.479 1568.21 438.479C1567.3 438.479 1566.5 438.672 1565.81 439.059C1565.11 439.446 1564.57 440.016 1564.18 440.77C1563.8 441.524 1563.6 442.462 1563.6 443.583V451.5H1560.82V436.13H1563.49V440.219L1563.05 439.175C1563.53 438.17 1564.28 437.387 1565.28 436.826C1566.29 436.265 1567.46 435.985 1568.79 435.985C1570.26 435.985 1571.53 436.352 1572.59 437.087C1573.66 437.802 1574.35 438.895 1574.68 440.364L1573.55 439.9C1574.01 438.721 1574.82 437.773 1575.98 437.058C1577.14 436.343 1578.5 435.985 1580.04 435.985ZM1598.3 451.674C1596.66 451.674 1595.21 451.336 1593.95 450.659C1592.72 449.982 1591.75 449.054 1591.05 447.875C1590.38 446.696 1590.04 445.342 1590.04 443.815C1590.04 442.288 1590.37 440.934 1591.03 439.755C1591.7 438.576 1592.62 437.657 1593.78 437C1594.96 436.323 1596.28 435.985 1597.75 435.985C1599.24 435.985 1600.56 436.314 1601.7 436.971C1602.84 437.628 1603.73 438.556 1604.37 439.755C1605.02 440.934 1605.35 442.317 1605.35 443.902C1605.35 444.018 1605.34 444.153 1605.32 444.308C1605.32 444.463 1605.31 444.608 1605.29 444.743H1592.21V442.742H1603.84L1602.71 443.438C1602.73 442.452 1602.53 441.572 1602.1 440.799C1601.68 440.026 1601.09 439.426 1600.33 439.001C1599.6 438.556 1598.74 438.334 1597.75 438.334C1596.79 438.334 1595.93 438.556 1595.17 439.001C1594.42 439.426 1593.83 440.035 1593.4 440.828C1592.98 441.601 1592.77 442.491 1592.77 443.496V443.96C1592.77 444.985 1593 445.903 1593.46 446.715C1593.94 447.508 1594.61 448.126 1595.46 448.571C1596.31 449.016 1597.29 449.238 1598.39 449.238C1599.3 449.238 1600.12 449.083 1600.86 448.774C1601.61 448.465 1602.27 448.001 1602.83 447.382L1604.37 449.18C1603.67 449.992 1602.8 450.611 1601.76 451.036C1600.73 451.461 1599.58 451.674 1598.3 451.674ZM1609.22 451.5V436.13H1611.89V440.306L1611.62 439.262C1612.05 438.199 1612.76 437.387 1613.77 436.826C1614.78 436.265 1616.01 435.985 1617.48 435.985V438.682C1617.37 438.663 1617.25 438.653 1617.13 438.653C1617.04 438.653 1616.94 438.653 1616.84 438.653C1615.36 438.653 1614.18 439.098 1613.31 439.987C1612.44 440.876 1612 442.162 1612 443.844V451.5H1609.22ZM1625.49 451.674C1624.22 451.674 1623 451.5 1621.84 451.152C1620.7 450.804 1619.8 450.379 1619.14 449.876L1620.3 447.672C1620.96 448.117 1621.77 448.494 1622.74 448.803C1623.7 449.112 1624.69 449.267 1625.69 449.267C1626.99 449.267 1627.92 449.083 1628.48 448.716C1629.06 448.349 1629.35 447.836 1629.35 447.179C1629.35 446.696 1629.17 446.319 1628.83 446.048C1628.48 445.777 1628.01 445.574 1627.43 445.439C1626.87 445.304 1626.25 445.188 1625.55 445.091C1624.85 444.975 1624.16 444.84 1623.46 444.685C1622.77 444.511 1622.13 444.279 1621.55 443.989C1620.97 443.68 1620.5 443.264 1620.16 442.742C1619.81 442.201 1619.63 441.485 1619.63 440.596C1619.63 439.668 1619.89 438.856 1620.42 438.16C1620.94 437.464 1621.67 436.932 1622.62 436.565C1623.59 436.178 1624.73 435.985 1626.04 435.985C1627.05 435.985 1628.06 436.111 1629.09 436.362C1630.13 436.594 1630.98 436.932 1631.64 437.377L1630.45 439.581C1629.75 439.117 1629.03 438.798 1628.28 438.624C1627.52 438.45 1626.77 438.363 1626.01 438.363C1624.8 438.363 1623.89 438.566 1623.29 438.972C1622.69 439.359 1622.39 439.861 1622.39 440.48C1622.39 441.002 1622.56 441.408 1622.91 441.698C1623.28 441.969 1623.74 442.181 1624.3 442.336C1624.88 442.491 1625.52 442.626 1626.22 442.742C1626.91 442.839 1627.61 442.974 1628.3 443.148C1629 443.303 1629.63 443.525 1630.19 443.815C1630.77 444.105 1631.23 444.511 1631.58 445.033C1631.95 445.555 1632.13 446.251 1632.13 447.121C1632.13 448.049 1631.86 448.851 1631.32 449.528C1630.78 450.205 1630.02 450.736 1629.03 451.123C1628.04 451.49 1626.86 451.674 1625.49 451.674Z" fill="white"/>
</svg>
