<svg width="1315" height="215" viewBox="0 0 1315 215" fill="none" xmlns="http://www.w3.org/2000/svg">
<rect x="3.5" y="3.5" width="172" height="172" rx="86" stroke="#2B0C39" stroke-width="6"/>
<path d="M111.5 138.456H56.4998V127.373H111.5V138.456ZM150 38.6673L123.957 71.6679L122.747 73.1642L91.7823 113.009C90.7603 114.039 89.547 114.855 88.2117 115.413C86.8764 115.97 85.4452 116.257 83.9998 116.257C82.5545 116.257 81.1233 115.97 79.788 115.413C78.4527 114.855 77.2394 114.039 76.2173 113.009C75.1953 111.979 74.3846 110.757 73.8315 109.411C73.2784 108.066 72.9937 106.624 72.9937 105.167C72.9937 103.711 73.2784 102.269 73.8315 100.924C74.3846 99.5781 75.1953 98.3556 76.2173 97.3259L150 38.6673ZM43.5473 56.5891C35.6012 69.4093 32.7437 84.7766 35.5448 99.6256H39.9998V94.084C39.9451 83.1731 43.1871 72.5038 49.2948 63.494L43.5473 56.5891ZM94.9998 27.584C86.5883 27.5835 78.2698 29.3568 70.5792 32.7898C62.8886 36.2228 55.9963 41.2395 50.3453 47.5174L56.6373 55.0707C64.1043 48.1541 73.8573 44.2826 83.9998 44.209C94.1975 44.2795 104.001 48.1893 111.483 55.1704L131.008 39.6427C120.611 31.8151 107.979 27.5851 94.9998 27.584ZM132.565 78.5673L131.283 80.1578L127.279 85.3115C127.75 88.2118 127.991 91.1452 128 94.084V99.6256H154.455C157.064 85.757 154.762 71.4055 147.948 59.0717L132.565 78.5673Z" fill="#2B0C39"/>
<path d="M27.191 209.5V196.141H32.6873C33.8706 196.141 34.8821 196.332 35.7218 196.713C36.5742 197.095 37.2295 197.642 37.6875 198.355C38.1455 199.067 38.3745 199.913 38.3745 200.893C38.3745 201.873 38.1455 202.719 37.6875 203.431C37.2295 204.144 36.5742 204.691 35.7218 205.072C34.8821 205.454 33.8706 205.645 32.6873 205.645H28.5651L29.672 204.481V209.5H27.191ZM29.672 204.748L28.5651 203.546H32.5728C33.667 203.546 34.4876 203.317 35.0347 202.859C35.5945 202.388 35.8745 201.733 35.8745 200.893C35.8745 200.04 35.5945 199.385 35.0347 198.927C34.4876 198.469 33.667 198.24 32.5728 198.24H28.5651L29.672 197.019V204.748ZM45.376 209.634C44.2437 209.634 43.2513 209.411 42.3988 208.966C41.5591 208.508 40.9039 207.884 40.4331 207.095C39.9751 206.307 39.7461 205.41 39.7461 204.404C39.7461 203.387 39.9687 202.49 40.414 201.713C40.8721 200.925 41.4955 200.308 42.2843 199.862C43.0859 199.417 43.9956 199.194 45.0134 199.194C46.0058 199.194 46.8901 199.411 47.6662 199.843C48.4423 200.276 49.053 200.886 49.4983 201.675C49.9436 202.464 50.1663 203.393 50.1663 204.462C50.1663 204.563 50.1599 204.678 50.1472 204.805C50.1472 204.932 50.1408 205.053 50.1281 205.168H41.6355V203.584H48.8685L47.9334 204.08C47.9461 203.495 47.8252 202.979 47.5708 202.534C47.3163 202.089 46.9664 201.739 46.5211 201.484C46.0885 201.23 45.586 201.103 45.0134 201.103C44.4282 201.103 43.9129 201.23 43.4676 201.484C43.035 201.739 42.6915 202.095 42.437 202.553C42.1953 202.999 42.0744 203.527 42.0744 204.137V204.519C42.0744 205.13 42.2144 205.67 42.4943 206.141C42.7742 206.612 43.1686 206.974 43.6775 207.229C44.1864 207.483 44.7717 207.611 45.4333 207.611C46.0058 207.611 46.5211 207.522 46.9791 207.343C47.4372 207.165 47.8443 206.885 48.2006 206.504L49.4792 207.973C49.0212 208.508 48.4423 208.921 47.7425 209.214C47.0555 209.494 46.2667 209.634 45.376 209.634ZM52.4578 209.5V199.309H54.7288V202.114L54.4617 201.294C54.767 200.607 55.2441 200.085 55.893 199.729C56.5546 199.372 57.3752 199.194 58.3549 199.194V201.465C58.2531 201.44 58.1577 201.427 58.0686 201.427C57.9796 201.414 57.8905 201.408 57.8015 201.408C56.8981 201.408 56.1793 201.675 55.6449 202.21C55.1105 202.731 54.8433 203.514 54.8433 204.557V209.5H52.4578ZM60.7962 209.5V198.736C60.7962 197.668 61.108 196.815 61.7314 196.179C62.3675 195.53 63.2709 195.206 64.4414 195.206C64.8613 195.206 65.2557 195.25 65.6246 195.339C66.0063 195.428 66.3244 195.568 66.5789 195.759L65.93 197.553C65.7519 197.413 65.5483 197.311 65.3193 197.248C65.0903 197.171 64.8549 197.133 64.6132 197.133C64.117 197.133 63.7416 197.273 63.4872 197.553C63.2327 197.82 63.1055 198.227 63.1055 198.774V199.92L63.1818 200.988V209.5H60.7962ZM59.1168 201.294V199.385H65.9109V201.294H59.1168ZM71.9479 209.634C70.9046 209.634 69.9758 209.411 69.1616 208.966C68.3473 208.508 67.7048 207.884 67.234 207.095C66.7633 206.307 66.5279 205.41 66.5279 204.404C66.5279 203.387 66.7633 202.49 67.234 201.713C67.7048 200.925 68.3473 200.308 69.1616 199.862C69.9758 199.417 70.9046 199.194 71.9479 199.194C73.0039 199.194 73.9391 199.417 74.7533 199.862C75.5803 200.308 76.2229 200.918 76.6809 201.694C77.1516 202.471 77.387 203.374 77.387 204.404C77.387 205.41 77.1516 206.307 76.6809 207.095C76.2229 207.884 75.5803 208.508 74.7533 208.966C73.9391 209.411 73.0039 209.634 71.9479 209.634ZM71.9479 207.592C72.5332 207.592 73.0548 207.464 73.5128 207.21C73.9709 206.955 74.3271 206.586 74.5816 206.103C74.8488 205.619 74.9824 205.053 74.9824 204.404C74.9824 203.743 74.8488 203.177 74.5816 202.706C74.3271 202.222 73.9709 201.853 73.5128 201.599C73.0548 201.345 72.5395 201.217 71.967 201.217C71.3817 201.217 70.8601 201.345 70.4021 201.599C69.9568 201.853 69.6005 202.222 69.3333 202.706C69.0661 203.177 68.9325 203.743 68.9325 204.404C68.9325 205.053 69.0661 205.619 69.3333 206.103C69.6005 206.586 69.9568 206.955 70.4021 207.21C70.8601 207.464 71.3754 207.592 71.9479 207.592ZM79.6682 209.5V199.309H81.9393V202.114L81.6721 201.294C81.9775 200.607 82.4546 200.085 83.1035 199.729C83.765 199.372 84.5857 199.194 85.5654 199.194V201.465C85.4636 201.44 85.3682 201.427 85.2791 201.427C85.19 201.414 85.101 201.408 85.0119 201.408C84.1086 201.408 83.3897 201.675 82.8554 202.21C82.321 202.731 82.0538 203.514 82.0538 204.557V209.5H79.6682ZM100.452 199.194C101.266 199.194 101.985 199.353 102.609 199.671C103.245 199.99 103.741 200.479 104.097 201.141C104.453 201.79 104.632 202.63 104.632 203.66V209.5H102.246V203.965C102.246 203.062 102.049 202.388 101.654 201.943C101.26 201.497 100.694 201.275 99.9559 201.275C99.4342 201.275 98.9699 201.389 98.5627 201.618C98.1683 201.847 97.8566 202.184 97.6276 202.63C97.4113 203.075 97.3031 203.641 97.3031 204.328V209.5H94.9176V203.965C94.9176 203.062 94.7204 202.388 94.3259 201.943C93.9315 201.497 93.3653 201.275 92.6274 201.275C92.1058 201.275 91.6414 201.389 91.2342 201.618C90.8398 201.847 90.5281 202.184 90.2991 202.63C90.0828 203.075 89.9747 203.641 89.9747 204.328V209.5H87.5891V199.309H89.8601V202.019L89.4594 201.217C89.8029 200.556 90.2991 200.053 90.948 199.71C91.6096 199.366 92.3602 199.194 93.1999 199.194C94.1542 199.194 94.9812 199.43 95.6809 199.9C96.3934 200.371 96.8642 201.084 97.0932 202.038L96.1581 201.713C96.4889 200.95 97.036 200.339 97.7993 199.881C98.5627 199.423 99.447 199.194 100.452 199.194ZM113.959 209.5V207.439L113.825 207V203.393C113.825 202.693 113.615 202.152 113.196 201.771C112.776 201.376 112.14 201.179 111.287 201.179C110.715 201.179 110.148 201.268 109.589 201.446C109.041 201.624 108.577 201.873 108.195 202.191L107.26 200.454C107.807 200.034 108.456 199.722 109.207 199.519C109.97 199.302 110.759 199.194 111.573 199.194C113.049 199.194 114.188 199.551 114.989 200.263C115.804 200.963 116.211 202.051 116.211 203.527V209.5H113.959ZM110.753 209.634C109.989 209.634 109.321 209.506 108.749 209.252C108.176 208.985 107.731 208.622 107.413 208.164C107.108 207.693 106.955 207.165 106.955 206.58C106.955 206.008 107.088 205.492 107.356 205.034C107.636 204.576 108.087 204.214 108.711 203.946C109.334 203.679 110.161 203.546 111.192 203.546H114.15V205.13H111.363C110.549 205.13 110.002 205.263 109.722 205.53C109.442 205.785 109.302 206.103 109.302 206.485C109.302 206.917 109.474 207.261 109.818 207.515C110.161 207.77 110.638 207.897 111.249 207.897C111.834 207.897 112.356 207.763 112.814 207.496C113.285 207.229 113.622 206.835 113.825 206.313L114.226 207.744C113.997 208.342 113.584 208.807 112.986 209.137C112.4 209.468 111.656 209.634 110.753 209.634ZM125.055 199.194C125.869 199.194 126.595 199.353 127.231 199.671C127.88 199.99 128.389 200.479 128.758 201.141C129.126 201.79 129.311 202.63 129.311 203.66V209.5H126.925V203.965C126.925 203.062 126.709 202.388 126.277 201.943C125.857 201.497 125.265 201.275 124.502 201.275C123.942 201.275 123.446 201.389 123.013 201.618C122.58 201.847 122.243 202.191 122.002 202.649C121.773 203.094 121.658 203.66 121.658 204.347V209.5H119.272V199.309H121.544V202.057L121.143 201.217C121.499 200.568 122.014 200.072 122.689 199.729C123.376 199.372 124.165 199.194 125.055 199.194ZM137.032 209.634C135.963 209.634 135.009 209.411 134.169 208.966C133.342 208.508 132.693 207.884 132.222 207.095C131.752 206.307 131.516 205.41 131.516 204.404C131.516 203.387 131.752 202.49 132.222 201.713C132.693 200.925 133.342 200.308 134.169 199.862C135.009 199.417 135.963 199.194 137.032 199.194C138.024 199.194 138.896 199.398 139.646 199.805C140.41 200.199 140.988 200.785 141.383 201.561L139.551 202.63C139.245 202.146 138.87 201.79 138.425 201.561C137.992 201.332 137.521 201.217 137.013 201.217C136.427 201.217 135.899 201.345 135.428 201.599C134.958 201.853 134.589 202.222 134.322 202.706C134.054 203.177 133.921 203.743 133.921 204.404C133.921 205.066 134.054 205.639 134.322 206.122C134.589 206.593 134.958 206.955 135.428 207.21C135.899 207.464 136.427 207.592 137.013 207.592C137.521 207.592 137.992 207.477 138.425 207.248C138.87 207.019 139.245 206.663 139.551 206.179L141.383 207.248C140.988 208.011 140.41 208.603 139.646 209.023C138.896 209.43 138.024 209.634 137.032 209.634ZM148.086 209.634C146.954 209.634 145.961 209.411 145.109 208.966C144.269 208.508 143.614 207.884 143.143 207.095C142.685 206.307 142.456 205.41 142.456 204.404C142.456 203.387 142.679 202.49 143.124 201.713C143.582 200.925 144.206 200.308 144.994 199.862C145.796 199.417 146.706 199.194 147.724 199.194C148.716 199.194 149.6 199.411 150.376 199.843C151.152 200.276 151.763 200.886 152.208 201.675C152.654 202.464 152.876 203.393 152.876 204.462C152.876 204.563 152.87 204.678 152.857 204.805C152.857 204.932 152.851 205.053 152.838 205.168H144.346V203.584H151.579L150.644 204.08C150.656 203.495 150.535 202.979 150.281 202.534C150.026 202.089 149.677 201.739 149.231 201.484C148.799 201.23 148.296 201.103 147.724 201.103C147.138 201.103 146.623 201.23 146.178 201.484C145.745 201.739 145.402 202.095 145.147 202.553C144.905 202.999 144.785 203.527 144.785 204.137V204.519C144.785 205.13 144.925 205.67 145.204 206.141C145.484 206.612 145.879 206.974 146.388 207.229C146.897 207.483 147.482 207.611 148.143 207.611C148.716 207.611 149.231 207.522 149.689 207.343C150.147 207.165 150.554 206.885 150.911 206.504L152.189 207.973C151.731 208.508 151.152 208.921 150.453 209.214C149.766 209.494 148.977 209.634 148.086 209.634Z" fill="#2B0C39"/>
<rect x="287.5" y="3.5" width="172" height="172" rx="86" stroke="#2B0C39" stroke-width="6"/>
<path d="M421.593 80.9225C421.659 80.4819 421.63 80.0324 421.509 79.6039C421.388 79.1755 421.177 78.778 420.891 78.4382C420.605 78.0984 420.251 77.824 419.851 77.6334C419.451 77.4429 419.015 77.3406 418.573 77.3333H403.71V70.3983C408.296 69.2056 412.434 66.6857 415.612 63.1502C418.79 59.6147 420.87 55.2187 421.593 50.5058C421.659 50.0653 421.63 49.6157 421.509 49.1873C421.388 48.7588 421.177 48.3614 420.891 48.0215C420.605 47.6817 420.251 47.4073 419.851 47.2168C419.451 47.0262 419.015 46.9239 418.573 46.9167H403.71V40.8333C403.71 37.4875 400.991 34.75 397.668 34.75H349.335C346.012 34.75 343.293 37.4875 343.293 40.8333V46.9167H328.431C326.558 46.9167 325.168 48.62 325.41 50.5058C326.134 55.2187 328.213 59.6147 331.392 63.1502C334.57 66.6857 338.708 69.2056 343.293 70.3983V77.3333H328.431C326.558 77.3333 325.168 79.0367 325.41 80.9225C326.134 85.6354 328.213 90.0314 331.392 93.5669C334.57 97.1023 338.708 99.6223 343.293 100.815V107.75H328.431C326.558 107.75 325.168 109.453 325.41 111.339C326.134 116.052 328.213 120.448 331.392 123.984C334.57 127.519 338.708 130.039 343.293 131.232V138.167C343.293 141.513 346.012 144.25 349.335 144.25H397.668C400.991 144.25 403.71 141.513 403.71 138.167V131.232C408.296 130.039 412.434 127.519 415.612 123.984C418.79 120.448 420.87 116.052 421.593 111.339C421.659 110.899 421.63 110.449 421.509 110.021C421.388 109.592 421.177 109.195 420.891 108.855C420.605 108.515 420.251 108.241 419.851 108.05C419.451 107.86 419.015 107.757 418.573 107.75H403.71V100.815C408.296 99.6223 412.434 97.1023 415.612 93.5669C418.79 90.0314 420.87 85.6354 421.593 80.9225ZM373.502 132.083C371.893 132.12 370.292 131.833 368.795 131.238C367.298 130.643 365.934 129.753 364.783 128.621C363.632 127.488 362.717 126.135 362.092 124.641C361.468 123.148 361.146 121.543 361.145 119.923C361.145 118.302 361.466 116.698 362.09 115.204C362.714 113.71 363.628 112.357 364.778 111.223C365.929 110.09 367.293 109.199 368.79 108.604C370.287 108.008 371.887 107.72 373.496 107.756C376.653 107.826 379.657 109.138 381.866 111.411C384.074 113.684 385.311 116.737 385.312 119.917C385.313 123.096 384.077 126.15 381.87 128.424C379.663 130.698 376.659 132.011 373.502 132.083ZM373.502 101.667C371.893 101.703 370.292 101.416 368.795 100.821C367.298 100.227 365.934 99.3368 364.783 98.204C363.632 97.0712 362.717 95.7183 362.092 94.2247C361.468 92.731 361.146 91.1268 361.145 89.5061C361.145 87.8855 361.466 86.2811 362.09 84.7872C362.714 83.2932 363.628 81.9398 364.778 80.8065C365.929 79.6731 367.293 78.7826 368.79 78.1872C370.287 77.5918 371.887 77.3036 373.496 77.3394C376.653 77.4097 379.657 78.7217 381.866 80.9945C384.074 83.2673 385.311 86.3204 385.312 89.5001C385.313 92.6798 384.077 95.7334 381.87 98.0073C379.663 100.281 376.659 101.595 373.502 101.667ZM373.502 71.25C370.297 71.25 367.224 69.9682 364.958 67.6865C362.692 65.4048 361.418 62.3101 361.418 59.0833C361.418 52.3308 366.796 46.9167 373.502 46.9167C376.707 46.9167 379.78 48.1985 382.046 50.4802C384.312 52.7619 385.585 55.8565 385.585 59.0833C385.585 62.3101 384.312 65.4048 382.046 67.6865C379.78 69.9682 376.707 71.25 373.502 71.25Z" fill="#2B0C39"/>
<path d="M304.703 209.5V198.24H300.276V196.141H311.612V198.24H307.184V209.5H304.703ZM313.003 209.5V199.309H315.274V202.114L315.007 201.294C315.312 200.607 315.789 200.085 316.438 199.729C317.1 199.372 317.92 199.194 318.9 199.194V201.465C318.798 201.44 318.703 201.427 318.614 201.427C318.525 201.414 318.435 201.408 318.346 201.408C317.443 201.408 316.724 201.675 316.19 202.21C315.655 202.731 315.388 203.514 315.388 204.557V209.5H313.003ZM326.476 209.5V207.439L326.342 207V203.393C326.342 202.693 326.132 202.152 325.712 201.771C325.292 201.376 324.656 201.179 323.804 201.179C323.231 201.179 322.665 201.268 322.105 201.446C321.558 201.624 321.094 201.873 320.712 202.191L319.777 200.454C320.324 200.034 320.973 199.722 321.724 199.519C322.487 199.302 323.276 199.194 324.09 199.194C325.566 199.194 326.705 199.551 327.506 200.263C328.32 200.963 328.728 202.051 328.728 203.527V209.5H326.476ZM323.269 209.634C322.506 209.634 321.838 209.506 321.265 209.252C320.693 208.985 320.248 208.622 319.93 208.164C319.624 207.693 319.472 207.165 319.472 206.58C319.472 206.008 319.605 205.492 319.872 205.034C320.152 204.576 320.604 204.214 321.227 203.946C321.851 203.679 322.678 203.546 323.708 203.546H326.666V205.13H323.88C323.066 205.13 322.519 205.263 322.239 205.53C321.959 205.785 321.819 206.103 321.819 206.485C321.819 206.917 321.991 207.261 322.334 207.515C322.678 207.77 323.155 207.897 323.766 207.897C324.351 207.897 324.872 207.763 325.33 207.496C325.801 207.229 326.138 206.835 326.342 206.313L326.743 207.744C326.514 208.342 326.1 208.807 325.502 209.137C324.917 209.468 324.173 209.634 323.269 209.634ZM332.114 209.5V198.736C332.114 197.668 332.425 196.815 333.049 196.179C333.685 195.53 334.588 195.206 335.759 195.206C336.179 195.206 336.573 195.25 336.942 195.339C337.324 195.428 337.642 195.568 337.896 195.759L337.247 197.553C337.069 197.413 336.866 197.311 336.637 197.248C336.408 197.171 336.172 197.133 335.93 197.133C335.434 197.133 335.059 197.273 334.804 197.553C334.55 197.82 334.423 198.227 334.423 198.774V199.92L334.499 200.988V209.5H332.114ZM330.434 201.294V199.385H337.228V201.294H330.434ZM339.158 209.5V198.736C339.158 197.668 339.47 196.815 340.094 196.179C340.73 195.53 341.633 195.206 342.804 195.206C343.223 195.206 343.618 195.25 343.987 195.339C344.369 195.428 344.687 195.568 344.941 195.759L344.292 197.553C344.114 197.413 343.911 197.311 343.682 197.248C343.453 197.171 343.217 197.133 342.975 197.133C342.479 197.133 342.104 197.273 341.849 197.553C341.595 197.82 341.468 198.227 341.468 198.774V199.92L341.544 200.988V209.5H339.158ZM337.479 201.294V199.385H344.273V201.294H337.479ZM345.953 209.5V199.309H348.338V209.5H345.953ZM347.155 197.629C346.71 197.629 346.341 197.489 346.048 197.21C345.768 196.93 345.628 196.592 345.628 196.198C345.628 195.791 345.768 195.454 346.048 195.187C346.341 194.907 346.71 194.767 347.155 194.767C347.6 194.767 347.963 194.9 348.243 195.167C348.535 195.422 348.682 195.746 348.682 196.141C348.682 196.561 348.542 196.917 348.262 197.21C347.982 197.489 347.613 197.629 347.155 197.629ZM356.146 209.634C355.077 209.634 354.123 209.411 353.283 208.966C352.456 208.508 351.807 207.884 351.337 207.095C350.866 206.307 350.63 205.41 350.63 204.404C350.63 203.387 350.866 202.49 351.337 201.713C351.807 200.925 352.456 200.308 353.283 199.862C354.123 199.417 355.077 199.194 356.146 199.194C357.138 199.194 358.01 199.398 358.76 199.805C359.524 200.199 360.103 200.785 360.497 201.561L358.665 202.63C358.36 202.146 357.984 201.79 357.539 201.561C357.106 201.332 356.636 201.217 356.127 201.217C355.541 201.217 355.013 201.345 354.543 201.599C354.072 201.853 353.703 202.222 353.436 202.706C353.169 203.177 353.035 203.743 353.035 204.404C353.035 205.066 353.169 205.639 353.436 206.122C353.703 206.593 354.072 206.955 354.543 207.21C355.013 207.464 355.541 207.592 356.127 207.592C356.636 207.592 357.106 207.477 357.539 207.248C357.984 207.019 358.36 206.663 358.665 206.179L360.497 207.248C360.103 208.011 359.524 208.603 358.76 209.023C358.01 209.43 357.138 209.634 356.146 209.634ZM366.173 209.5L372.185 196.141H374.628L380.659 209.5H378.063L372.891 197.458H373.883L368.731 209.5H366.173ZM368.941 206.408L369.609 204.462H376.823L377.49 206.408H368.941ZM387.911 199.194C388.725 199.194 389.451 199.353 390.087 199.671C390.736 199.99 391.245 200.479 391.614 201.141C391.982 201.79 392.167 202.63 392.167 203.66V209.5H389.781V203.965C389.781 203.062 389.565 202.388 389.133 201.943C388.713 201.497 388.121 201.275 387.358 201.275C386.798 201.275 386.302 201.389 385.869 201.618C385.436 201.847 385.099 202.191 384.858 202.649C384.629 203.094 384.514 203.66 384.514 204.347V209.5H382.128V199.309H384.4V202.057L383.999 201.217C384.355 200.568 384.87 200.072 385.545 199.729C386.232 199.372 387.02 199.194 387.911 199.194ZM401.472 209.5V207.439L401.338 207V203.393C401.338 202.693 401.129 202.152 400.709 201.771C400.289 201.376 399.653 201.179 398.8 201.179C398.228 201.179 397.661 201.268 397.102 201.446C396.555 201.624 396.09 201.873 395.709 202.191L394.773 200.454C395.32 200.034 395.969 199.722 396.72 199.519C397.483 199.302 398.272 199.194 399.086 199.194C400.562 199.194 401.701 199.551 402.503 200.263C403.317 200.963 403.724 202.051 403.724 203.527V209.5H401.472ZM398.266 209.634C397.502 209.634 396.834 209.506 396.262 209.252C395.689 208.985 395.244 208.622 394.926 208.164C394.621 207.693 394.468 207.165 394.468 206.58C394.468 206.008 394.602 205.492 394.869 205.034C395.149 204.576 395.6 204.214 396.224 203.946C396.847 203.679 397.674 203.546 398.705 203.546H401.663V205.13H398.877C398.062 205.13 397.515 205.263 397.235 205.53C396.955 205.785 396.815 206.103 396.815 206.485C396.815 206.917 396.987 207.261 397.331 207.515C397.674 207.77 398.151 207.897 398.762 207.897C399.347 207.897 399.869 207.763 400.327 207.496C400.798 207.229 401.135 206.835 401.338 206.313L401.739 207.744C401.51 208.342 401.097 208.807 400.499 209.137C399.913 209.468 399.169 209.634 398.266 209.634ZM406.786 209.5V195.339H409.171V209.5H406.786ZM413.142 213.336C412.646 213.336 412.15 213.253 411.653 213.088C411.157 212.923 410.744 212.693 410.413 212.401L411.367 210.645C411.609 210.861 411.882 211.033 412.188 211.16C412.493 211.288 412.805 211.351 413.123 211.351C413.555 211.351 413.905 211.243 414.173 211.027C414.44 210.81 414.688 210.448 414.917 209.939L415.508 208.603L415.699 208.317L419.554 199.309H421.845L417.073 210.321C416.755 211.084 416.399 211.688 416.005 212.134C415.623 212.579 415.19 212.891 414.707 213.069C414.236 213.247 413.715 213.336 413.142 213.336ZM415.241 209.863L410.642 199.309H413.123L416.863 208.107L415.241 209.863ZM426.354 209.634C425.502 209.634 424.681 209.525 423.892 209.309C423.116 209.08 422.499 208.807 422.041 208.489L422.957 206.675C423.415 206.968 423.962 207.21 424.598 207.401C425.234 207.592 425.871 207.687 426.507 207.687C427.257 207.687 427.798 207.585 428.129 207.382C428.472 207.178 428.644 206.904 428.644 206.561C428.644 206.281 428.53 206.071 428.301 205.931C428.072 205.779 427.773 205.664 427.404 205.588C427.035 205.511 426.621 205.441 426.163 205.378C425.718 205.314 425.266 205.231 424.808 205.13C424.363 205.015 423.956 204.856 423.587 204.653C423.218 204.436 422.919 204.15 422.69 203.794C422.461 203.437 422.346 202.967 422.346 202.381C422.346 201.733 422.531 201.173 422.9 200.702C423.269 200.219 423.784 199.85 424.446 199.595C425.12 199.328 425.915 199.194 426.831 199.194C427.518 199.194 428.212 199.271 428.911 199.423C429.611 199.576 430.19 199.792 430.648 200.072L429.732 201.885C429.249 201.593 428.759 201.395 428.262 201.294C427.779 201.179 427.296 201.122 426.812 201.122C426.087 201.122 425.546 201.23 425.19 201.446C424.846 201.663 424.675 201.936 424.675 202.267C424.675 202.572 424.789 202.801 425.018 202.954C425.247 203.107 425.546 203.228 425.915 203.317C426.284 203.406 426.691 203.482 427.136 203.546C427.595 203.596 428.046 203.679 428.492 203.794C428.937 203.908 429.344 204.067 429.713 204.271C430.095 204.462 430.4 204.735 430.629 205.091C430.858 205.448 430.973 205.912 430.973 206.485C430.973 207.121 430.782 207.674 430.4 208.145C430.031 208.616 429.503 208.985 428.816 209.252C428.129 209.506 427.308 209.634 426.354 209.634ZM433.027 209.5V199.309H435.413V209.5H433.027ZM434.229 197.629C433.784 197.629 433.415 197.489 433.122 197.21C432.842 196.93 432.702 196.592 432.702 196.198C432.702 195.791 432.842 195.454 433.122 195.187C433.415 194.907 433.784 194.767 434.229 194.767C434.675 194.767 435.037 194.9 435.317 195.167C435.61 195.422 435.756 195.746 435.756 196.141C435.756 196.561 435.616 196.917 435.336 197.21C435.056 197.489 434.687 197.629 434.229 197.629ZM441.693 209.634C440.84 209.634 440.019 209.525 439.231 209.309C438.455 209.08 437.837 208.807 437.379 208.489L438.295 206.675C438.754 206.968 439.301 207.21 439.937 207.401C440.573 207.592 441.209 207.687 441.845 207.687C442.596 207.687 443.137 207.585 443.467 207.382C443.811 207.178 443.983 206.904 443.983 206.561C443.983 206.281 443.868 206.071 443.639 205.931C443.41 205.779 443.111 205.664 442.742 205.588C442.373 205.511 441.96 205.441 441.502 205.378C441.056 205.314 440.605 205.231 440.147 205.13C439.701 205.015 439.294 204.856 438.925 204.653C438.556 204.436 438.257 204.15 438.028 203.794C437.799 203.437 437.685 202.967 437.685 202.381C437.685 201.733 437.869 201.173 438.238 200.702C438.607 200.219 439.122 199.85 439.784 199.595C440.458 199.328 441.254 199.194 442.17 199.194C442.857 199.194 443.55 199.271 444.25 199.423C444.95 199.576 445.529 199.792 445.987 200.072L445.071 201.885C444.587 201.593 444.097 201.395 443.601 201.294C443.118 201.179 442.634 201.122 442.151 201.122C441.425 201.122 440.885 201.23 440.528 201.446C440.185 201.663 440.013 201.936 440.013 202.267C440.013 202.572 440.128 202.801 440.357 202.954C440.586 203.107 440.885 203.228 441.254 203.317C441.623 203.406 442.03 203.482 442.475 203.546C442.933 203.596 443.385 203.679 443.83 203.794C444.275 203.908 444.682 204.067 445.051 204.271C445.433 204.462 445.738 204.735 445.967 205.091C446.196 205.448 446.311 205.912 446.311 206.485C446.311 207.121 446.12 207.674 445.738 208.145C445.369 208.616 444.841 208.985 444.154 209.252C443.467 209.506 442.647 209.634 441.693 209.634Z" fill="#2B0C39"/>
<rect x="571.5" y="3.5" width="172" height="172" rx="86" stroke="#2B0C39" stroke-width="6"/>
<path d="M641.847 29.2874C637.475 29.2384 633.136 30.0493 629.083 31.6733C625.029 33.2973 621.341 35.702 618.232 38.7482C615.123 41.7944 612.655 45.4216 610.97 49.4197C609.285 53.4177 608.418 57.7072 608.418 62.0398C608.418 66.3724 609.285 70.6619 610.97 74.6599C612.655 78.658 615.123 82.2852 618.232 85.3314C621.341 88.3776 625.029 90.7823 629.083 92.4063C633.136 94.0303 637.475 94.8412 641.847 94.7922C650.614 94.7922 659.021 91.3413 665.22 85.1986C671.419 79.056 674.902 70.7247 674.902 62.0377C674.902 53.3507 671.419 45.0194 665.22 38.8768C659.021 32.7341 650.614 29.2874 641.847 29.2874ZM631.27 40.6779C632.712 40.6751 634.141 40.9547 635.474 41.5005C636.807 42.0463 638.018 42.8476 639.038 43.8584C640.058 44.8692 640.866 46.0696 641.416 47.3908C641.966 48.7119 642.248 50.1277 642.245 51.5569C642.249 52.9861 641.967 54.402 641.417 55.7231C640.867 57.0443 640.059 58.2447 639.039 59.2552C638.019 60.2658 636.808 61.0667 635.474 61.6119C634.141 62.157 632.712 62.4357 631.27 62.4318C629.828 62.4357 628.399 62.157 627.066 61.6119C625.732 61.0667 624.521 60.2658 623.501 59.2552C622.481 58.2447 621.673 57.0443 621.123 55.7231C620.573 54.402 620.291 52.9861 620.295 51.5569C620.293 50.1281 620.575 48.7127 621.125 47.392C621.676 46.0714 622.484 44.8715 623.504 43.8611C624.523 42.8507 625.734 42.0498 627.067 41.5043C628.4 40.9587 629.828 40.6751 631.27 40.6779ZM678.206 77.2306C677.045 79.9195 675.581 82.4693 673.84 84.8313L706.895 117.582C707.59 118.28 707.98 119.221 707.98 120.202C707.98 121.182 707.59 122.124 706.895 122.822C706.189 123.509 705.24 123.893 704.251 123.893C703.262 123.893 702.312 123.509 701.607 122.822L668.949 90.3316C664.825 94.2031 659.911 97.1536 654.539 98.9845V104.749C654.539 106.594 656.109 108.153 657.979 108.153H667.232V117.326C667.232 119.17 668.801 120.73 670.671 120.73H679.924V129.903C679.924 131.747 681.498 133.307 683.363 133.307H692.747L695.129 135.667C696.576 137.097 711.071 137.814 714.697 134.225C718.322 130.628 717.59 116.265 716.148 114.836L678.206 77.2306Z" fill="#2B0C39"/>
<path d="M623.272 209.691C622.229 209.691 621.23 209.545 620.276 209.252C619.321 208.947 618.564 208.558 618.005 208.088L618.863 206.16C619.398 206.58 620.059 206.93 620.848 207.21C621.637 207.49 622.445 207.63 623.272 207.63C623.972 207.63 624.538 207.553 624.97 207.401C625.403 207.248 625.721 207.044 625.925 206.79C626.128 206.523 626.23 206.224 626.23 205.893C626.23 205.486 626.084 205.161 625.791 204.92C625.498 204.665 625.117 204.468 624.646 204.328C624.188 204.175 623.673 204.035 623.1 203.908C622.54 203.781 621.974 203.635 621.402 203.469C620.842 203.291 620.327 203.068 619.856 202.801C619.398 202.521 619.022 202.152 618.73 201.694C618.437 201.236 618.291 200.651 618.291 199.939C618.291 199.213 618.482 198.552 618.863 197.954C619.258 197.343 619.849 196.86 620.638 196.503C621.44 196.134 622.451 195.95 623.673 195.95C624.474 195.95 625.269 196.052 626.058 196.255C626.847 196.459 627.534 196.751 628.119 197.133L627.337 199.061C626.739 198.704 626.122 198.444 625.486 198.278C624.85 198.1 624.239 198.011 623.654 198.011C622.967 198.011 622.407 198.094 621.974 198.259C621.554 198.425 621.243 198.641 621.039 198.908C620.848 199.175 620.753 199.481 620.753 199.824C620.753 200.231 620.893 200.562 621.173 200.817C621.465 201.058 621.841 201.249 622.299 201.389C622.769 201.529 623.291 201.669 623.864 201.809C624.436 201.936 625.002 202.082 625.562 202.248C626.135 202.413 626.65 202.63 627.108 202.897C627.579 203.164 627.954 203.527 628.234 203.985C628.527 204.443 628.673 205.021 628.673 205.721C628.673 206.434 628.476 207.095 628.081 207.706C627.7 208.304 627.108 208.788 626.306 209.156C625.505 209.513 624.493 209.691 623.272 209.691ZM635.694 209.634C634.562 209.634 633.569 209.411 632.717 208.966C631.877 208.508 631.222 207.884 630.751 207.095C630.293 206.307 630.064 205.41 630.064 204.404C630.064 203.387 630.287 202.49 630.732 201.713C631.19 200.925 631.814 200.308 632.603 199.862C633.404 199.417 634.314 199.194 635.332 199.194C636.324 199.194 637.208 199.411 637.984 199.843C638.76 200.276 639.371 200.886 639.816 201.675C640.262 202.464 640.484 203.393 640.484 204.462C640.484 204.563 640.478 204.678 640.465 204.805C640.465 204.932 640.459 205.053 640.446 205.168H631.954V203.584H639.187L638.252 204.08C638.264 203.495 638.143 202.979 637.889 202.534C637.634 202.089 637.285 201.739 636.839 201.484C636.407 201.23 635.904 201.103 635.332 201.103C634.746 201.103 634.231 201.23 633.786 201.484C633.353 201.739 633.01 202.095 632.755 202.553C632.513 202.999 632.393 203.527 632.393 204.137V204.519C632.393 205.13 632.533 205.67 632.812 206.141C633.092 206.612 633.487 206.974 633.996 207.229C634.505 207.483 635.09 207.611 635.751 207.611C636.324 207.611 636.839 207.522 637.297 207.343C637.755 207.165 638.162 206.885 638.519 206.504L639.797 207.973C639.339 208.508 638.76 208.921 638.061 209.214C637.374 209.494 636.585 209.634 635.694 209.634ZM647.452 209.634C646.383 209.634 645.429 209.411 644.589 208.966C643.762 208.508 643.113 207.884 642.642 207.095C642.172 206.307 641.936 205.41 641.936 204.404C641.936 203.387 642.172 202.49 642.642 201.713C643.113 200.925 643.762 200.308 644.589 199.862C645.429 199.417 646.383 199.194 647.452 199.194C648.444 199.194 649.316 199.398 650.066 199.805C650.83 200.199 651.409 200.785 651.803 201.561L649.971 202.63C649.665 202.146 649.29 201.79 648.845 201.561C648.412 201.332 647.941 201.217 647.433 201.217C646.847 201.217 646.319 201.345 645.849 201.599C645.378 201.853 645.009 202.222 644.742 202.706C644.474 203.177 644.341 203.743 644.341 204.404C644.341 205.066 644.474 205.639 644.742 206.122C645.009 206.593 645.378 206.955 645.849 207.21C646.319 207.464 646.847 207.592 647.433 207.592C647.941 207.592 648.412 207.477 648.845 207.248C649.29 207.019 649.665 206.663 649.971 206.179L651.803 207.248C651.409 208.011 650.83 208.603 650.066 209.023C649.316 209.43 648.444 209.634 647.452 209.634ZM658.178 209.634C657.313 209.634 656.55 209.475 655.888 209.156C655.226 208.826 654.711 208.329 654.342 207.668C653.973 206.994 653.789 206.147 653.789 205.13V199.309H656.174V204.805C656.174 205.721 656.378 206.408 656.785 206.866C657.205 207.312 657.797 207.534 658.56 207.534C659.12 207.534 659.603 207.42 660.01 207.191C660.43 206.962 660.755 206.618 660.984 206.16C661.225 205.702 661.346 205.136 661.346 204.462V199.309H663.732V209.5H661.461V206.752L661.862 207.592C661.518 208.253 661.015 208.762 660.354 209.118C659.692 209.462 658.967 209.634 658.178 209.634ZM666.855 209.5V199.309H669.126V202.114L668.859 201.294C669.165 200.607 669.642 200.085 670.291 199.729C670.952 199.372 671.773 199.194 672.752 199.194V201.465C672.651 201.44 672.555 201.427 672.466 201.427C672.377 201.414 672.288 201.408 672.199 201.408C671.296 201.408 670.577 201.675 670.042 202.21C669.508 202.731 669.241 203.514 669.241 204.557V209.5H666.855ZM674.776 209.5V199.309H677.162V209.5H674.776ZM675.979 197.629C675.533 197.629 675.164 197.489 674.872 197.21C674.592 196.93 674.452 196.592 674.452 196.198C674.452 195.791 674.592 195.454 674.872 195.187C675.164 194.907 675.533 194.767 675.979 194.767C676.424 194.767 676.786 194.9 677.066 195.167C677.359 195.422 677.505 195.746 677.505 196.141C677.505 196.561 677.365 196.917 677.085 197.21C676.806 197.489 676.437 197.629 675.979 197.629ZM684.129 209.634C683.009 209.634 682.144 209.347 681.533 208.775C680.923 208.19 680.617 207.331 680.617 206.198V197.057H683.003V206.141C683.003 206.625 683.124 207 683.365 207.267C683.62 207.534 683.97 207.668 684.415 207.668C684.949 207.668 685.395 207.528 685.751 207.248L686.419 208.947C686.139 209.176 685.796 209.347 685.388 209.462C684.981 209.576 684.561 209.634 684.129 209.634ZM678.938 201.294V199.385H685.732V201.294H678.938ZM689.035 213.336C688.539 213.336 688.042 213.253 687.546 213.088C687.05 212.923 686.636 212.693 686.306 212.401L687.26 210.645C687.502 210.861 687.775 211.033 688.081 211.16C688.386 211.288 688.698 211.351 689.016 211.351C689.448 211.351 689.798 211.243 690.065 211.027C690.333 210.81 690.581 210.448 690.81 209.939L691.401 208.603L691.592 208.317L695.447 199.309H697.737L692.966 210.321C692.648 211.084 692.292 211.688 691.897 212.134C691.516 212.579 691.083 212.891 690.6 213.069C690.129 213.247 689.607 213.336 689.035 213.336ZM691.134 209.863L686.535 199.309H689.016L692.756 208.107L691.134 209.863Z" fill="#2B0C39"/>
<rect x="855.5" y="3.5" width="172" height="172" rx="86" stroke="#2B0C39" stroke-width="6"/>
<path d="M902.125 134.5L915.698 120.927M915.698 120.927C918.019 123.248 920.775 125.09 923.808 126.346C926.841 127.602 930.092 128.249 933.375 128.249C936.658 128.249 939.908 127.602 942.941 126.346C945.974 125.09 948.73 123.248 951.051 120.927C953.373 118.606 955.214 115.85 956.47 112.817C957.727 109.784 958.373 106.533 958.373 103.25C958.373 99.9675 957.727 96.7169 956.47 93.6839C955.214 90.651 953.373 87.8951 951.051 85.5738C946.363 80.8857 940.005 78.252 933.375 78.252C926.745 78.252 920.386 80.8857 915.698 85.5738C911.01 90.2619 908.376 96.6204 908.376 103.25C908.376 109.88 911.01 116.239 915.698 120.927Z" stroke="#2B0C39" stroke-width="10" stroke-linecap="round" stroke-linejoin="round"/>
<path d="M890.875 107.432C887.18 101.066 885.239 93.8345 885.25 86.4737C885.25 63.2931 904.139 44.5 927.438 44.5H955.563C978.861 44.5 997.75 63.2931 997.75 86.4737C997.75 104.755 986.011 120.302 969.625 126.062" stroke="#2B0C39" stroke-width="10" stroke-linecap="round" stroke-linejoin="round"/>
<path d="M927.009 209.691C925.966 209.691 924.967 209.545 924.013 209.252C923.058 208.947 922.301 208.558 921.741 208.088L922.6 206.16C923.135 206.58 923.796 206.93 924.585 207.21C925.374 207.49 926.182 207.63 927.009 207.63C927.709 207.63 928.275 207.553 928.707 207.401C929.14 207.248 929.458 207.044 929.662 206.79C929.865 206.523 929.967 206.224 929.967 205.893C929.967 205.486 929.821 205.161 929.528 204.92C929.235 204.665 928.854 204.468 928.383 204.328C927.925 204.175 927.41 204.035 926.837 203.908C926.277 203.781 925.711 203.635 925.139 203.469C924.579 203.291 924.063 203.068 923.593 202.801C923.135 202.521 922.759 202.152 922.467 201.694C922.174 201.236 922.028 200.651 922.028 199.939C922.028 199.213 922.219 198.552 922.6 197.954C922.995 197.343 923.586 196.86 924.375 196.503C925.177 196.134 926.188 195.95 927.41 195.95C928.211 195.95 929.006 196.052 929.795 196.255C930.584 196.459 931.271 196.751 931.856 197.133L931.074 199.061C930.476 198.704 929.859 198.444 929.223 198.278C928.586 198.1 927.976 198.011 927.391 198.011C926.703 198.011 926.144 198.094 925.711 198.259C925.291 198.425 924.979 198.641 924.776 198.908C924.585 199.175 924.49 199.481 924.49 199.824C924.49 200.231 924.63 200.562 924.91 200.817C925.202 201.058 925.577 201.249 926.036 201.389C926.506 201.529 927.028 201.669 927.6 201.809C928.173 201.936 928.739 202.082 929.299 202.248C929.872 202.413 930.387 202.63 930.845 202.897C931.316 203.164 931.691 203.527 931.971 203.985C932.263 204.443 932.41 205.021 932.41 205.721C932.41 206.434 932.213 207.095 931.818 207.706C931.436 208.304 930.845 208.788 930.043 209.156C929.242 209.513 928.23 209.691 927.009 209.691ZM937.16 201.694H943.801V203.736H937.16V201.694ZM937.351 207.42H944.889V209.5H934.87V196.141H944.622V198.221H937.351V207.42ZM953.915 209.691C952.872 209.691 951.911 209.519 951.033 209.176C950.155 208.832 949.392 208.355 948.743 207.744C948.094 207.121 947.591 206.396 947.235 205.569C946.879 204.729 946.701 203.813 946.701 202.82C946.701 201.828 946.879 200.918 947.235 200.091C947.591 199.252 948.094 198.526 948.743 197.916C949.392 197.292 950.155 196.809 951.033 196.465C951.911 196.122 952.865 195.95 953.896 195.95C954.939 195.95 955.893 196.122 956.758 196.465C957.636 196.809 958.4 197.292 959.049 197.916C959.697 198.526 960.2 199.252 960.556 200.091C960.913 200.918 961.091 201.828 961.091 202.82C961.091 203.813 960.913 204.729 960.556 205.569C960.2 206.408 959.697 207.134 959.049 207.744C958.4 208.355 957.636 208.832 956.758 209.176C955.893 209.519 954.945 209.691 953.915 209.691ZM953.896 207.515C954.57 207.515 955.193 207.401 955.766 207.172C956.339 206.943 956.835 206.618 957.255 206.198C957.674 205.766 957.999 205.27 958.228 204.71C958.47 204.137 958.591 203.507 958.591 202.82C958.591 202.133 958.47 201.51 958.228 200.95C957.999 200.378 957.674 199.881 957.255 199.462C956.835 199.029 956.339 198.698 955.766 198.469C955.193 198.24 954.57 198.126 953.896 198.126C953.221 198.126 952.598 198.24 952.025 198.469C951.466 198.698 950.969 199.029 950.537 199.462C950.117 199.881 949.786 200.378 949.544 200.95C949.315 201.51 949.201 202.133 949.201 202.82C949.201 203.495 949.315 204.118 949.544 204.691C949.786 205.263 950.117 205.766 950.537 206.198C950.957 206.618 951.453 206.943 952.025 207.172C952.598 207.401 953.221 207.515 953.896 207.515Z" fill="#2B0C39"/>
<rect x="1139.5" y="3.5" width="172" height="172" rx="86" stroke="#2B0C39" stroke-width="6"/>
<g clip-path="url(#clip0_446_3651)">
<path d="M1186.81 39.25V126.75H1205.75V133H1180.5V33H1235.49L1262.56 59.8066V64.25H1231V39.25H1186.81ZM1237.31 43.6934V58H1251.76L1237.31 43.6934ZM1237.31 95.5H1243.62V70.5H1249.94V95.5H1256.25L1246.78 108L1237.31 95.5ZM1281.5 98.625L1268.88 108V101.75H1259.41L1264.14 95.5H1268.88V89.25L1281.5 98.625ZM1212.41 101.75C1212.7 99.1133 1213.34 96.5905 1214.33 94.1816C1215.32 91.7728 1216.67 89.5104 1218.38 87.3945L1222.86 91.8379C1220.59 94.7676 1219.21 98.0716 1218.72 101.75H1212.41ZM1218.72 108C1219.21 111.678 1220.59 114.982 1222.86 117.912L1218.38 122.355C1216.7 120.272 1215.37 118.026 1214.38 115.617C1213.39 113.208 1212.74 110.669 1212.41 108H1218.72ZM1237.31 83.3418C1233.6 83.8301 1230.26 85.1973 1227.3 87.4434L1222.81 83C1224.92 81.3398 1227.19 80.0215 1229.62 79.0449C1232.05 78.0684 1234.62 77.4173 1237.31 77.0918V83.3418ZM1258.07 117.912C1260.34 114.982 1261.72 111.678 1262.22 108H1268.53C1268.23 110.637 1267.59 113.16 1266.61 115.568C1265.62 117.977 1264.27 120.24 1262.56 122.355L1258.07 117.912ZM1243.62 126.408C1247.34 125.92 1250.68 124.553 1253.64 122.307L1258.12 126.75C1256.02 128.41 1253.75 129.729 1251.32 130.705C1248.89 131.682 1246.32 132.333 1243.62 132.658V126.408ZM1222.81 126.75L1227.3 122.307C1230.26 124.553 1233.6 125.92 1237.31 126.408V132.658C1234.65 132.365 1232.1 131.73 1229.67 130.754C1227.24 129.777 1224.95 128.443 1222.81 126.75Z" fill="#2B0C39"/>
<path d="M1186.81 39.25V126.75H1205.75V133H1180.5V33H1235.49L1262.56 59.8066V64.25H1231V39.25H1186.81ZM1237.31 43.6934V58H1251.76L1237.31 43.6934ZM1237.31 95.5H1243.62V70.5H1249.94V95.5H1256.25L1246.78 108L1237.31 95.5ZM1281.5 98.625L1268.88 108V101.75H1259.41L1264.14 95.5H1268.88V89.25L1281.5 98.625ZM1212.41 101.75C1212.7 99.1133 1213.34 96.5905 1214.33 94.1816C1215.32 91.7728 1216.67 89.5104 1218.38 87.3945L1222.86 91.8379C1220.59 94.7676 1219.21 98.0716 1218.72 101.75H1212.41ZM1218.72 108C1219.21 111.678 1220.59 114.982 1222.86 117.912L1218.38 122.355C1216.7 120.272 1215.37 118.026 1214.38 115.617C1213.39 113.208 1212.74 110.669 1212.41 108H1218.72ZM1237.31 83.3418C1233.6 83.8301 1230.26 85.1973 1227.3 87.4434L1222.81 83C1224.92 81.3398 1227.19 80.0215 1229.62 79.0449C1232.05 78.0684 1234.62 77.4173 1237.31 77.0918V83.3418ZM1258.07 117.912C1260.34 114.982 1261.72 111.678 1262.22 108H1268.53C1268.23 110.637 1267.59 113.16 1266.61 115.568C1265.62 117.977 1264.27 120.24 1262.56 122.355L1258.07 117.912ZM1243.62 126.408C1247.34 125.92 1250.68 124.553 1253.64 122.307L1258.12 126.75C1256.02 128.41 1253.75 129.729 1251.32 130.705C1248.89 131.682 1246.32 132.333 1243.62 132.658V126.408ZM1222.81 126.75L1227.3 122.307C1230.26 124.553 1233.6 125.92 1237.31 126.408V132.658C1234.65 132.365 1232.1 131.73 1229.67 130.754C1227.24 129.777 1224.95 128.443 1222.81 126.75Z" stroke="black"/>
</g>
<path d="M1164.56 209.5L1170.57 196.141H1173.02L1179.05 209.5H1176.45L1171.28 197.458H1172.27L1167.12 209.5H1164.56ZM1167.33 206.408L1168 204.462H1175.21L1175.88 206.408H1167.33ZM1185.1 209.634C1184.03 209.634 1183.08 209.411 1182.24 208.966C1181.41 208.508 1180.76 207.884 1180.29 207.095C1179.82 206.307 1179.59 205.41 1179.59 204.404C1179.59 203.387 1179.82 202.49 1180.29 201.713C1180.76 200.925 1181.41 200.308 1182.24 199.862C1183.08 199.417 1184.03 199.194 1185.1 199.194C1186.09 199.194 1186.96 199.398 1187.72 199.805C1188.48 200.199 1189.06 200.785 1189.45 201.561L1187.62 202.63C1187.31 202.146 1186.94 201.79 1186.49 201.561C1186.06 201.332 1185.59 201.217 1185.08 201.217C1184.5 201.217 1183.97 201.345 1183.5 201.599C1183.03 201.853 1182.66 202.222 1182.39 202.706C1182.12 203.177 1181.99 203.743 1181.99 204.404C1181.99 205.066 1182.12 205.639 1182.39 206.122C1182.66 206.593 1183.03 206.955 1183.5 207.21C1183.97 207.464 1184.5 207.592 1185.08 207.592C1185.59 207.592 1186.06 207.477 1186.49 207.248C1186.94 207.019 1187.31 206.663 1187.62 206.179L1189.45 207.248C1189.06 208.011 1188.48 208.603 1187.72 209.023C1186.96 209.43 1186.09 209.634 1185.1 209.634ZM1196.04 209.634C1194.97 209.634 1194.02 209.411 1193.18 208.966C1192.35 208.508 1191.7 207.884 1191.23 207.095C1190.76 206.307 1190.53 205.41 1190.53 204.404C1190.53 203.387 1190.76 202.49 1191.23 201.713C1191.7 200.925 1192.35 200.308 1193.18 199.862C1194.02 199.417 1194.97 199.194 1196.04 199.194C1197.03 199.194 1197.9 199.398 1198.66 199.805C1199.42 200.199 1200 200.785 1200.39 201.561L1198.56 202.63C1198.25 202.146 1197.88 201.79 1197.43 201.561C1197 201.332 1196.53 201.217 1196.02 201.217C1195.44 201.217 1194.91 201.345 1194.44 201.599C1193.97 201.853 1193.6 202.222 1193.33 202.706C1193.06 203.177 1192.93 203.743 1192.93 204.404C1192.93 205.066 1193.06 205.639 1193.33 206.122C1193.6 206.593 1193.97 206.955 1194.44 207.21C1194.91 207.464 1195.44 207.592 1196.02 207.592C1196.53 207.592 1197 207.477 1197.43 207.248C1197.88 207.019 1198.25 206.663 1198.56 206.179L1200.39 207.248C1200 208.011 1199.42 208.603 1198.66 209.023C1197.9 209.43 1197.03 209.634 1196.04 209.634ZM1207.1 209.634C1205.96 209.634 1204.97 209.411 1204.12 208.966C1203.28 208.508 1202.62 207.884 1202.15 207.095C1201.69 206.307 1201.47 205.41 1201.47 204.404C1201.47 203.387 1201.69 202.49 1202.13 201.713C1202.59 200.925 1203.21 200.308 1204 199.862C1204.81 199.417 1205.72 199.194 1206.73 199.194C1207.73 199.194 1208.61 199.411 1209.39 199.843C1210.16 200.276 1210.77 200.886 1211.22 201.675C1211.66 202.464 1211.89 203.393 1211.89 204.462C1211.89 204.563 1211.88 204.678 1211.87 204.805C1211.87 204.932 1211.86 205.053 1211.85 205.168H1203.35V203.584H1210.59L1209.65 204.08C1209.67 203.495 1209.54 202.979 1209.29 202.534C1209.04 202.089 1208.69 201.739 1208.24 201.484C1207.81 201.23 1207.31 201.103 1206.73 201.103C1206.15 201.103 1205.63 201.23 1205.19 201.484C1204.75 201.739 1204.41 202.095 1204.16 202.553C1203.91 202.999 1203.79 203.527 1203.79 204.137V204.519C1203.79 205.13 1203.93 205.67 1204.21 206.141C1204.49 206.612 1204.89 206.974 1205.4 207.229C1205.91 207.483 1206.49 207.611 1207.15 207.611C1207.73 207.611 1208.24 207.522 1208.7 207.343C1209.16 207.165 1209.56 206.885 1209.92 206.504L1211.2 207.973C1210.74 208.508 1210.16 208.921 1209.46 209.214C1208.77 209.494 1207.99 209.634 1207.1 209.634ZM1217.33 209.634C1216.47 209.634 1215.65 209.525 1214.86 209.309C1214.09 209.08 1213.47 208.807 1213.01 208.489L1213.93 206.675C1214.39 206.968 1214.93 207.21 1215.57 207.401C1216.21 207.592 1216.84 207.687 1217.48 207.687C1218.23 207.687 1218.77 207.585 1219.1 207.382C1219.44 207.178 1219.62 206.904 1219.62 206.561C1219.62 206.281 1219.5 206.071 1219.27 205.931C1219.04 205.779 1218.74 205.664 1218.38 205.588C1218.01 205.511 1217.59 205.441 1217.14 205.378C1216.69 205.314 1216.24 205.231 1215.78 205.13C1215.34 205.015 1214.93 204.856 1214.56 204.653C1214.19 204.436 1213.89 204.15 1213.66 203.794C1213.43 203.437 1213.32 202.967 1213.32 202.381C1213.32 201.733 1213.5 201.173 1213.87 200.702C1214.24 200.219 1214.76 199.85 1215.42 199.595C1216.09 199.328 1216.89 199.194 1217.8 199.194C1218.49 199.194 1219.18 199.271 1219.88 199.423C1220.58 199.576 1221.16 199.792 1221.62 200.072L1220.7 201.885C1220.22 201.593 1219.73 201.395 1219.23 201.294C1218.75 201.179 1218.27 201.122 1217.78 201.122C1217.06 201.122 1216.52 201.23 1216.16 201.446C1215.82 201.663 1215.65 201.936 1215.65 202.267C1215.65 202.572 1215.76 202.801 1215.99 202.954C1216.22 203.107 1216.52 203.228 1216.89 203.317C1217.26 203.406 1217.66 203.482 1218.11 203.546C1218.57 203.596 1219.02 203.679 1219.46 203.794C1219.91 203.908 1220.32 204.067 1220.69 204.271C1221.07 204.462 1221.37 204.735 1221.6 205.091C1221.83 205.448 1221.94 205.912 1221.94 206.485C1221.94 207.121 1221.75 207.674 1221.37 208.145C1221 208.616 1220.48 208.985 1219.79 209.252C1219.1 209.506 1218.28 209.634 1217.33 209.634ZM1227.15 209.634C1226.3 209.634 1225.47 209.525 1224.69 209.309C1223.91 209.08 1223.29 208.807 1222.83 208.489L1223.75 206.675C1224.21 206.968 1224.76 207.21 1225.39 207.401C1226.03 207.592 1226.66 207.687 1227.3 207.687C1228.05 207.687 1228.59 207.585 1228.92 207.382C1229.27 207.178 1229.44 206.904 1229.44 206.561C1229.44 206.281 1229.32 206.071 1229.09 205.931C1228.87 205.779 1228.57 205.664 1228.2 205.588C1227.83 205.511 1227.42 205.441 1226.96 205.378C1226.51 205.314 1226.06 205.231 1225.6 205.13C1225.16 205.015 1224.75 204.856 1224.38 204.653C1224.01 204.436 1223.71 204.15 1223.48 203.794C1223.25 203.437 1223.14 202.967 1223.14 202.381C1223.14 201.733 1223.32 201.173 1223.69 200.702C1224.06 200.219 1224.58 199.85 1225.24 199.595C1225.91 199.328 1226.71 199.194 1227.63 199.194C1228.31 199.194 1229.01 199.271 1229.71 199.423C1230.41 199.576 1230.98 199.792 1231.44 200.072L1230.53 201.885C1230.04 201.593 1229.55 201.395 1229.06 201.294C1228.57 201.179 1228.09 201.122 1227.61 201.122C1226.88 201.122 1226.34 201.23 1225.98 201.446C1225.64 201.663 1225.47 201.936 1225.47 202.267C1225.47 202.572 1225.58 202.801 1225.81 202.954C1226.04 203.107 1226.34 203.228 1226.71 203.317C1227.08 203.406 1227.49 203.482 1227.93 203.546C1228.39 203.596 1228.84 203.679 1229.29 203.794C1229.73 203.908 1230.14 204.067 1230.51 204.271C1230.89 204.462 1231.19 204.735 1231.42 205.091C1231.65 205.448 1231.77 205.912 1231.77 206.485C1231.77 207.121 1231.58 207.674 1231.19 208.145C1230.83 208.616 1230.3 208.985 1229.61 209.252C1228.92 209.506 1228.1 209.634 1227.15 209.634ZM1233.82 209.5V199.309H1236.21V209.5H1233.82ZM1235.02 197.629C1234.58 197.629 1234.21 197.489 1233.92 197.21C1233.64 196.93 1233.5 196.592 1233.5 196.198C1233.5 195.791 1233.64 195.454 1233.92 195.187C1234.21 194.907 1234.58 194.767 1235.02 194.767C1235.47 194.767 1235.83 194.9 1236.11 195.167C1236.4 195.422 1236.55 195.746 1236.55 196.141C1236.55 196.561 1236.41 196.917 1236.13 197.21C1235.85 197.489 1235.48 197.629 1235.02 197.629ZM1244.99 209.634C1244.12 209.634 1243.35 209.443 1242.68 209.061C1242 208.679 1241.47 208.107 1241.07 207.343C1240.69 206.567 1240.5 205.588 1240.5 204.404C1240.5 203.208 1240.7 202.229 1241.09 201.465C1241.5 200.702 1242.04 200.136 1242.72 199.767C1243.4 199.385 1244.16 199.194 1244.99 199.194C1245.99 199.194 1246.88 199.411 1247.64 199.843C1248.42 200.276 1249.03 200.88 1249.47 201.656C1249.93 202.432 1250.16 203.348 1250.16 204.404C1250.16 205.46 1249.93 206.376 1249.47 207.153C1249.03 207.929 1248.42 208.539 1247.64 208.985C1246.88 209.417 1245.99 209.634 1244.99 209.634ZM1239.34 209.5V195.339H1241.72V201.675L1241.53 204.385L1241.61 207.095V209.5H1239.34ZM1244.72 207.592C1245.29 207.592 1245.8 207.464 1246.25 207.21C1246.7 206.955 1247.07 206.586 1247.33 206.103C1247.6 205.619 1247.73 205.053 1247.73 204.404C1247.73 203.743 1247.6 203.177 1247.33 202.706C1247.07 202.222 1246.7 201.853 1246.25 201.599C1245.8 201.345 1245.29 201.217 1244.72 201.217C1244.15 201.217 1243.63 201.345 1243.17 201.599C1242.72 201.853 1242.35 202.222 1242.09 202.706C1241.82 203.177 1241.69 203.743 1241.69 204.404C1241.69 205.053 1241.82 205.619 1242.09 206.103C1242.35 206.586 1242.72 206.955 1243.17 207.21C1243.63 207.464 1244.15 207.592 1244.72 207.592ZM1252.42 209.5V199.309H1254.81V209.5H1252.42ZM1253.62 197.629C1253.18 197.629 1252.81 197.489 1252.52 197.21C1252.24 196.93 1252.1 196.592 1252.1 196.198C1252.1 195.791 1252.24 195.454 1252.52 195.187C1252.81 194.907 1253.18 194.767 1253.62 194.767C1254.07 194.767 1254.43 194.9 1254.71 195.167C1255 195.422 1255.15 195.746 1255.15 196.141C1255.15 196.561 1255.01 196.917 1254.73 197.21C1254.45 197.489 1254.08 197.629 1253.62 197.629ZM1257.94 209.5V195.339H1260.32V209.5H1257.94ZM1263.45 209.5V199.309H1265.84V209.5H1263.45ZM1264.66 197.629C1264.21 197.629 1263.84 197.489 1263.55 197.21C1263.27 196.93 1263.13 196.592 1263.13 196.198C1263.13 195.791 1263.27 195.454 1263.55 195.187C1263.84 194.907 1264.21 194.767 1264.66 194.767C1265.1 194.767 1265.46 194.9 1265.74 195.167C1266.04 195.422 1266.18 195.746 1266.18 196.141C1266.18 196.561 1266.04 196.917 1265.76 197.21C1265.48 197.489 1265.11 197.629 1264.66 197.629ZM1272.81 209.634C1271.69 209.634 1270.82 209.347 1270.21 208.775C1269.6 208.19 1269.3 207.331 1269.3 206.198V197.057H1271.68V206.141C1271.68 206.625 1271.8 207 1272.04 207.267C1272.3 207.534 1272.65 207.668 1273.09 207.668C1273.63 207.668 1274.07 207.528 1274.43 207.248L1275.1 208.947C1274.82 209.176 1274.47 209.347 1274.07 209.462C1273.66 209.576 1273.24 209.634 1272.81 209.634ZM1267.62 201.294V199.385H1274.41V201.294H1267.62ZM1277.71 213.336C1277.22 213.336 1276.72 213.253 1276.22 213.088C1275.73 212.923 1275.31 212.693 1274.98 212.401L1275.94 210.645C1276.18 210.861 1276.45 211.033 1276.76 211.16C1277.06 211.288 1277.38 211.351 1277.69 211.351C1278.13 211.351 1278.48 211.243 1278.74 211.027C1279.01 210.81 1279.26 210.448 1279.49 209.939L1280.08 208.603L1280.27 208.317L1284.13 199.309H1286.42L1281.64 210.321C1281.33 211.084 1280.97 211.688 1280.58 212.134C1280.19 212.579 1279.76 212.891 1279.28 213.069C1278.81 213.247 1278.29 213.336 1277.71 213.336ZM1279.81 209.863L1275.21 199.309H1277.69L1281.43 208.107L1279.81 209.863Z" fill="#2B0C39"/>
<defs>
<clipPath id="clip0_446_3651">
<rect width="101" height="100" fill="white" transform="translate(1180.5 33)"/>
</clipPath>
</defs>
</svg>
